M48
; DRILL file {KiCad 8.0.5} date 2024-10-10T19:29:23+0200
; FORMAT={-:-/ absolute / inch / decimal}
; #@! TF.CreationDate,2024-10-10T19:29:23+02:00
; #@! TF.GenerationSoftware,Kicad,Pcbnew,8.0.5
; #@! TF.FileFunction,Plated,1,2,PTH
FMAT,2
INCH
; #@! TA.AperFunction,Plated,PTH,ViaDrill
T1C0.0236
; #@! TA.AperFunction,Plated,PTH,ComponentDrill
T2C0.0276
; #@! TA.AperFunction,Plated,PTH,ComponentDrill
T3C0.0315
; #@! TA.AperFunction,Plated,PTH,ComponentDrill
T4C0.0394
; #@! TA.AperFunction,Plated,PTH,ComponentDrill
T5C0.0433
; #@! TA.AperFunction,Plated,PTH,ComponentDrill
T6C0.0512
%
G90
G05
T1
X2.65Y-2.6
X2.65Y-2.95
T2
X2.1Y-2.7
X2.1Y-3.0
X2.25Y-3.6
X2.25Y-4.1
X2.25Y-4.25
X2.25Y-4.4
X2.3Y-2.8
X2.3Y-3.1
X2.35Y-3.75
X2.45Y-3.9
X2.5Y-2.9
X2.5Y-3.2
X2.55Y-4.1
X2.55Y-4.25
X2.55Y-4.4
X2.8498Y-5.0
X2.8498Y-5.3
X2.8498Y-5.45
X2.8498Y-5.75
X2.9998Y-5.0
X2.9998Y-5.3
X2.9998Y-5.45
X2.9998Y-5.75
X3.0Y-4.85
X3.1498Y-5.0
X3.1498Y-5.3
X3.1498Y-5.45
X3.1498Y-5.75
X3.25Y-1.75
X3.25Y-2.15
X3.35Y-5.15
X3.3502Y-5.3004
X3.3502Y-5.4504
X3.3502Y-5.6004
X3.5Y-5.15
X3.65Y-5.15
X3.6502Y-5.3004
X3.6502Y-5.4504
X3.6502Y-5.6004
X4.0Y-2.2
X4.0Y-3.5
X4.0Y-4.8
X4.15Y-1.6
X4.15Y-1.8
X4.15Y-2.0
X4.15Y-2.3
X4.15Y-2.9
X4.15Y-3.1
X4.15Y-3.3
X4.15Y-3.6
X4.15Y-4.25
X4.15Y-4.4
X4.15Y-4.6
X4.15Y-4.9
X4.45Y-1.8
X4.45Y-3.1
X4.45Y-4.4
T3
X2.25Y-4.6
X2.25Y-4.7
X2.25Y-4.8
X2.25Y-4.9
X2.25Y-5.0
X2.25Y-5.1
X2.25Y-5.2
X2.515Y-1.8554
X2.515Y-2.0523
X2.55Y-4.6
X2.55Y-4.7
X2.55Y-4.8
X2.55Y-4.9
X2.55Y-5.0
X2.55Y-5.1
X2.55Y-5.2
X2.95Y-1.8531
X2.95Y-2.05
X3.45Y-1.9213
X3.45Y-2.0
X3.45Y-3.2213
X3.45Y-3.3
X3.45Y-4.5213
X3.45Y-4.6
X3.7004Y-1.7004
X3.7004Y-1.8004
X3.7004Y-1.9004
X3.7004Y-2.0004
X3.7004Y-3.0004
X3.7004Y-3.1004
X3.7004Y-3.2004
X3.7004Y-3.3004
X3.7004Y-4.3004
X3.7004Y-4.4004
X3.7004Y-4.5004
X3.7004Y-4.6004
X3.8Y-1.4
X3.8Y-2.7
X3.8Y-4.0
X3.8787Y-1.4
X3.8787Y-2.7
X3.8787Y-4.0
X4.0004Y-1.7004
X4.0004Y-1.8004
X4.0004Y-1.9004
X4.0004Y-2.0004
X4.0004Y-3.0004
X4.0004Y-3.1004
X4.0004Y-3.2004
X4.0004Y-3.3004
X4.0004Y-4.3004
X4.0004Y-4.4004
X4.0004Y-4.5004
X4.0004Y-4.6004
T4
X1.85Y-2.6
X1.85Y-2.7
X1.85Y-2.8
X1.85Y-2.9
X1.85Y-3.0
X1.85Y-3.1
X1.85Y-3.2
X1.85Y-3.3
X1.85Y-3.4
X1.85Y-3.5
X1.85Y-3.6
X5.262Y-2.8502
X5.262Y-2.9502
X5.262Y-3.2002
X5.262Y-3.3002
X5.262Y-3.5502
X5.262Y-3.6502
T5
X3.55Y-1.3
X3.55Y-1.7
X3.55Y-2.6
X3.55Y-3.0
X3.55Y-3.9
X3.55Y-4.3
X4.55Y-1.45
X4.55Y-2.1
X4.55Y-2.75
X4.55Y-3.4
X4.55Y-4.05
X4.55Y-4.7
X4.65Y-1.8
X4.65Y-2.45
X4.65Y-3.1
X4.65Y-3.75
X4.65Y-4.4004
X4.65Y-5.05
X4.75Y-1.8
X4.75Y-2.45
X4.75Y-3.1
X4.75Y-3.75
X4.75Y-4.4004
X4.75Y-5.05
X4.85Y-1.8
X4.85Y-2.45
X4.85Y-3.1
X4.85Y-3.75
X4.85Y-4.4004
X4.85Y-5.05
X4.95Y-1.45
X4.95Y-2.1
X4.95Y-2.75
X4.95Y-3.4
X4.95Y-4.05
X4.95Y-4.7
T6
X2.0Y-1.85
X2.0Y-2.05
X5.662Y-3.1002
X5.662Y-3.3002
X5.662Y-3.5002
M30
