M48
; DRILL file {KiCad 8.0.5} date 2024-10-06T18:47:04+0200
; FORMAT={-:-/ absolute / inch / decimal}
; #@! TF.CreationDate,2024-10-06T18:47:04+02:00
; #@! TF.GenerationSoftware,Kicad,Pcbnew,8.0.5
; #@! TF.FileFunction,Plated,1,2,PTH
FMAT,2
INCH
; #@! TA.AperFunction,Plated,PTH,ViaDrill
T1C0.0118
; #@! TA.AperFunction,Plated,PTH,ComponentDrill
T2C0.0157
; #@! TA.AperFunction,Plated,PTH,ComponentDrill
T3C0.0197
; #@! TA.AperFunction,Plated,PTH,ComponentDrill
T4C0.0276
; #@! TA.AperFunction,Plated,PTH,ComponentDrill
T5C0.0315
; #@! TA.AperFunction,Plated,PTH,ComponentDrill
T6C0.0394
; #@! TA.AperFunction,Plated,PTH,ComponentDrill
T7C0.0433
; #@! TA.AperFunction,Plated,PTH,ComponentDrill
T8C0.0866
; #@! TA.AperFunction,Plated,PTH,ComponentDrill
T9C0.1260
%
G90
G05
T1
X2.65Y-2.6
X2.65Y-2.95
T2
X1.835Y-1.7
X1.835Y-2.05
X1.8541Y-1.6541
X1.8541Y-1.7459
X1.8541Y-2.0041
X1.8541Y-2.0959
X1.9Y-1.635
X1.9Y-1.765
X1.9Y-1.985
X1.9Y-2.115
X1.9459Y-1.6541
X1.9459Y-1.7459
X1.9459Y-2.0041
X1.9459Y-2.0959
X1.965Y-1.7
X1.965Y-2.05
X5.5846Y-3.3
X5.5887Y-2.9459
X5.5887Y-3.65
X5.6037Y-3.2541
X5.6037Y-3.3459
X5.6077Y-2.9
X5.6077Y-2.9919
X5.6077Y-3.6041
X5.6077Y-3.6959
X5.6496Y-3.235
X5.6496Y-3.365
X5.6537Y-2.881
X5.6537Y-3.0109
X5.6537Y-3.585
X5.6537Y-3.715
X5.6955Y-3.2541
X5.6955Y-3.3459
X5.6996Y-2.9
X5.6996Y-2.9919
X5.6996Y-3.6041
X5.6996Y-3.6959
X5.7146Y-3.3
X5.7186Y-2.9459
X5.7186Y-3.65
T3
X1.8055Y-1.2
X1.8055Y-5.7
X1.8332Y-1.1332
X1.8332Y-1.2668
X1.8332Y-5.6332
X1.8332Y-5.7668
X1.9Y-1.1055
X1.9Y-1.2945
X1.9Y-5.6055
X1.9Y-5.7945
X1.9668Y-1.1332
X1.9668Y-1.2668
X1.9668Y-5.6332
X1.9668Y-5.7668
X1.9945Y-1.2
X1.9945Y-5.7
X5.7055Y-1.1777
X5.711Y-5.7168
X5.7332Y-1.1109
X5.7332Y-1.2445
X5.7387Y-5.65
X5.7387Y-5.7836
X5.8Y-1.0832
X5.8Y-1.2722
X5.8055Y-5.6223
X5.8055Y-5.8113
X5.8668Y-1.1109
X5.8668Y-1.2445
X5.8723Y-5.65
X5.8723Y-5.7836
X5.8945Y-1.1777
X5.9Y-5.7168
T4
X2.1Y-2.7
X2.1Y-3.0
X2.25Y-3.6
X2.25Y-4.1
X2.25Y-4.25
X2.25Y-4.4
X2.3Y-2.8
X2.3Y-3.1
X2.35Y-3.75
X2.45Y-3.9
X2.5Y-2.9
X2.5Y-3.2
X2.55Y-4.1
X2.55Y-4.25
X2.55Y-4.4
X2.8498Y-5.0
X2.8498Y-5.3
X2.8498Y-5.45
X2.8498Y-5.75
X2.9998Y-5.0
X2.9998Y-5.3
X2.9998Y-5.45
X2.9998Y-5.75
X3.0Y-1.75
X3.0Y-2.15
X3.0Y-4.85
X3.1498Y-5.0
X3.1498Y-5.3
X3.1498Y-5.45
X3.1498Y-5.75
X3.35Y-5.15
X3.3502Y-5.3004
X3.3502Y-5.4504
X3.3502Y-5.6004
X3.5Y-5.15
X3.65Y-5.15
X3.6502Y-5.3004
X3.6502Y-5.4504
X3.6502Y-5.6004
X4.0Y-2.2
X4.0Y-3.5
X4.0Y-4.8
X4.15Y-1.6
X4.15Y-1.8
X4.15Y-2.0
X4.15Y-2.3
X4.15Y-2.9
X4.15Y-3.1
X4.15Y-3.3
X4.15Y-3.6
X4.15Y-4.25
X4.15Y-4.4
X4.15Y-4.6
X4.15Y-4.9
X4.45Y-1.8
X4.45Y-3.1
X4.45Y-4.4
T5
X2.25Y-4.6
X2.25Y-4.7
X2.25Y-4.8
X2.25Y-4.9
X2.25Y-5.0
X2.25Y-5.1
X2.25Y-5.2
X2.265Y-1.8554
X2.265Y-2.0523
X2.55Y-4.6
X2.55Y-4.7
X2.55Y-4.8
X2.55Y-4.9
X2.55Y-5.0
X2.55Y-5.1
X2.55Y-5.2
X2.7Y-1.8531
X2.7Y-2.05
X3.45Y-1.9213
X3.45Y-2.0
X3.45Y-3.2213
X3.45Y-3.3
X3.45Y-4.5213
X3.45Y-4.6
X3.7004Y-1.7004
X3.7004Y-1.8004
X3.7004Y-1.9004
X3.7004Y-2.0004
X3.7004Y-3.0004
X3.7004Y-3.1004
X3.7004Y-3.2004
X3.7004Y-3.3004
X3.7004Y-4.3004
X3.7004Y-4.4004
X3.7004Y-4.5004
X3.7004Y-4.6004
X3.8Y-1.4
X3.8Y-2.7
X3.8Y-4.0
X3.8787Y-1.4
X3.8787Y-2.7
X3.8787Y-4.0
X4.0004Y-1.7004
X4.0004Y-1.8004
X4.0004Y-1.9004
X4.0004Y-2.0004
X4.0004Y-3.0004
X4.0004Y-3.1004
X4.0004Y-3.2004
X4.0004Y-3.3004
X4.0004Y-4.3004
X4.0004Y-4.4004
X4.0004Y-4.5004
X4.0004Y-4.6004
T6
X1.85Y-2.6
X1.85Y-2.7
X1.85Y-2.8
X1.85Y-2.9
X1.85Y-3.0
X1.85Y-3.1
X1.85Y-3.2
X1.85Y-3.3
X1.85Y-3.4
X1.85Y-3.5
X1.85Y-3.6
X5.35Y-2.85
X5.35Y-2.95
X5.35Y-3.2
X5.35Y-3.3
X5.35Y-3.55
X5.35Y-3.65
T7
X3.55Y-1.3
X3.55Y-1.7
X3.55Y-2.6
X3.55Y-3.0
X3.55Y-3.9
X3.55Y-4.3
X4.55Y-1.45
X4.55Y-2.1
X4.55Y-2.75
X4.55Y-3.4
X4.55Y-4.05
X4.55Y-4.7
X4.65Y-1.8
X4.65Y-2.45
X4.65Y-3.1
X4.65Y-3.75
X4.65Y-4.4004
X4.65Y-5.05
X4.75Y-1.8
X4.75Y-2.45
X4.75Y-3.1
X4.75Y-3.75
X4.75Y-4.4004
X4.75Y-5.05
X4.85Y-1.8
X4.85Y-2.45
X4.85Y-3.1
X4.85Y-3.75
X4.85Y-4.4004
X4.85Y-5.05
X4.95Y-1.45
X4.95Y-2.1
X4.95Y-2.75
X4.95Y-3.4
X4.95Y-4.05
X4.95Y-4.7
T8
X1.9Y-1.7
X1.9Y-2.05
X5.6496Y-3.3
X5.6537Y-2.9459
X5.6537Y-3.65
T9
X1.9Y-1.2
X1.9Y-5.7
X5.8Y-1.1777
X5.8055Y-5.7168
M30
