%TF.GenerationSoftware,KiCad,Pcbnew,8.0.5*%
%TF.CreationDate,2024-10-06T18:47:07+02:00*%
%TF.ProjectId,ESC_MOTEUR_BRUSHLESS,4553435f-4d4f-4544-9555-525f42525553,rev?*%
%TF.SameCoordinates,Original*%
%TF.FileFunction,Soldermask,Top*%
%TF.FilePolarity,Negative*%
%FSLAX46Y46*%
G04 Gerber Fmt 4.6, Leading zero omitted, Abs format (unit mm)*
G04 Created by KiCad (PCBNEW 8.0.5) date 2024-10-06 18:47:07*
%MOMM*%
%LPD*%
G01*
G04 APERTURE LIST*
%ADD10C,1.500000*%
%ADD11C,1.400000*%
%ADD12O,1.400000X1.400000*%
%ADD13R,1.905000X2.000000*%
%ADD14O,1.905000X2.000000*%
%ADD15C,0.800000*%
%ADD16C,6.400000*%
%ADD17R,1.600000X1.600000*%
%ADD18C,1.600000*%
%ADD19O,1.600000X1.600000*%
%ADD20R,1.700000X1.700000*%
%ADD21O,1.700000X1.700000*%
%ADD22R,2.200000X2.200000*%
%ADD23O,2.200000X2.200000*%
%ADD24C,0.700000*%
%ADD25C,4.400000*%
G04 APERTURE END LIST*
D10*
%TO.C,P_BLO1*%
X101600000Y-88900000D03*
%TD*%
D11*
%TO.C,R17*%
X105410000Y-111760000D03*
D12*
X113030000Y-111760000D03*
%TD*%
D11*
%TO.C,R11*%
X85095000Y-138440000D03*
D12*
X92715000Y-138440000D03*
%TD*%
D13*
%TO.C,Q3*%
X118110000Y-78740000D03*
D14*
X120650000Y-78740000D03*
X123190000Y-78740000D03*
%TD*%
D10*
%TO.C,P_BL1*%
X58420000Y-78740000D03*
%TD*%
%TO.C,GND1*%
X76200000Y-54610000D03*
%TD*%
D15*
%TO.C,H1*%
X45860000Y-30480000D03*
X46562944Y-28782944D03*
X46562944Y-32177056D03*
X48260000Y-28080000D03*
D16*
X48260000Y-30480000D03*
D15*
X48260000Y-32880000D03*
X49957056Y-28782944D03*
X49957056Y-32177056D03*
X50660000Y-30480000D03*
%TD*%
D11*
%TO.C,R18*%
X105410000Y-116840000D03*
D12*
X105410000Y-124460000D03*
%TD*%
D10*
%TO.C,PTB2*%
X88900000Y-130810000D03*
%TD*%
D11*
%TO.C,R3*%
X64770000Y-111760000D03*
D12*
X57150000Y-111760000D03*
%TD*%
D17*
%TO.C,C3*%
X87630000Y-48800000D03*
D18*
X87630000Y-50800000D03*
%TD*%
D13*
%TO.C,Q1*%
X118110000Y-45720000D03*
D14*
X120650000Y-45720000D03*
X123190000Y-45720000D03*
%TD*%
D11*
%TO.C,R5*%
X76195000Y-127000000D03*
D12*
X76195000Y-134620000D03*
%TD*%
D11*
%TO.C,R15*%
X105410000Y-78740000D03*
D12*
X113030000Y-78740000D03*
%TD*%
D10*
%TO.C,P_CHO1*%
X105410000Y-107950000D03*
%TD*%
D17*
%TO.C,U2*%
X93990000Y-43190000D03*
D19*
X93990000Y-45730000D03*
X93990000Y-48270000D03*
X93990000Y-50810000D03*
X101610000Y-50810000D03*
X101610000Y-48270000D03*
X101610000Y-45730000D03*
X101610000Y-43190000D03*
%TD*%
D20*
%TO.C,J1*%
X46990000Y-91440000D03*
D21*
X46990000Y-88900000D03*
X46990000Y-86360000D03*
X46990000Y-83820000D03*
X46990000Y-81280000D03*
X46990000Y-78740000D03*
X46990000Y-76200000D03*
X46990000Y-73660000D03*
X46990000Y-71120000D03*
X46990000Y-68580000D03*
X46990000Y-66040000D03*
%TD*%
D22*
%TO.C,D8*%
X115570000Y-86360000D03*
D23*
X125730000Y-86360000D03*
%TD*%
D13*
%TO.C,Q2*%
X118110000Y-62230000D03*
D14*
X120650000Y-62230000D03*
X123190000Y-62230000D03*
%TD*%
D22*
%TO.C,D2*%
X90170000Y-33020000D03*
D23*
X90170000Y-43180000D03*
%TD*%
D11*
%TO.C,R2*%
X64770000Y-107950000D03*
D12*
X57150000Y-107950000D03*
%TD*%
D22*
%TO.C,D9*%
X115570000Y-102870000D03*
D23*
X125730000Y-102870000D03*
%TD*%
D11*
%TO.C,R10*%
X85095000Y-142250000D03*
D12*
X92715000Y-142250000D03*
%TD*%
D10*
%TO.C,P_ALO1*%
X101600000Y-55880000D03*
%TD*%
%TO.C,P_CLO1*%
X101600000Y-121920000D03*
%TD*%
D17*
%TO.C,C8*%
X98520000Y-101600000D03*
D18*
X96520000Y-101600000D03*
%TD*%
D17*
%TO.C,C1*%
X68580000Y-47070000D03*
D18*
X68580000Y-52070000D03*
%TD*%
D24*
%TO.C,Alim+1*%
X46610000Y-43180000D03*
X47093274Y-42013274D03*
X47093274Y-44346726D03*
X48260000Y-41530000D03*
D25*
X48260000Y-43180000D03*
D24*
X48260000Y-44830000D03*
X49426726Y-42013274D03*
X49426726Y-44346726D03*
X49910000Y-43180000D03*
%TD*%
D10*
%TO.C,PTC1*%
X62230000Y-99060000D03*
%TD*%
%TO.C,P_CL1*%
X63500000Y-81280000D03*
%TD*%
D11*
%TO.C,R9*%
X72385000Y-138430000D03*
D12*
X72385000Y-146050000D03*
%TD*%
D11*
%TO.C,R12*%
X85095000Y-134630000D03*
D12*
X92715000Y-134630000D03*
%TD*%
D10*
%TO.C,PTB1*%
X59690000Y-95250000D03*
%TD*%
%TO.C,P_BH1*%
X58420000Y-71120000D03*
%TD*%
D13*
%TO.C,Q6*%
X118110000Y-128270000D03*
D14*
X120650000Y-128270000D03*
X123190000Y-128270000D03*
%TD*%
D24*
%TO.C,Alim-1*%
X46610000Y-52070000D03*
X47093274Y-50903274D03*
X47093274Y-53236726D03*
X48260000Y-50420000D03*
D25*
X48260000Y-52070000D03*
D24*
X48260000Y-53720000D03*
X49426726Y-50903274D03*
X49426726Y-53236726D03*
X49910000Y-52070000D03*
%TD*%
D22*
%TO.C,D6*%
X115570000Y-53340000D03*
D23*
X125730000Y-53340000D03*
%TD*%
D15*
%TO.C,H2*%
X144920000Y-29912944D03*
X145622944Y-28215888D03*
X145622944Y-31610000D03*
X147320000Y-27512944D03*
D16*
X147320000Y-29912944D03*
D15*
X147320000Y-32312944D03*
X149017056Y-28215888D03*
X149017056Y-31610000D03*
X149720000Y-29912944D03*
%TD*%
D17*
%TO.C,C4*%
X87630000Y-81820000D03*
D18*
X87630000Y-83820000D03*
%TD*%
D10*
%TO.C,P_BHO1*%
X105410000Y-73660000D03*
%TD*%
D22*
%TO.C,D7*%
X115570000Y-69850000D03*
D23*
X125730000Y-69850000D03*
%TD*%
D10*
%TO.C,P_AH1*%
X53340000Y-68580000D03*
%TD*%
%TO.C,P_CH1*%
X63500000Y-73660000D03*
%TD*%
D11*
%TO.C,R6*%
X80005000Y-127000000D03*
D12*
X80005000Y-134620000D03*
%TD*%
D10*
%TO.C,PTA1*%
X57150000Y-91440000D03*
%TD*%
D11*
%TO.C,R1*%
X64770000Y-104140000D03*
D12*
X57150000Y-104140000D03*
%TD*%
D24*
%TO.C,P_C1*%
X141953274Y-92710000D03*
X142436548Y-91543274D03*
X142436548Y-93876726D03*
X143603274Y-91060000D03*
D25*
X143603274Y-92710000D03*
D24*
X143603274Y-94360000D03*
X144770000Y-91543274D03*
X144770000Y-93876726D03*
X145253274Y-92710000D03*
%TD*%
D17*
%TO.C,U3*%
X93990000Y-76210000D03*
D19*
X93990000Y-78750000D03*
X93990000Y-81290000D03*
X93990000Y-83830000D03*
X101610000Y-83830000D03*
X101610000Y-81290000D03*
X101610000Y-78750000D03*
X101610000Y-76210000D03*
%TD*%
D10*
%TO.C,P_AL1*%
X53340000Y-76200000D03*
%TD*%
D13*
%TO.C,Q4*%
X118110000Y-95250000D03*
D14*
X120650000Y-95250000D03*
X123190000Y-95250000D03*
%TD*%
D10*
%TO.C,PTA2*%
X85090000Y-130810000D03*
%TD*%
D20*
%TO.C,JP3*%
X135890000Y-90170000D03*
D21*
X135890000Y-92710000D03*
%TD*%
D11*
%TO.C,R13*%
X105410000Y-45720000D03*
D12*
X113030000Y-45720000D03*
%TD*%
D11*
%TO.C,R4*%
X72385000Y-127000000D03*
D12*
X72385000Y-134620000D03*
%TD*%
D17*
%TO.C,U1*%
X57150000Y-116840000D03*
D19*
X57150000Y-119380000D03*
X57150000Y-121920000D03*
X57150000Y-124460000D03*
X57150000Y-127000000D03*
X57150000Y-129540000D03*
X57150000Y-132080000D03*
X64770000Y-132080000D03*
X64770000Y-129540000D03*
X64770000Y-127000000D03*
X64770000Y-124460000D03*
X64770000Y-121920000D03*
X64770000Y-119380000D03*
X64770000Y-116840000D03*
%TD*%
D17*
%TO.C,C7*%
X98520000Y-68580000D03*
D18*
X96520000Y-68580000D03*
%TD*%
D24*
%TO.C,P_B1*%
X141850000Y-83820000D03*
X142333274Y-82653274D03*
X142333274Y-84986726D03*
X143500000Y-82170000D03*
D25*
X143500000Y-83820000D03*
D24*
X143500000Y-85470000D03*
X144666726Y-82653274D03*
X144666726Y-84986726D03*
X145150000Y-83820000D03*
%TD*%
D22*
%TO.C,D10*%
X115570000Y-119380000D03*
D23*
X125730000Y-119380000D03*
%TD*%
D13*
%TO.C,Q5*%
X118110000Y-111770000D03*
D14*
X120650000Y-111770000D03*
X123190000Y-111770000D03*
%TD*%
D11*
%TO.C,R14*%
X105410000Y-50800000D03*
D12*
X105410000Y-58420000D03*
%TD*%
D17*
%TO.C,U4*%
X93990000Y-109230000D03*
D19*
X93990000Y-111770000D03*
X93990000Y-114310000D03*
X93990000Y-116850000D03*
X101610000Y-116850000D03*
X101610000Y-114310000D03*
X101610000Y-111770000D03*
X101610000Y-109230000D03*
%TD*%
D11*
%TO.C,R16*%
X105410000Y-83820000D03*
D12*
X105410000Y-91440000D03*
%TD*%
D11*
%TO.C,R8*%
X76195000Y-138430000D03*
D12*
X76195000Y-146050000D03*
%TD*%
D17*
%TO.C,C6*%
X98520000Y-35560000D03*
D18*
X96520000Y-35560000D03*
%TD*%
D20*
%TO.C,JP1*%
X135890000Y-72390000D03*
D21*
X135890000Y-74930000D03*
%TD*%
D22*
%TO.C,D3*%
X90170000Y-66040000D03*
D23*
X90170000Y-76200000D03*
%TD*%
D11*
%TO.C,R7*%
X80005000Y-138430000D03*
D12*
X80005000Y-146050000D03*
%TD*%
D10*
%TO.C,PTC2*%
X92710000Y-130810000D03*
%TD*%
%TO.C,P_AHO1*%
X105410000Y-40640000D03*
%TD*%
D20*
%TO.C,JP2*%
X135890000Y-81280000D03*
D21*
X135890000Y-83820000D03*
%TD*%
D10*
%TO.C,REF1*%
X76200000Y-123190000D03*
%TD*%
D15*
%TO.C,H3*%
X145060000Y-145207056D03*
X145762944Y-143510000D03*
X145762944Y-146904112D03*
X147460000Y-142807056D03*
D16*
X147460000Y-145207056D03*
D15*
X147460000Y-147607056D03*
X149157056Y-143510000D03*
X149157056Y-146904112D03*
X149860000Y-145207056D03*
%TD*%
D24*
%TO.C,P_A1*%
X141953274Y-74826726D03*
X142436548Y-73660000D03*
X142436548Y-75993452D03*
X143603274Y-73176726D03*
D25*
X143603274Y-74826726D03*
D24*
X143603274Y-76476726D03*
X144770000Y-73660000D03*
X144770000Y-75993452D03*
X145253274Y-74826726D03*
%TD*%
D22*
%TO.C,D5*%
X115570000Y-36830000D03*
D23*
X125730000Y-36830000D03*
%TD*%
D17*
%TO.C,C5*%
X87630000Y-114840000D03*
D18*
X87630000Y-116840000D03*
%TD*%
D10*
%TO.C,VCC1*%
X76200000Y-44450000D03*
%TD*%
D17*
%TO.C,C2*%
X57530000Y-47127349D03*
D18*
X57530000Y-52127349D03*
%TD*%
D22*
%TO.C,D4*%
X90170000Y-99060000D03*
D23*
X90170000Y-109220000D03*
%TD*%
D15*
%TO.C,H4*%
X45860000Y-144780000D03*
X46562944Y-143082944D03*
X46562944Y-146477056D03*
X48260000Y-142380000D03*
D16*
X48260000Y-144780000D03*
D15*
X48260000Y-147180000D03*
X49957056Y-143082944D03*
X49957056Y-146477056D03*
X50660000Y-144780000D03*
%TD*%
M02*
