%TF.GenerationSoftware,KiCad,Pcbnew,8.0.5*%
%TF.CreationDate,2024-10-06T18:47:03+02:00*%
%TF.ProjectId,ESC_MOTEUR_BRUSHLESS,4553435f-4d4f-4544-9555-525f42525553,rev?*%
%TF.SameCoordinates,Original*%
%TF.FileFunction,Drillmap*%
%TF.FilePolarity,Positive*%
%FSLAX45Y45*%
G04 Gerber Fmt 4.5, Leading zero omitted, Abs format (unit mm)*
G04 Created by KiCad (PCBNEW 8.0.5) date 2024-10-06 18:47:03*
%MOMM*%
%LPD*%
G01*
G04 APERTURE LIST*
%ADD10C,0.050000*%
%ADD11C,0.200000*%
%ADD12C,0.100000*%
%ADD13C,0.110000*%
%ADD14C,0.220000*%
%ADD15C,0.320000*%
G04 APERTURE END LIST*
D10*
X14858647Y-14986353D02*
X4699000Y-14986000D01*
X14842239Y-2540000D02*
G75*
G02*
X15239993Y-2921000I16411J-380990D01*
G01*
X15240000Y-14605000D02*
G75*
G02*
X14858647Y-14986360I-381360J0D01*
G01*
X4318000Y-14605000D02*
X4318000Y-2921000D01*
X4699000Y-14986000D02*
G75*
G02*
X4318000Y-14605000I0J381000D01*
G01*
X4318000Y-2921000D02*
G75*
G02*
X4699000Y-2540000I381000J0D01*
G01*
X4699000Y-2540000D02*
X14842239Y-2540000D01*
X15240000Y-2921000D02*
X15240000Y-14605000D01*
D11*
D12*
X6716000Y-6589000D02*
X6746000Y-6619000D01*
X6746000Y-6589000D02*
X6716000Y-6619000D01*
X6716000Y-7478000D02*
X6746000Y-7508000D01*
X6746000Y-7478000D02*
X6716000Y-7508000D01*
X4681000Y-4318000D02*
G75*
G02*
X4641000Y-4318000I-20000J0D01*
G01*
X4641000Y-4318000D02*
G75*
G02*
X4681000Y-4318000I20000J0D01*
G01*
X4681000Y-5207000D02*
G75*
G02*
X4641000Y-5207000I-20000J0D01*
G01*
X4641000Y-5207000D02*
G75*
G02*
X4681000Y-5207000I20000J0D01*
G01*
X4729327Y-4201327D02*
G75*
G02*
X4689327Y-4201327I-20000J0D01*
G01*
X4689327Y-4201327D02*
G75*
G02*
X4729327Y-4201327I20000J0D01*
G01*
X4729327Y-4434673D02*
G75*
G02*
X4689327Y-4434673I-20000J0D01*
G01*
X4689327Y-4434673D02*
G75*
G02*
X4729327Y-4434673I20000J0D01*
G01*
X4729327Y-5090327D02*
G75*
G02*
X4689327Y-5090327I-20000J0D01*
G01*
X4689327Y-5090327D02*
G75*
G02*
X4729327Y-5090327I20000J0D01*
G01*
X4729327Y-5323673D02*
G75*
G02*
X4689327Y-5323673I-20000J0D01*
G01*
X4689327Y-5323673D02*
G75*
G02*
X4729327Y-5323673I20000J0D01*
G01*
X4846000Y-4153000D02*
G75*
G02*
X4806000Y-4153000I-20000J0D01*
G01*
X4806000Y-4153000D02*
G75*
G02*
X4846000Y-4153000I20000J0D01*
G01*
X4846000Y-4483000D02*
G75*
G02*
X4806000Y-4483000I-20000J0D01*
G01*
X4806000Y-4483000D02*
G75*
G02*
X4846000Y-4483000I20000J0D01*
G01*
X4846000Y-5042000D02*
G75*
G02*
X4806000Y-5042000I-20000J0D01*
G01*
X4806000Y-5042000D02*
G75*
G02*
X4846000Y-5042000I20000J0D01*
G01*
X4846000Y-5372000D02*
G75*
G02*
X4806000Y-5372000I-20000J0D01*
G01*
X4806000Y-5372000D02*
G75*
G02*
X4846000Y-5372000I20000J0D01*
G01*
X4962673Y-4201327D02*
G75*
G02*
X4922673Y-4201327I-20000J0D01*
G01*
X4922673Y-4201327D02*
G75*
G02*
X4962673Y-4201327I20000J0D01*
G01*
X4962673Y-4434673D02*
G75*
G02*
X4922673Y-4434673I-20000J0D01*
G01*
X4922673Y-4434673D02*
G75*
G02*
X4962673Y-4434673I20000J0D01*
G01*
X4962673Y-5090327D02*
G75*
G02*
X4922673Y-5090327I-20000J0D01*
G01*
X4922673Y-5090327D02*
G75*
G02*
X4962673Y-5090327I20000J0D01*
G01*
X4962673Y-5323673D02*
G75*
G02*
X4922673Y-5323673I-20000J0D01*
G01*
X4922673Y-5323673D02*
G75*
G02*
X4962673Y-5323673I20000J0D01*
G01*
X5011000Y-4318000D02*
G75*
G02*
X4971000Y-4318000I-20000J0D01*
G01*
X4971000Y-4318000D02*
G75*
G02*
X5011000Y-4318000I20000J0D01*
G01*
X5011000Y-5207000D02*
G75*
G02*
X4971000Y-5207000I-20000J0D01*
G01*
X4971000Y-5207000D02*
G75*
G02*
X5011000Y-5207000I20000J0D01*
G01*
X14205000Y-8382000D02*
G75*
G02*
X14165000Y-8382000I-20000J0D01*
G01*
X14165000Y-8382000D02*
G75*
G02*
X14205000Y-8382000I20000J0D01*
G01*
X14215327Y-7482673D02*
G75*
G02*
X14175327Y-7482673I-20000J0D01*
G01*
X14175327Y-7482673D02*
G75*
G02*
X14215327Y-7482673I20000J0D01*
G01*
X14215327Y-9271000D02*
G75*
G02*
X14175327Y-9271000I-20000J0D01*
G01*
X14175327Y-9271000D02*
G75*
G02*
X14215327Y-9271000I20000J0D01*
G01*
X14253327Y-8265327D02*
G75*
G02*
X14213327Y-8265327I-20000J0D01*
G01*
X14213327Y-8265327D02*
G75*
G02*
X14253327Y-8265327I20000J0D01*
G01*
X14253327Y-8498673D02*
G75*
G02*
X14213327Y-8498673I-20000J0D01*
G01*
X14213327Y-8498673D02*
G75*
G02*
X14253327Y-8498673I20000J0D01*
G01*
X14263655Y-7366000D02*
G75*
G02*
X14223655Y-7366000I-20000J0D01*
G01*
X14223655Y-7366000D02*
G75*
G02*
X14263655Y-7366000I20000J0D01*
G01*
X14263655Y-7599345D02*
G75*
G02*
X14223655Y-7599345I-20000J0D01*
G01*
X14223655Y-7599345D02*
G75*
G02*
X14263655Y-7599345I20000J0D01*
G01*
X14263655Y-9154327D02*
G75*
G02*
X14223655Y-9154327I-20000J0D01*
G01*
X14223655Y-9154327D02*
G75*
G02*
X14263655Y-9154327I20000J0D01*
G01*
X14263655Y-9387673D02*
G75*
G02*
X14223655Y-9387673I-20000J0D01*
G01*
X14223655Y-9387673D02*
G75*
G02*
X14263655Y-9387673I20000J0D01*
G01*
X14370000Y-8217000D02*
G75*
G02*
X14330000Y-8217000I-20000J0D01*
G01*
X14330000Y-8217000D02*
G75*
G02*
X14370000Y-8217000I20000J0D01*
G01*
X14370000Y-8547000D02*
G75*
G02*
X14330000Y-8547000I-20000J0D01*
G01*
X14330000Y-8547000D02*
G75*
G02*
X14370000Y-8547000I20000J0D01*
G01*
X14380327Y-7317673D02*
G75*
G02*
X14340327Y-7317673I-20000J0D01*
G01*
X14340327Y-7317673D02*
G75*
G02*
X14380327Y-7317673I20000J0D01*
G01*
X14380327Y-7647673D02*
G75*
G02*
X14340327Y-7647673I-20000J0D01*
G01*
X14340327Y-7647673D02*
G75*
G02*
X14380327Y-7647673I20000J0D01*
G01*
X14380327Y-9106000D02*
G75*
G02*
X14340327Y-9106000I-20000J0D01*
G01*
X14340327Y-9106000D02*
G75*
G02*
X14380327Y-9106000I20000J0D01*
G01*
X14380327Y-9436000D02*
G75*
G02*
X14340327Y-9436000I-20000J0D01*
G01*
X14340327Y-9436000D02*
G75*
G02*
X14380327Y-9436000I20000J0D01*
G01*
X14486673Y-8265327D02*
G75*
G02*
X14446673Y-8265327I-20000J0D01*
G01*
X14446673Y-8265327D02*
G75*
G02*
X14486673Y-8265327I20000J0D01*
G01*
X14486673Y-8498673D02*
G75*
G02*
X14446673Y-8498673I-20000J0D01*
G01*
X14446673Y-8498673D02*
G75*
G02*
X14486673Y-8498673I20000J0D01*
G01*
X14497000Y-7366000D02*
G75*
G02*
X14457000Y-7366000I-20000J0D01*
G01*
X14457000Y-7366000D02*
G75*
G02*
X14497000Y-7366000I20000J0D01*
G01*
X14497000Y-7599345D02*
G75*
G02*
X14457000Y-7599345I-20000J0D01*
G01*
X14457000Y-7599345D02*
G75*
G02*
X14497000Y-7599345I20000J0D01*
G01*
X14497000Y-9154327D02*
G75*
G02*
X14457000Y-9154327I-20000J0D01*
G01*
X14457000Y-9154327D02*
G75*
G02*
X14497000Y-9154327I20000J0D01*
G01*
X14497000Y-9387673D02*
G75*
G02*
X14457000Y-9387673I-20000J0D01*
G01*
X14457000Y-9387673D02*
G75*
G02*
X14497000Y-9387673I20000J0D01*
G01*
X14535000Y-8382000D02*
G75*
G02*
X14495000Y-8382000I-20000J0D01*
G01*
X14495000Y-8382000D02*
G75*
G02*
X14535000Y-8382000I20000J0D01*
G01*
X14545327Y-7482673D02*
G75*
G02*
X14505327Y-7482673I-20000J0D01*
G01*
X14505327Y-7482673D02*
G75*
G02*
X14545327Y-7482673I20000J0D01*
G01*
X14545327Y-9271000D02*
G75*
G02*
X14505327Y-9271000I-20000J0D01*
G01*
X14505327Y-9271000D02*
G75*
G02*
X14545327Y-9271000I20000J0D01*
G01*
X4586000Y-3023000D02*
X4586000Y-3073000D01*
X4561000Y-3048000D02*
X4611000Y-3048000D01*
X4586000Y-14453000D02*
X4586000Y-14503000D01*
X4561000Y-14478000D02*
X4611000Y-14478000D01*
X4656294Y-2853294D02*
X4656294Y-2903294D01*
X4631294Y-2878294D02*
X4681294Y-2878294D01*
X4656294Y-3192706D02*
X4656294Y-3242706D01*
X4631294Y-3217706D02*
X4681294Y-3217706D01*
X4656294Y-14283294D02*
X4656294Y-14333294D01*
X4631294Y-14308294D02*
X4681294Y-14308294D01*
X4656294Y-14622706D02*
X4656294Y-14672706D01*
X4631294Y-14647706D02*
X4681294Y-14647706D01*
X4826000Y-2783000D02*
X4826000Y-2833000D01*
X4801000Y-2808000D02*
X4851000Y-2808000D01*
X4826000Y-3263000D02*
X4826000Y-3313000D01*
X4801000Y-3288000D02*
X4851000Y-3288000D01*
X4826000Y-14213000D02*
X4826000Y-14263000D01*
X4801000Y-14238000D02*
X4851000Y-14238000D01*
X4826000Y-14693000D02*
X4826000Y-14743000D01*
X4801000Y-14718000D02*
X4851000Y-14718000D01*
X4995706Y-2853294D02*
X4995706Y-2903294D01*
X4970706Y-2878294D02*
X5020706Y-2878294D01*
X4995706Y-3192706D02*
X4995706Y-3242706D01*
X4970706Y-3217706D02*
X5020706Y-3217706D01*
X4995706Y-14283294D02*
X4995706Y-14333294D01*
X4970706Y-14308294D02*
X5020706Y-14308294D01*
X4995706Y-14622706D02*
X4995706Y-14672706D01*
X4970706Y-14647706D02*
X5020706Y-14647706D01*
X5066000Y-3023000D02*
X5066000Y-3073000D01*
X5041000Y-3048000D02*
X5091000Y-3048000D01*
X5066000Y-14453000D02*
X5066000Y-14503000D01*
X5041000Y-14478000D02*
X5091000Y-14478000D01*
X14492000Y-2966294D02*
X14492000Y-3016294D01*
X14467000Y-2991294D02*
X14517000Y-2991294D01*
X14506000Y-14495706D02*
X14506000Y-14545706D01*
X14481000Y-14520706D02*
X14531000Y-14520706D01*
X14562294Y-2796589D02*
X14562294Y-2846589D01*
X14537294Y-2821589D02*
X14587294Y-2821589D01*
X14562294Y-3136000D02*
X14562294Y-3186000D01*
X14537294Y-3161000D02*
X14587294Y-3161000D01*
X14576294Y-14326000D02*
X14576294Y-14376000D01*
X14551294Y-14351000D02*
X14601294Y-14351000D01*
X14576294Y-14665411D02*
X14576294Y-14715411D01*
X14551294Y-14690411D02*
X14601294Y-14690411D01*
X14732000Y-2726294D02*
X14732000Y-2776294D01*
X14707000Y-2751294D02*
X14757000Y-2751294D01*
X14732000Y-3206294D02*
X14732000Y-3256294D01*
X14707000Y-3231294D02*
X14757000Y-3231294D01*
X14746000Y-14255706D02*
X14746000Y-14305706D01*
X14721000Y-14280706D02*
X14771000Y-14280706D01*
X14746000Y-14735706D02*
X14746000Y-14785706D01*
X14721000Y-14760706D02*
X14771000Y-14760706D01*
X14901706Y-2796589D02*
X14901706Y-2846589D01*
X14876706Y-2821589D02*
X14926706Y-2821589D01*
X14901706Y-3136000D02*
X14901706Y-3186000D01*
X14876706Y-3161000D02*
X14926706Y-3161000D01*
X14915706Y-14326000D02*
X14915706Y-14376000D01*
X14890706Y-14351000D02*
X14940706Y-14351000D01*
X14915706Y-14665411D02*
X14915706Y-14715411D01*
X14890706Y-14690411D02*
X14940706Y-14690411D01*
X14972000Y-2966294D02*
X14972000Y-3016294D01*
X14947000Y-2991294D02*
X14997000Y-2991294D01*
X14986000Y-14495706D02*
X14986000Y-14545706D01*
X14961000Y-14520706D02*
X15011000Y-14520706D01*
X5358749Y-6882749D02*
X5358749Y-6833251D01*
X5309251Y-6833251D01*
X5309251Y-6882749D01*
X5358749Y-6882749D01*
X5358749Y-7644749D02*
X5358749Y-7595251D01*
X5309251Y-7595251D01*
X5309251Y-7644749D01*
X5358749Y-7644749D01*
X5739749Y-9168749D02*
X5739749Y-9119251D01*
X5690251Y-9119251D01*
X5690251Y-9168749D01*
X5739749Y-9168749D01*
X5739749Y-10438749D02*
X5739749Y-10389251D01*
X5690251Y-10389251D01*
X5690251Y-10438749D01*
X5739749Y-10438749D01*
X5739749Y-10819749D02*
X5739749Y-10770251D01*
X5690251Y-10770251D01*
X5690251Y-10819749D01*
X5739749Y-10819749D01*
X5739749Y-11200749D02*
X5739749Y-11151251D01*
X5690251Y-11151251D01*
X5690251Y-11200749D01*
X5739749Y-11200749D01*
X5866749Y-7136749D02*
X5866749Y-7087251D01*
X5817251Y-7087251D01*
X5817251Y-7136749D01*
X5866749Y-7136749D01*
X5866749Y-7898749D02*
X5866749Y-7849251D01*
X5817251Y-7849251D01*
X5817251Y-7898749D01*
X5866749Y-7898749D01*
X5993749Y-9549749D02*
X5993749Y-9500251D01*
X5944251Y-9500251D01*
X5944251Y-9549749D01*
X5993749Y-9549749D01*
X6247749Y-9930749D02*
X6247749Y-9881251D01*
X6198251Y-9881251D01*
X6198251Y-9930749D01*
X6247749Y-9930749D01*
X6374749Y-7390749D02*
X6374749Y-7341251D01*
X6325251Y-7341251D01*
X6325251Y-7390749D01*
X6374749Y-7390749D01*
X6374749Y-8152749D02*
X6374749Y-8103251D01*
X6325251Y-8103251D01*
X6325251Y-8152749D01*
X6374749Y-8152749D01*
X6501749Y-10438749D02*
X6501749Y-10389251D01*
X6452251Y-10389251D01*
X6452251Y-10438749D01*
X6501749Y-10438749D01*
X6501749Y-10819749D02*
X6501749Y-10770251D01*
X6452251Y-10770251D01*
X6452251Y-10819749D01*
X6501749Y-10819749D01*
X6501749Y-11200749D02*
X6501749Y-11151251D01*
X6452251Y-11151251D01*
X6452251Y-11200749D01*
X6501749Y-11200749D01*
X7263249Y-12724749D02*
X7263249Y-12675251D01*
X7213751Y-12675251D01*
X7213751Y-12724749D01*
X7263249Y-12724749D01*
X7263249Y-13486749D02*
X7263249Y-13437251D01*
X7213751Y-13437251D01*
X7213751Y-13486749D01*
X7263249Y-13486749D01*
X7263249Y-13867749D02*
X7263249Y-13818251D01*
X7213751Y-13818251D01*
X7213751Y-13867749D01*
X7263249Y-13867749D01*
X7263249Y-14629749D02*
X7263249Y-14580251D01*
X7213751Y-14580251D01*
X7213751Y-14629749D01*
X7263249Y-14629749D01*
X7644249Y-12724749D02*
X7644249Y-12675251D01*
X7594751Y-12675251D01*
X7594751Y-12724749D01*
X7644249Y-12724749D01*
X7644249Y-13486749D02*
X7644249Y-13437251D01*
X7594751Y-13437251D01*
X7594751Y-13486749D01*
X7644249Y-13486749D01*
X7644249Y-13867749D02*
X7644249Y-13818251D01*
X7594751Y-13818251D01*
X7594751Y-13867749D01*
X7644249Y-13867749D01*
X7644249Y-14629749D02*
X7644249Y-14580251D01*
X7594751Y-14580251D01*
X7594751Y-14629749D01*
X7644249Y-14629749D01*
X7644749Y-4469749D02*
X7644749Y-4420251D01*
X7595251Y-4420251D01*
X7595251Y-4469749D01*
X7644749Y-4469749D01*
X7644749Y-5485749D02*
X7644749Y-5436251D01*
X7595251Y-5436251D01*
X7595251Y-5485749D01*
X7644749Y-5485749D01*
X7644749Y-12343749D02*
X7644749Y-12294251D01*
X7595251Y-12294251D01*
X7595251Y-12343749D01*
X7644749Y-12343749D01*
X8025249Y-12724749D02*
X8025249Y-12675251D01*
X7975751Y-12675251D01*
X7975751Y-12724749D01*
X8025249Y-12724749D01*
X8025249Y-13486749D02*
X8025249Y-13437251D01*
X7975751Y-13437251D01*
X7975751Y-13486749D01*
X8025249Y-13486749D01*
X8025249Y-13867749D02*
X8025249Y-13818251D01*
X7975751Y-13818251D01*
X7975751Y-13867749D01*
X8025249Y-13867749D01*
X8025249Y-14629749D02*
X8025249Y-14580251D01*
X7975751Y-14580251D01*
X7975751Y-14629749D01*
X8025249Y-14629749D01*
X8533749Y-13105749D02*
X8533749Y-13056251D01*
X8484251Y-13056251D01*
X8484251Y-13105749D01*
X8533749Y-13105749D01*
X8534249Y-13487749D02*
X8534249Y-13438251D01*
X8484751Y-13438251D01*
X8484751Y-13487749D01*
X8534249Y-13487749D01*
X8534249Y-13868749D02*
X8534249Y-13819251D01*
X8484751Y-13819251D01*
X8484751Y-13868749D01*
X8534249Y-13868749D01*
X8534249Y-14249749D02*
X8534249Y-14200251D01*
X8484751Y-14200251D01*
X8484751Y-14249749D01*
X8534249Y-14249749D01*
X8914749Y-13105749D02*
X8914749Y-13056251D01*
X8865251Y-13056251D01*
X8865251Y-13105749D01*
X8914749Y-13105749D01*
X9295749Y-13105749D02*
X9295749Y-13056251D01*
X9246251Y-13056251D01*
X9246251Y-13105749D01*
X9295749Y-13105749D01*
X9296249Y-13487749D02*
X9296249Y-13438251D01*
X9246751Y-13438251D01*
X9246751Y-13487749D01*
X9296249Y-13487749D01*
X9296249Y-13868749D02*
X9296249Y-13819251D01*
X9246751Y-13819251D01*
X9246751Y-13868749D01*
X9296249Y-13868749D01*
X9296249Y-14249749D02*
X9296249Y-14200251D01*
X9246751Y-14200251D01*
X9246751Y-14249749D01*
X9296249Y-14249749D01*
X10184749Y-5612749D02*
X10184749Y-5563251D01*
X10135251Y-5563251D01*
X10135251Y-5612749D01*
X10184749Y-5612749D01*
X10184749Y-8914749D02*
X10184749Y-8865251D01*
X10135251Y-8865251D01*
X10135251Y-8914749D01*
X10184749Y-8914749D01*
X10184749Y-12216749D02*
X10184749Y-12167251D01*
X10135251Y-12167251D01*
X10135251Y-12216749D01*
X10184749Y-12216749D01*
X10565749Y-4088749D02*
X10565749Y-4039251D01*
X10516251Y-4039251D01*
X10516251Y-4088749D01*
X10565749Y-4088749D01*
X10565749Y-4596749D02*
X10565749Y-4547251D01*
X10516251Y-4547251D01*
X10516251Y-4596749D01*
X10565749Y-4596749D01*
X10565749Y-5104749D02*
X10565749Y-5055251D01*
X10516251Y-5055251D01*
X10516251Y-5104749D01*
X10565749Y-5104749D01*
X10565749Y-5866749D02*
X10565749Y-5817251D01*
X10516251Y-5817251D01*
X10516251Y-5866749D01*
X10565749Y-5866749D01*
X10565749Y-7390749D02*
X10565749Y-7341251D01*
X10516251Y-7341251D01*
X10516251Y-7390749D01*
X10565749Y-7390749D01*
X10565749Y-7898749D02*
X10565749Y-7849251D01*
X10516251Y-7849251D01*
X10516251Y-7898749D01*
X10565749Y-7898749D01*
X10565749Y-8406749D02*
X10565749Y-8357251D01*
X10516251Y-8357251D01*
X10516251Y-8406749D01*
X10565749Y-8406749D01*
X10565749Y-9168749D02*
X10565749Y-9119251D01*
X10516251Y-9119251D01*
X10516251Y-9168749D01*
X10565749Y-9168749D01*
X10565749Y-10819749D02*
X10565749Y-10770251D01*
X10516251Y-10770251D01*
X10516251Y-10819749D01*
X10565749Y-10819749D01*
X10565749Y-11200749D02*
X10565749Y-11151251D01*
X10516251Y-11151251D01*
X10516251Y-11200749D01*
X10565749Y-11200749D01*
X10565749Y-11708749D02*
X10565749Y-11659251D01*
X10516251Y-11659251D01*
X10516251Y-11708749D01*
X10565749Y-11708749D01*
X10565749Y-12470749D02*
X10565749Y-12421251D01*
X10516251Y-12421251D01*
X10516251Y-12470749D01*
X10565749Y-12470749D01*
X11327749Y-4596749D02*
X11327749Y-4547251D01*
X11278251Y-4547251D01*
X11278251Y-4596749D01*
X11327749Y-4596749D01*
X11327749Y-7898749D02*
X11327749Y-7849251D01*
X11278251Y-7849251D01*
X11278251Y-7898749D01*
X11327749Y-7898749D01*
X11327749Y-11200749D02*
X11327749Y-11151251D01*
X11278251Y-11151251D01*
X11278251Y-11200749D01*
X11327749Y-11200749D01*
X5715000Y-11724000D02*
X5755000Y-11684000D01*
X5715000Y-11644000D01*
X5675000Y-11684000D01*
X5715000Y-11724000D01*
X5715000Y-11978000D02*
X5755000Y-11938000D01*
X5715000Y-11898000D01*
X5675000Y-11938000D01*
X5715000Y-11978000D01*
X5715000Y-12232000D02*
X5755000Y-12192000D01*
X5715000Y-12152000D01*
X5675000Y-12192000D01*
X5715000Y-12232000D01*
X5715000Y-12486000D02*
X5755000Y-12446000D01*
X5715000Y-12406000D01*
X5675000Y-12446000D01*
X5715000Y-12486000D01*
X5715000Y-12740000D02*
X5755000Y-12700000D01*
X5715000Y-12660000D01*
X5675000Y-12700000D01*
X5715000Y-12740000D01*
X5715000Y-12994000D02*
X5755000Y-12954000D01*
X5715000Y-12914000D01*
X5675000Y-12954000D01*
X5715000Y-12994000D01*
X5715000Y-13248000D02*
X5755000Y-13208000D01*
X5715000Y-13168000D01*
X5675000Y-13208000D01*
X5715000Y-13248000D01*
X5753000Y-4752735D02*
X5793000Y-4712735D01*
X5753000Y-4672735D01*
X5713000Y-4712735D01*
X5753000Y-4752735D01*
X5753000Y-5252735D02*
X5793000Y-5212735D01*
X5753000Y-5172735D01*
X5713000Y-5212735D01*
X5753000Y-5252735D01*
X6477000Y-11724000D02*
X6517000Y-11684000D01*
X6477000Y-11644000D01*
X6437000Y-11684000D01*
X6477000Y-11724000D01*
X6477000Y-11978000D02*
X6517000Y-11938000D01*
X6477000Y-11898000D01*
X6437000Y-11938000D01*
X6477000Y-11978000D01*
X6477000Y-12232000D02*
X6517000Y-12192000D01*
X6477000Y-12152000D01*
X6437000Y-12192000D01*
X6477000Y-12232000D01*
X6477000Y-12486000D02*
X6517000Y-12446000D01*
X6477000Y-12406000D01*
X6437000Y-12446000D01*
X6477000Y-12486000D01*
X6477000Y-12740000D02*
X6517000Y-12700000D01*
X6477000Y-12660000D01*
X6437000Y-12700000D01*
X6477000Y-12740000D01*
X6477000Y-12994000D02*
X6517000Y-12954000D01*
X6477000Y-12914000D01*
X6437000Y-12954000D01*
X6477000Y-12994000D01*
X6477000Y-13248000D02*
X6517000Y-13208000D01*
X6477000Y-13168000D01*
X6437000Y-13208000D01*
X6477000Y-13248000D01*
X6858000Y-4747000D02*
X6898000Y-4707000D01*
X6858000Y-4667000D01*
X6818000Y-4707000D01*
X6858000Y-4747000D01*
X6858000Y-5247000D02*
X6898000Y-5207000D01*
X6858000Y-5167000D01*
X6818000Y-5207000D01*
X6858000Y-5247000D01*
X8763000Y-4920000D02*
X8803000Y-4880000D01*
X8763000Y-4840000D01*
X8723000Y-4880000D01*
X8763000Y-4920000D01*
X8763000Y-5120000D02*
X8803000Y-5080000D01*
X8763000Y-5040000D01*
X8723000Y-5080000D01*
X8763000Y-5120000D01*
X8763000Y-8222000D02*
X8803000Y-8182000D01*
X8763000Y-8142000D01*
X8723000Y-8182000D01*
X8763000Y-8222000D01*
X8763000Y-8422000D02*
X8803000Y-8382000D01*
X8763000Y-8342000D01*
X8723000Y-8382000D01*
X8763000Y-8422000D01*
X8763000Y-11524000D02*
X8803000Y-11484000D01*
X8763000Y-11444000D01*
X8723000Y-11484000D01*
X8763000Y-11524000D01*
X8763000Y-11724000D02*
X8803000Y-11684000D01*
X8763000Y-11644000D01*
X8723000Y-11684000D01*
X8763000Y-11724000D01*
X9399000Y-4359000D02*
X9439000Y-4319000D01*
X9399000Y-4279000D01*
X9359000Y-4319000D01*
X9399000Y-4359000D01*
X9399000Y-4613000D02*
X9439000Y-4573000D01*
X9399000Y-4533000D01*
X9359000Y-4573000D01*
X9399000Y-4613000D01*
X9399000Y-4867000D02*
X9439000Y-4827000D01*
X9399000Y-4787000D01*
X9359000Y-4827000D01*
X9399000Y-4867000D01*
X9399000Y-5121000D02*
X9439000Y-5081000D01*
X9399000Y-5041000D01*
X9359000Y-5081000D01*
X9399000Y-5121000D01*
X9399000Y-7661000D02*
X9439000Y-7621000D01*
X9399000Y-7581000D01*
X9359000Y-7621000D01*
X9399000Y-7661000D01*
X9399000Y-7915000D02*
X9439000Y-7875000D01*
X9399000Y-7835000D01*
X9359000Y-7875000D01*
X9399000Y-7915000D01*
X9399000Y-8169000D02*
X9439000Y-8129000D01*
X9399000Y-8089000D01*
X9359000Y-8129000D01*
X9399000Y-8169000D01*
X9399000Y-8423000D02*
X9439000Y-8383000D01*
X9399000Y-8343000D01*
X9359000Y-8383000D01*
X9399000Y-8423000D01*
X9399000Y-10963000D02*
X9439000Y-10923000D01*
X9399000Y-10883000D01*
X9359000Y-10923000D01*
X9399000Y-10963000D01*
X9399000Y-11217000D02*
X9439000Y-11177000D01*
X9399000Y-11137000D01*
X9359000Y-11177000D01*
X9399000Y-11217000D01*
X9399000Y-11471000D02*
X9439000Y-11431000D01*
X9399000Y-11391000D01*
X9359000Y-11431000D01*
X9399000Y-11471000D01*
X9399000Y-11725000D02*
X9439000Y-11685000D01*
X9399000Y-11645000D01*
X9359000Y-11685000D01*
X9399000Y-11725000D01*
X9652000Y-3596000D02*
X9692000Y-3556000D01*
X9652000Y-3516000D01*
X9612000Y-3556000D01*
X9652000Y-3596000D01*
X9652000Y-6898000D02*
X9692000Y-6858000D01*
X9652000Y-6818000D01*
X9612000Y-6858000D01*
X9652000Y-6898000D01*
X9652000Y-10200000D02*
X9692000Y-10160000D01*
X9652000Y-10120000D01*
X9612000Y-10160000D01*
X9652000Y-10200000D01*
X9852000Y-3596000D02*
X9892000Y-3556000D01*
X9852000Y-3516000D01*
X9812000Y-3556000D01*
X9852000Y-3596000D01*
X9852000Y-6898000D02*
X9892000Y-6858000D01*
X9852000Y-6818000D01*
X9812000Y-6858000D01*
X9852000Y-6898000D01*
X9852000Y-10200000D02*
X9892000Y-10160000D01*
X9852000Y-10120000D01*
X9812000Y-10160000D01*
X9852000Y-10200000D01*
X10161000Y-4359000D02*
X10201000Y-4319000D01*
X10161000Y-4279000D01*
X10121000Y-4319000D01*
X10161000Y-4359000D01*
X10161000Y-4613000D02*
X10201000Y-4573000D01*
X10161000Y-4533000D01*
X10121000Y-4573000D01*
X10161000Y-4613000D01*
X10161000Y-4867000D02*
X10201000Y-4827000D01*
X10161000Y-4787000D01*
X10121000Y-4827000D01*
X10161000Y-4867000D01*
X10161000Y-5121000D02*
X10201000Y-5081000D01*
X10161000Y-5041000D01*
X10121000Y-5081000D01*
X10161000Y-5121000D01*
X10161000Y-7661000D02*
X10201000Y-7621000D01*
X10161000Y-7581000D01*
X10121000Y-7621000D01*
X10161000Y-7661000D01*
X10161000Y-7915000D02*
X10201000Y-7875000D01*
X10161000Y-7835000D01*
X10121000Y-7875000D01*
X10161000Y-7915000D01*
X10161000Y-8169000D02*
X10201000Y-8129000D01*
X10161000Y-8089000D01*
X10121000Y-8129000D01*
X10161000Y-8169000D01*
X10161000Y-8423000D02*
X10201000Y-8383000D01*
X10161000Y-8343000D01*
X10121000Y-8383000D01*
X10161000Y-8423000D01*
X10161000Y-10963000D02*
X10201000Y-10923000D01*
X10161000Y-10883000D01*
X10121000Y-10923000D01*
X10161000Y-10963000D01*
X10161000Y-11217000D02*
X10201000Y-11177000D01*
X10161000Y-11137000D01*
X10121000Y-11177000D01*
X10161000Y-11217000D01*
X10161000Y-11471000D02*
X10201000Y-11431000D01*
X10161000Y-11391000D01*
X10121000Y-11431000D01*
X10161000Y-11471000D01*
X10161000Y-11725000D02*
X10201000Y-11685000D01*
X10161000Y-11645000D01*
X10121000Y-11685000D01*
X10161000Y-11725000D01*
X4649000Y-6554000D02*
X4749000Y-6654000D01*
X4749000Y-6554000D02*
X4649000Y-6654000D01*
X4749000Y-6604000D02*
G75*
G02*
X4649000Y-6604000I-50000J0D01*
G01*
X4649000Y-6604000D02*
G75*
G02*
X4749000Y-6604000I50000J0D01*
G01*
X4649000Y-6808000D02*
X4749000Y-6908000D01*
X4749000Y-6808000D02*
X4649000Y-6908000D01*
X4749000Y-6858000D02*
G75*
G02*
X4649000Y-6858000I-50000J0D01*
G01*
X4649000Y-6858000D02*
G75*
G02*
X4749000Y-6858000I50000J0D01*
G01*
X4649000Y-7062000D02*
X4749000Y-7162000D01*
X4749000Y-7062000D02*
X4649000Y-7162000D01*
X4749000Y-7112000D02*
G75*
G02*
X4649000Y-7112000I-50000J0D01*
G01*
X4649000Y-7112000D02*
G75*
G02*
X4749000Y-7112000I50000J0D01*
G01*
X4649000Y-7316000D02*
X4749000Y-7416000D01*
X4749000Y-7316000D02*
X4649000Y-7416000D01*
X4749000Y-7366000D02*
G75*
G02*
X4649000Y-7366000I-50000J0D01*
G01*
X4649000Y-7366000D02*
G75*
G02*
X4749000Y-7366000I50000J0D01*
G01*
X4649000Y-7570000D02*
X4749000Y-7670000D01*
X4749000Y-7570000D02*
X4649000Y-7670000D01*
X4749000Y-7620000D02*
G75*
G02*
X4649000Y-7620000I-50000J0D01*
G01*
X4649000Y-7620000D02*
G75*
G02*
X4749000Y-7620000I50000J0D01*
G01*
X4649000Y-7824000D02*
X4749000Y-7924000D01*
X4749000Y-7824000D02*
X4649000Y-7924000D01*
X4749000Y-7874000D02*
G75*
G02*
X4649000Y-7874000I-50000J0D01*
G01*
X4649000Y-7874000D02*
G75*
G02*
X4749000Y-7874000I50000J0D01*
G01*
X4649000Y-8078000D02*
X4749000Y-8178000D01*
X4749000Y-8078000D02*
X4649000Y-8178000D01*
X4749000Y-8128000D02*
G75*
G02*
X4649000Y-8128000I-50000J0D01*
G01*
X4649000Y-8128000D02*
G75*
G02*
X4749000Y-8128000I50000J0D01*
G01*
X4649000Y-8332000D02*
X4749000Y-8432000D01*
X4749000Y-8332000D02*
X4649000Y-8432000D01*
X4749000Y-8382000D02*
G75*
G02*
X4649000Y-8382000I-50000J0D01*
G01*
X4649000Y-8382000D02*
G75*
G02*
X4749000Y-8382000I50000J0D01*
G01*
X4649000Y-8586000D02*
X4749000Y-8686000D01*
X4749000Y-8586000D02*
X4649000Y-8686000D01*
X4749000Y-8636000D02*
G75*
G02*
X4649000Y-8636000I-50000J0D01*
G01*
X4649000Y-8636000D02*
G75*
G02*
X4749000Y-8636000I50000J0D01*
G01*
X4649000Y-8840000D02*
X4749000Y-8940000D01*
X4749000Y-8840000D02*
X4649000Y-8940000D01*
X4749000Y-8890000D02*
G75*
G02*
X4649000Y-8890000I-50000J0D01*
G01*
X4649000Y-8890000D02*
G75*
G02*
X4749000Y-8890000I50000J0D01*
G01*
X4649000Y-9094000D02*
X4749000Y-9194000D01*
X4749000Y-9094000D02*
X4649000Y-9194000D01*
X4749000Y-9144000D02*
G75*
G02*
X4649000Y-9144000I-50000J0D01*
G01*
X4649000Y-9144000D02*
G75*
G02*
X4749000Y-9144000I50000J0D01*
G01*
X13539000Y-7189000D02*
X13639000Y-7289000D01*
X13639000Y-7189000D02*
X13539000Y-7289000D01*
X13639000Y-7239000D02*
G75*
G02*
X13539000Y-7239000I-50000J0D01*
G01*
X13539000Y-7239000D02*
G75*
G02*
X13639000Y-7239000I50000J0D01*
G01*
X13539000Y-7443000D02*
X13639000Y-7543000D01*
X13639000Y-7443000D02*
X13539000Y-7543000D01*
X13639000Y-7493000D02*
G75*
G02*
X13539000Y-7493000I-50000J0D01*
G01*
X13539000Y-7493000D02*
G75*
G02*
X13639000Y-7493000I50000J0D01*
G01*
X13539000Y-8078000D02*
X13639000Y-8178000D01*
X13639000Y-8078000D02*
X13539000Y-8178000D01*
X13639000Y-8128000D02*
G75*
G02*
X13539000Y-8128000I-50000J0D01*
G01*
X13539000Y-8128000D02*
G75*
G02*
X13639000Y-8128000I50000J0D01*
G01*
X13539000Y-8332000D02*
X13639000Y-8432000D01*
X13639000Y-8332000D02*
X13539000Y-8432000D01*
X13639000Y-8382000D02*
G75*
G02*
X13539000Y-8382000I-50000J0D01*
G01*
X13539000Y-8382000D02*
G75*
G02*
X13639000Y-8382000I50000J0D01*
G01*
X13539000Y-8967000D02*
X13639000Y-9067000D01*
X13639000Y-8967000D02*
X13539000Y-9067000D01*
X13639000Y-9017000D02*
G75*
G02*
X13539000Y-9017000I-50000J0D01*
G01*
X13539000Y-9017000D02*
G75*
G02*
X13639000Y-9017000I50000J0D01*
G01*
X13539000Y-9221000D02*
X13639000Y-9321000D01*
X13639000Y-9221000D02*
X13539000Y-9321000D01*
X13639000Y-9271000D02*
G75*
G02*
X13539000Y-9271000I-50000J0D01*
G01*
X13539000Y-9271000D02*
G75*
G02*
X13639000Y-9271000I50000J0D01*
G01*
D13*
X8962000Y-3247000D02*
X9072000Y-3357000D01*
X9072000Y-3247000D02*
X8962000Y-3357000D01*
X9017000Y-3247000D02*
X9017000Y-3357000D01*
X8962000Y-3302000D02*
X9072000Y-3302000D01*
X8962000Y-4263000D02*
X9072000Y-4373000D01*
X9072000Y-4263000D02*
X8962000Y-4373000D01*
X9017000Y-4263000D02*
X9017000Y-4373000D01*
X8962000Y-4318000D02*
X9072000Y-4318000D01*
X8962000Y-6549000D02*
X9072000Y-6659000D01*
X9072000Y-6549000D02*
X8962000Y-6659000D01*
X9017000Y-6549000D02*
X9017000Y-6659000D01*
X8962000Y-6604000D02*
X9072000Y-6604000D01*
X8962000Y-7565000D02*
X9072000Y-7675000D01*
X9072000Y-7565000D02*
X8962000Y-7675000D01*
X9017000Y-7565000D02*
X9017000Y-7675000D01*
X8962000Y-7620000D02*
X9072000Y-7620000D01*
X8962000Y-9851000D02*
X9072000Y-9961000D01*
X9072000Y-9851000D02*
X8962000Y-9961000D01*
X9017000Y-9851000D02*
X9017000Y-9961000D01*
X8962000Y-9906000D02*
X9072000Y-9906000D01*
X8962000Y-10867000D02*
X9072000Y-10977000D01*
X9072000Y-10867000D02*
X8962000Y-10977000D01*
X9017000Y-10867000D02*
X9017000Y-10977000D01*
X8962000Y-10922000D02*
X9072000Y-10922000D01*
X11502000Y-3628000D02*
X11612000Y-3738000D01*
X11612000Y-3628000D02*
X11502000Y-3738000D01*
X11557000Y-3628000D02*
X11557000Y-3738000D01*
X11502000Y-3683000D02*
X11612000Y-3683000D01*
X11502000Y-5279000D02*
X11612000Y-5389000D01*
X11612000Y-5279000D02*
X11502000Y-5389000D01*
X11557000Y-5279000D02*
X11557000Y-5389000D01*
X11502000Y-5334000D02*
X11612000Y-5334000D01*
X11502000Y-6930000D02*
X11612000Y-7040000D01*
X11612000Y-6930000D02*
X11502000Y-7040000D01*
X11557000Y-6930000D02*
X11557000Y-7040000D01*
X11502000Y-6985000D02*
X11612000Y-6985000D01*
X11502000Y-8581000D02*
X11612000Y-8691000D01*
X11612000Y-8581000D02*
X11502000Y-8691000D01*
X11557000Y-8581000D02*
X11557000Y-8691000D01*
X11502000Y-8636000D02*
X11612000Y-8636000D01*
X11502000Y-10232000D02*
X11612000Y-10342000D01*
X11612000Y-10232000D02*
X11502000Y-10342000D01*
X11557000Y-10232000D02*
X11557000Y-10342000D01*
X11502000Y-10287000D02*
X11612000Y-10287000D01*
X11502000Y-11883000D02*
X11612000Y-11993000D01*
X11612000Y-11883000D02*
X11502000Y-11993000D01*
X11557000Y-11883000D02*
X11557000Y-11993000D01*
X11502000Y-11938000D02*
X11612000Y-11938000D01*
X11756000Y-4517000D02*
X11866000Y-4627000D01*
X11866000Y-4517000D02*
X11756000Y-4627000D01*
X11811000Y-4517000D02*
X11811000Y-4627000D01*
X11756000Y-4572000D02*
X11866000Y-4572000D01*
X11756000Y-6168000D02*
X11866000Y-6278000D01*
X11866000Y-6168000D02*
X11756000Y-6278000D01*
X11811000Y-6168000D02*
X11811000Y-6278000D01*
X11756000Y-6223000D02*
X11866000Y-6223000D01*
X11756000Y-7819000D02*
X11866000Y-7929000D01*
X11866000Y-7819000D02*
X11756000Y-7929000D01*
X11811000Y-7819000D02*
X11811000Y-7929000D01*
X11756000Y-7874000D02*
X11866000Y-7874000D01*
X11756000Y-9470000D02*
X11866000Y-9580000D01*
X11866000Y-9470000D02*
X11756000Y-9580000D01*
X11811000Y-9470000D02*
X11811000Y-9580000D01*
X11756000Y-9525000D02*
X11866000Y-9525000D01*
X11756000Y-11122000D02*
X11866000Y-11232000D01*
X11866000Y-11122000D02*
X11756000Y-11232000D01*
X11811000Y-11122000D02*
X11811000Y-11232000D01*
X11756000Y-11177000D02*
X11866000Y-11177000D01*
X11756000Y-12772000D02*
X11866000Y-12882000D01*
X11866000Y-12772000D02*
X11756000Y-12882000D01*
X11811000Y-12772000D02*
X11811000Y-12882000D01*
X11756000Y-12827000D02*
X11866000Y-12827000D01*
X12010000Y-4517000D02*
X12120000Y-4627000D01*
X12120000Y-4517000D02*
X12010000Y-4627000D01*
X12065000Y-4517000D02*
X12065000Y-4627000D01*
X12010000Y-4572000D02*
X12120000Y-4572000D01*
X12010000Y-6168000D02*
X12120000Y-6278000D01*
X12120000Y-6168000D02*
X12010000Y-6278000D01*
X12065000Y-6168000D02*
X12065000Y-6278000D01*
X12010000Y-6223000D02*
X12120000Y-6223000D01*
X12010000Y-7819000D02*
X12120000Y-7929000D01*
X12120000Y-7819000D02*
X12010000Y-7929000D01*
X12065000Y-7819000D02*
X12065000Y-7929000D01*
X12010000Y-7874000D02*
X12120000Y-7874000D01*
X12010000Y-9470000D02*
X12120000Y-9580000D01*
X12120000Y-9470000D02*
X12010000Y-9580000D01*
X12065000Y-9470000D02*
X12065000Y-9580000D01*
X12010000Y-9525000D02*
X12120000Y-9525000D01*
X12010000Y-11122000D02*
X12120000Y-11232000D01*
X12120000Y-11122000D02*
X12010000Y-11232000D01*
X12065000Y-11122000D02*
X12065000Y-11232000D01*
X12010000Y-11177000D02*
X12120000Y-11177000D01*
X12010000Y-12772000D02*
X12120000Y-12882000D01*
X12120000Y-12772000D02*
X12010000Y-12882000D01*
X12065000Y-12772000D02*
X12065000Y-12882000D01*
X12010000Y-12827000D02*
X12120000Y-12827000D01*
X12264000Y-4517000D02*
X12374000Y-4627000D01*
X12374000Y-4517000D02*
X12264000Y-4627000D01*
X12319000Y-4517000D02*
X12319000Y-4627000D01*
X12264000Y-4572000D02*
X12374000Y-4572000D01*
X12264000Y-6168000D02*
X12374000Y-6278000D01*
X12374000Y-6168000D02*
X12264000Y-6278000D01*
X12319000Y-6168000D02*
X12319000Y-6278000D01*
X12264000Y-6223000D02*
X12374000Y-6223000D01*
X12264000Y-7819000D02*
X12374000Y-7929000D01*
X12374000Y-7819000D02*
X12264000Y-7929000D01*
X12319000Y-7819000D02*
X12319000Y-7929000D01*
X12264000Y-7874000D02*
X12374000Y-7874000D01*
X12264000Y-9470000D02*
X12374000Y-9580000D01*
X12374000Y-9470000D02*
X12264000Y-9580000D01*
X12319000Y-9470000D02*
X12319000Y-9580000D01*
X12264000Y-9525000D02*
X12374000Y-9525000D01*
X12264000Y-11122000D02*
X12374000Y-11232000D01*
X12374000Y-11122000D02*
X12264000Y-11232000D01*
X12319000Y-11122000D02*
X12319000Y-11232000D01*
X12264000Y-11177000D02*
X12374000Y-11177000D01*
X12264000Y-12772000D02*
X12374000Y-12882000D01*
X12374000Y-12772000D02*
X12264000Y-12882000D01*
X12319000Y-12772000D02*
X12319000Y-12882000D01*
X12264000Y-12827000D02*
X12374000Y-12827000D01*
X12518000Y-3628000D02*
X12628000Y-3738000D01*
X12628000Y-3628000D02*
X12518000Y-3738000D01*
X12573000Y-3628000D02*
X12573000Y-3738000D01*
X12518000Y-3683000D02*
X12628000Y-3683000D01*
X12518000Y-5279000D02*
X12628000Y-5389000D01*
X12628000Y-5279000D02*
X12518000Y-5389000D01*
X12573000Y-5279000D02*
X12573000Y-5389000D01*
X12518000Y-5334000D02*
X12628000Y-5334000D01*
X12518000Y-6930000D02*
X12628000Y-7040000D01*
X12628000Y-6930000D02*
X12518000Y-7040000D01*
X12573000Y-6930000D02*
X12573000Y-7040000D01*
X12518000Y-6985000D02*
X12628000Y-6985000D01*
X12518000Y-8581000D02*
X12628000Y-8691000D01*
X12628000Y-8581000D02*
X12518000Y-8691000D01*
X12573000Y-8581000D02*
X12573000Y-8691000D01*
X12518000Y-8636000D02*
X12628000Y-8636000D01*
X12518000Y-10232000D02*
X12628000Y-10342000D01*
X12628000Y-10232000D02*
X12518000Y-10342000D01*
X12573000Y-10232000D02*
X12573000Y-10342000D01*
X12518000Y-10287000D02*
X12628000Y-10287000D01*
X12518000Y-11883000D02*
X12628000Y-11993000D01*
X12628000Y-11883000D02*
X12518000Y-11993000D01*
X12573000Y-11883000D02*
X12573000Y-11993000D01*
X12518000Y-11938000D02*
X12628000Y-11938000D01*
D14*
X4716000Y-4208000D02*
X4936000Y-4428000D01*
X4936000Y-4208000D02*
X4716000Y-4428000D01*
X4903783Y-4395783D02*
X4903783Y-4240218D01*
X4748218Y-4240218D01*
X4748218Y-4395783D01*
X4903783Y-4395783D01*
X4716000Y-5097000D02*
X4936000Y-5317000D01*
X4936000Y-5097000D02*
X4716000Y-5317000D01*
X4903783Y-5284783D02*
X4903783Y-5129218D01*
X4748218Y-5129218D01*
X4748218Y-5284783D01*
X4903783Y-5284783D01*
X14240000Y-8272000D02*
X14460000Y-8492000D01*
X14460000Y-8272000D02*
X14240000Y-8492000D01*
X14427782Y-8459783D02*
X14427782Y-8304217D01*
X14272217Y-8304217D01*
X14272217Y-8459783D01*
X14427782Y-8459783D01*
X14250327Y-7372673D02*
X14470327Y-7592673D01*
X14470327Y-7372673D02*
X14250327Y-7592673D01*
X14438110Y-7560455D02*
X14438110Y-7404890D01*
X14282545Y-7404890D01*
X14282545Y-7560455D01*
X14438110Y-7560455D01*
X14250327Y-9161000D02*
X14470327Y-9381000D01*
X14470327Y-9161000D02*
X14250327Y-9381000D01*
X14438110Y-9348783D02*
X14438110Y-9193218D01*
X14282545Y-9193218D01*
X14282545Y-9348783D01*
X14438110Y-9348783D01*
D15*
X4666000Y-2888000D02*
X4986000Y-3208000D01*
X4986000Y-2888000D02*
X4666000Y-3208000D01*
X4826000Y-3208000D02*
X4986000Y-3048000D01*
X4826000Y-2888000D01*
X4666000Y-3048000D01*
X4826000Y-3208000D01*
X4666000Y-14318000D02*
X4986000Y-14638000D01*
X4986000Y-14318000D02*
X4666000Y-14638000D01*
X4826000Y-14638000D02*
X4986000Y-14478000D01*
X4826000Y-14318000D01*
X4666000Y-14478000D01*
X4826000Y-14638000D01*
X14572000Y-2831294D02*
X14892000Y-3151294D01*
X14892000Y-2831294D02*
X14572000Y-3151294D01*
X14732000Y-3151294D02*
X14892000Y-2991294D01*
X14732000Y-2831294D01*
X14572000Y-2991294D01*
X14732000Y-3151294D01*
X14586000Y-14360706D02*
X14906000Y-14680706D01*
X14906000Y-14360706D02*
X14586000Y-14680706D01*
X14746000Y-14680706D02*
X14906000Y-14520706D01*
X14746000Y-14360706D01*
X14586000Y-14520706D01*
X14746000Y-14680706D01*
D11*
X4576277Y-15300337D02*
X4576277Y-15100337D01*
X4576277Y-15100337D02*
X4623896Y-15100337D01*
X4623896Y-15100337D02*
X4652467Y-15109861D01*
X4652467Y-15109861D02*
X4671515Y-15128908D01*
X4671515Y-15128908D02*
X4681039Y-15147956D01*
X4681039Y-15147956D02*
X4690563Y-15186051D01*
X4690563Y-15186051D02*
X4690563Y-15214623D01*
X4690563Y-15214623D02*
X4681039Y-15252718D01*
X4681039Y-15252718D02*
X4671515Y-15271765D01*
X4671515Y-15271765D02*
X4652467Y-15290813D01*
X4652467Y-15290813D02*
X4623896Y-15300337D01*
X4623896Y-15300337D02*
X4576277Y-15300337D01*
X4776277Y-15300337D02*
X4776277Y-15167003D01*
X4776277Y-15205099D02*
X4785801Y-15186051D01*
X4785801Y-15186051D02*
X4795324Y-15176527D01*
X4795324Y-15176527D02*
X4814372Y-15167003D01*
X4814372Y-15167003D02*
X4833420Y-15167003D01*
X4900086Y-15300337D02*
X4900086Y-15167003D01*
X4900086Y-15100337D02*
X4890563Y-15109861D01*
X4890563Y-15109861D02*
X4900086Y-15119384D01*
X4900086Y-15119384D02*
X4909610Y-15109861D01*
X4909610Y-15109861D02*
X4900086Y-15100337D01*
X4900086Y-15100337D02*
X4900086Y-15119384D01*
X5023896Y-15300337D02*
X5004848Y-15290813D01*
X5004848Y-15290813D02*
X4995324Y-15271765D01*
X4995324Y-15271765D02*
X4995324Y-15100337D01*
X5128658Y-15300337D02*
X5109610Y-15290813D01*
X5109610Y-15290813D02*
X5100086Y-15271765D01*
X5100086Y-15271765D02*
X5100086Y-15100337D01*
X5357229Y-15300337D02*
X5357229Y-15100337D01*
X5357229Y-15100337D02*
X5423896Y-15243194D01*
X5423896Y-15243194D02*
X5490563Y-15100337D01*
X5490563Y-15100337D02*
X5490563Y-15300337D01*
X5671515Y-15300337D02*
X5671515Y-15195575D01*
X5671515Y-15195575D02*
X5661991Y-15176527D01*
X5661991Y-15176527D02*
X5642943Y-15167003D01*
X5642943Y-15167003D02*
X5604848Y-15167003D01*
X5604848Y-15167003D02*
X5585801Y-15176527D01*
X5671515Y-15290813D02*
X5652467Y-15300337D01*
X5652467Y-15300337D02*
X5604848Y-15300337D01*
X5604848Y-15300337D02*
X5585801Y-15290813D01*
X5585801Y-15290813D02*
X5576277Y-15271765D01*
X5576277Y-15271765D02*
X5576277Y-15252718D01*
X5576277Y-15252718D02*
X5585801Y-15233670D01*
X5585801Y-15233670D02*
X5604848Y-15224146D01*
X5604848Y-15224146D02*
X5652467Y-15224146D01*
X5652467Y-15224146D02*
X5671515Y-15214623D01*
X5766753Y-15167003D02*
X5766753Y-15367003D01*
X5766753Y-15176527D02*
X5785801Y-15167003D01*
X5785801Y-15167003D02*
X5823896Y-15167003D01*
X5823896Y-15167003D02*
X5842943Y-15176527D01*
X5842943Y-15176527D02*
X5852467Y-15186051D01*
X5852467Y-15186051D02*
X5861991Y-15205099D01*
X5861991Y-15205099D02*
X5861991Y-15262242D01*
X5861991Y-15262242D02*
X5852467Y-15281289D01*
X5852467Y-15281289D02*
X5842943Y-15290813D01*
X5842943Y-15290813D02*
X5823896Y-15300337D01*
X5823896Y-15300337D02*
X5785801Y-15300337D01*
X5785801Y-15300337D02*
X5766753Y-15290813D01*
X5947705Y-15281289D02*
X5957229Y-15290813D01*
X5957229Y-15290813D02*
X5947705Y-15300337D01*
X5947705Y-15300337D02*
X5938182Y-15290813D01*
X5938182Y-15290813D02*
X5947705Y-15281289D01*
X5947705Y-15281289D02*
X5947705Y-15300337D01*
X5947705Y-15176527D02*
X5957229Y-15186051D01*
X5957229Y-15186051D02*
X5947705Y-15195575D01*
X5947705Y-15195575D02*
X5938182Y-15186051D01*
X5938182Y-15186051D02*
X5947705Y-15176527D01*
X5947705Y-15176527D02*
X5947705Y-15195575D01*
D12*
X4285500Y-15613853D02*
X4315500Y-15643853D01*
X4315500Y-15613853D02*
X4285500Y-15643853D01*
D11*
X4614372Y-15520337D02*
X4633420Y-15520337D01*
X4633420Y-15520337D02*
X4652467Y-15529861D01*
X4652467Y-15529861D02*
X4661991Y-15539384D01*
X4661991Y-15539384D02*
X4671515Y-15558432D01*
X4671515Y-15558432D02*
X4681039Y-15596527D01*
X4681039Y-15596527D02*
X4681039Y-15644146D01*
X4681039Y-15644146D02*
X4671515Y-15682242D01*
X4671515Y-15682242D02*
X4661991Y-15701289D01*
X4661991Y-15701289D02*
X4652467Y-15710813D01*
X4652467Y-15710813D02*
X4633420Y-15720337D01*
X4633420Y-15720337D02*
X4614372Y-15720337D01*
X4614372Y-15720337D02*
X4595324Y-15710813D01*
X4595324Y-15710813D02*
X4585801Y-15701289D01*
X4585801Y-15701289D02*
X4576277Y-15682242D01*
X4576277Y-15682242D02*
X4566753Y-15644146D01*
X4566753Y-15644146D02*
X4566753Y-15596527D01*
X4566753Y-15596527D02*
X4576277Y-15558432D01*
X4576277Y-15558432D02*
X4585801Y-15539384D01*
X4585801Y-15539384D02*
X4595324Y-15529861D01*
X4595324Y-15529861D02*
X4614372Y-15520337D01*
X4766753Y-15701289D02*
X4776277Y-15710813D01*
X4776277Y-15710813D02*
X4766753Y-15720337D01*
X4766753Y-15720337D02*
X4757229Y-15710813D01*
X4757229Y-15710813D02*
X4766753Y-15701289D01*
X4766753Y-15701289D02*
X4766753Y-15720337D01*
X4842944Y-15520337D02*
X4966753Y-15520337D01*
X4966753Y-15520337D02*
X4900086Y-15596527D01*
X4900086Y-15596527D02*
X4928658Y-15596527D01*
X4928658Y-15596527D02*
X4947705Y-15606051D01*
X4947705Y-15606051D02*
X4957229Y-15615575D01*
X4957229Y-15615575D02*
X4966753Y-15634623D01*
X4966753Y-15634623D02*
X4966753Y-15682242D01*
X4966753Y-15682242D02*
X4957229Y-15701289D01*
X4957229Y-15701289D02*
X4947705Y-15710813D01*
X4947705Y-15710813D02*
X4928658Y-15720337D01*
X4928658Y-15720337D02*
X4871515Y-15720337D01*
X4871515Y-15720337D02*
X4852467Y-15710813D01*
X4852467Y-15710813D02*
X4842944Y-15701289D01*
X5090563Y-15520337D02*
X5109610Y-15520337D01*
X5109610Y-15520337D02*
X5128658Y-15529861D01*
X5128658Y-15529861D02*
X5138182Y-15539384D01*
X5138182Y-15539384D02*
X5147705Y-15558432D01*
X5147705Y-15558432D02*
X5157229Y-15596527D01*
X5157229Y-15596527D02*
X5157229Y-15644146D01*
X5157229Y-15644146D02*
X5147705Y-15682242D01*
X5147705Y-15682242D02*
X5138182Y-15701289D01*
X5138182Y-15701289D02*
X5128658Y-15710813D01*
X5128658Y-15710813D02*
X5109610Y-15720337D01*
X5109610Y-15720337D02*
X5090563Y-15720337D01*
X5090563Y-15720337D02*
X5071515Y-15710813D01*
X5071515Y-15710813D02*
X5061991Y-15701289D01*
X5061991Y-15701289D02*
X5052467Y-15682242D01*
X5052467Y-15682242D02*
X5042944Y-15644146D01*
X5042944Y-15644146D02*
X5042944Y-15596527D01*
X5042944Y-15596527D02*
X5052467Y-15558432D01*
X5052467Y-15558432D02*
X5061991Y-15539384D01*
X5061991Y-15539384D02*
X5071515Y-15529861D01*
X5071515Y-15529861D02*
X5090563Y-15520337D01*
X5281039Y-15520337D02*
X5300086Y-15520337D01*
X5300086Y-15520337D02*
X5319134Y-15529861D01*
X5319134Y-15529861D02*
X5328658Y-15539384D01*
X5328658Y-15539384D02*
X5338182Y-15558432D01*
X5338182Y-15558432D02*
X5347705Y-15596527D01*
X5347705Y-15596527D02*
X5347705Y-15644146D01*
X5347705Y-15644146D02*
X5338182Y-15682242D01*
X5338182Y-15682242D02*
X5328658Y-15701289D01*
X5328658Y-15701289D02*
X5319134Y-15710813D01*
X5319134Y-15710813D02*
X5300086Y-15720337D01*
X5300086Y-15720337D02*
X5281039Y-15720337D01*
X5281039Y-15720337D02*
X5261991Y-15710813D01*
X5261991Y-15710813D02*
X5252467Y-15701289D01*
X5252467Y-15701289D02*
X5242944Y-15682242D01*
X5242944Y-15682242D02*
X5233420Y-15644146D01*
X5233420Y-15644146D02*
X5233420Y-15596527D01*
X5233420Y-15596527D02*
X5242944Y-15558432D01*
X5242944Y-15558432D02*
X5252467Y-15539384D01*
X5252467Y-15539384D02*
X5261991Y-15529861D01*
X5261991Y-15529861D02*
X5281039Y-15520337D01*
X5433420Y-15720337D02*
X5433420Y-15587003D01*
X5433420Y-15606051D02*
X5442944Y-15596527D01*
X5442944Y-15596527D02*
X5461991Y-15587003D01*
X5461991Y-15587003D02*
X5490563Y-15587003D01*
X5490563Y-15587003D02*
X5509610Y-15596527D01*
X5509610Y-15596527D02*
X5519134Y-15615575D01*
X5519134Y-15615575D02*
X5519134Y-15720337D01*
X5519134Y-15615575D02*
X5528658Y-15596527D01*
X5528658Y-15596527D02*
X5547705Y-15587003D01*
X5547705Y-15587003D02*
X5576277Y-15587003D01*
X5576277Y-15587003D02*
X5595324Y-15596527D01*
X5595324Y-15596527D02*
X5604848Y-15615575D01*
X5604848Y-15615575D02*
X5604848Y-15720337D01*
X5700086Y-15720337D02*
X5700086Y-15587003D01*
X5700086Y-15606051D02*
X5709610Y-15596527D01*
X5709610Y-15596527D02*
X5728658Y-15587003D01*
X5728658Y-15587003D02*
X5757229Y-15587003D01*
X5757229Y-15587003D02*
X5776277Y-15596527D01*
X5776277Y-15596527D02*
X5785801Y-15615575D01*
X5785801Y-15615575D02*
X5785801Y-15720337D01*
X5785801Y-15615575D02*
X5795324Y-15596527D01*
X5795324Y-15596527D02*
X5814372Y-15587003D01*
X5814372Y-15587003D02*
X5842943Y-15587003D01*
X5842943Y-15587003D02*
X5861991Y-15596527D01*
X5861991Y-15596527D02*
X5871515Y-15615575D01*
X5871515Y-15615575D02*
X5871515Y-15720337D01*
X6261991Y-15510813D02*
X6090563Y-15767956D01*
X6519134Y-15520337D02*
X6538182Y-15520337D01*
X6538182Y-15520337D02*
X6557229Y-15529861D01*
X6557229Y-15529861D02*
X6566753Y-15539384D01*
X6566753Y-15539384D02*
X6576277Y-15558432D01*
X6576277Y-15558432D02*
X6585801Y-15596527D01*
X6585801Y-15596527D02*
X6585801Y-15644146D01*
X6585801Y-15644146D02*
X6576277Y-15682242D01*
X6576277Y-15682242D02*
X6566753Y-15701289D01*
X6566753Y-15701289D02*
X6557229Y-15710813D01*
X6557229Y-15710813D02*
X6538182Y-15720337D01*
X6538182Y-15720337D02*
X6519134Y-15720337D01*
X6519134Y-15720337D02*
X6500086Y-15710813D01*
X6500086Y-15710813D02*
X6490563Y-15701289D01*
X6490563Y-15701289D02*
X6481039Y-15682242D01*
X6481039Y-15682242D02*
X6471515Y-15644146D01*
X6471515Y-15644146D02*
X6471515Y-15596527D01*
X6471515Y-15596527D02*
X6481039Y-15558432D01*
X6481039Y-15558432D02*
X6490563Y-15539384D01*
X6490563Y-15539384D02*
X6500086Y-15529861D01*
X6500086Y-15529861D02*
X6519134Y-15520337D01*
X6671515Y-15701289D02*
X6681039Y-15710813D01*
X6681039Y-15710813D02*
X6671515Y-15720337D01*
X6671515Y-15720337D02*
X6661991Y-15710813D01*
X6661991Y-15710813D02*
X6671515Y-15701289D01*
X6671515Y-15701289D02*
X6671515Y-15720337D01*
X6804848Y-15520337D02*
X6823896Y-15520337D01*
X6823896Y-15520337D02*
X6842944Y-15529861D01*
X6842944Y-15529861D02*
X6852467Y-15539384D01*
X6852467Y-15539384D02*
X6861991Y-15558432D01*
X6861991Y-15558432D02*
X6871515Y-15596527D01*
X6871515Y-15596527D02*
X6871515Y-15644146D01*
X6871515Y-15644146D02*
X6861991Y-15682242D01*
X6861991Y-15682242D02*
X6852467Y-15701289D01*
X6852467Y-15701289D02*
X6842944Y-15710813D01*
X6842944Y-15710813D02*
X6823896Y-15720337D01*
X6823896Y-15720337D02*
X6804848Y-15720337D01*
X6804848Y-15720337D02*
X6785801Y-15710813D01*
X6785801Y-15710813D02*
X6776277Y-15701289D01*
X6776277Y-15701289D02*
X6766753Y-15682242D01*
X6766753Y-15682242D02*
X6757229Y-15644146D01*
X6757229Y-15644146D02*
X6757229Y-15596527D01*
X6757229Y-15596527D02*
X6766753Y-15558432D01*
X6766753Y-15558432D02*
X6776277Y-15539384D01*
X6776277Y-15539384D02*
X6785801Y-15529861D01*
X6785801Y-15529861D02*
X6804848Y-15520337D01*
X7061991Y-15720337D02*
X6947706Y-15720337D01*
X7004848Y-15720337D02*
X7004848Y-15520337D01*
X7004848Y-15520337D02*
X6985801Y-15548908D01*
X6985801Y-15548908D02*
X6966753Y-15567956D01*
X6966753Y-15567956D02*
X6947706Y-15577480D01*
X7252467Y-15720337D02*
X7138182Y-15720337D01*
X7195325Y-15720337D02*
X7195325Y-15520337D01*
X7195325Y-15520337D02*
X7176277Y-15548908D01*
X7176277Y-15548908D02*
X7157229Y-15567956D01*
X7157229Y-15567956D02*
X7138182Y-15577480D01*
X7366753Y-15606051D02*
X7347706Y-15596527D01*
X7347706Y-15596527D02*
X7338182Y-15587003D01*
X7338182Y-15587003D02*
X7328658Y-15567956D01*
X7328658Y-15567956D02*
X7328658Y-15558432D01*
X7328658Y-15558432D02*
X7338182Y-15539384D01*
X7338182Y-15539384D02*
X7347706Y-15529861D01*
X7347706Y-15529861D02*
X7366753Y-15520337D01*
X7366753Y-15520337D02*
X7404848Y-15520337D01*
X7404848Y-15520337D02*
X7423896Y-15529861D01*
X7423896Y-15529861D02*
X7433420Y-15539384D01*
X7433420Y-15539384D02*
X7442944Y-15558432D01*
X7442944Y-15558432D02*
X7442944Y-15567956D01*
X7442944Y-15567956D02*
X7433420Y-15587003D01*
X7433420Y-15587003D02*
X7423896Y-15596527D01*
X7423896Y-15596527D02*
X7404848Y-15606051D01*
X7404848Y-15606051D02*
X7366753Y-15606051D01*
X7366753Y-15606051D02*
X7347706Y-15615575D01*
X7347706Y-15615575D02*
X7338182Y-15625099D01*
X7338182Y-15625099D02*
X7328658Y-15644146D01*
X7328658Y-15644146D02*
X7328658Y-15682242D01*
X7328658Y-15682242D02*
X7338182Y-15701289D01*
X7338182Y-15701289D02*
X7347706Y-15710813D01*
X7347706Y-15710813D02*
X7366753Y-15720337D01*
X7366753Y-15720337D02*
X7404848Y-15720337D01*
X7404848Y-15720337D02*
X7423896Y-15710813D01*
X7423896Y-15710813D02*
X7433420Y-15701289D01*
X7433420Y-15701289D02*
X7442944Y-15682242D01*
X7442944Y-15682242D02*
X7442944Y-15644146D01*
X7442944Y-15644146D02*
X7433420Y-15625099D01*
X7433420Y-15625099D02*
X7423896Y-15615575D01*
X7423896Y-15615575D02*
X7404848Y-15606051D01*
X7519134Y-15520337D02*
X7519134Y-15558432D01*
X7595325Y-15520337D02*
X7595325Y-15558432D01*
X7890563Y-15796527D02*
X7881039Y-15787003D01*
X7881039Y-15787003D02*
X7861991Y-15758432D01*
X7861991Y-15758432D02*
X7852468Y-15739384D01*
X7852468Y-15739384D02*
X7842944Y-15710813D01*
X7842944Y-15710813D02*
X7833420Y-15663194D01*
X7833420Y-15663194D02*
X7833420Y-15625099D01*
X7833420Y-15625099D02*
X7842944Y-15577480D01*
X7842944Y-15577480D02*
X7852468Y-15548908D01*
X7852468Y-15548908D02*
X7861991Y-15529861D01*
X7861991Y-15529861D02*
X7881039Y-15501289D01*
X7881039Y-15501289D02*
X7890563Y-15491765D01*
X7957229Y-15539384D02*
X7966753Y-15529861D01*
X7966753Y-15529861D02*
X7985801Y-15520337D01*
X7985801Y-15520337D02*
X8033420Y-15520337D01*
X8033420Y-15520337D02*
X8052468Y-15529861D01*
X8052468Y-15529861D02*
X8061991Y-15539384D01*
X8061991Y-15539384D02*
X8071515Y-15558432D01*
X8071515Y-15558432D02*
X8071515Y-15577480D01*
X8071515Y-15577480D02*
X8061991Y-15606051D01*
X8061991Y-15606051D02*
X7947706Y-15720337D01*
X7947706Y-15720337D02*
X8071515Y-15720337D01*
X8309610Y-15720337D02*
X8309610Y-15520337D01*
X8395325Y-15720337D02*
X8395325Y-15615575D01*
X8395325Y-15615575D02*
X8385801Y-15596527D01*
X8385801Y-15596527D02*
X8366753Y-15587003D01*
X8366753Y-15587003D02*
X8338182Y-15587003D01*
X8338182Y-15587003D02*
X8319134Y-15596527D01*
X8319134Y-15596527D02*
X8309610Y-15606051D01*
X8519134Y-15720337D02*
X8500087Y-15710813D01*
X8500087Y-15710813D02*
X8490563Y-15701289D01*
X8490563Y-15701289D02*
X8481039Y-15682242D01*
X8481039Y-15682242D02*
X8481039Y-15625099D01*
X8481039Y-15625099D02*
X8490563Y-15606051D01*
X8490563Y-15606051D02*
X8500087Y-15596527D01*
X8500087Y-15596527D02*
X8519134Y-15587003D01*
X8519134Y-15587003D02*
X8547706Y-15587003D01*
X8547706Y-15587003D02*
X8566753Y-15596527D01*
X8566753Y-15596527D02*
X8576277Y-15606051D01*
X8576277Y-15606051D02*
X8585801Y-15625099D01*
X8585801Y-15625099D02*
X8585801Y-15682242D01*
X8585801Y-15682242D02*
X8576277Y-15701289D01*
X8576277Y-15701289D02*
X8566753Y-15710813D01*
X8566753Y-15710813D02*
X8547706Y-15720337D01*
X8547706Y-15720337D02*
X8519134Y-15720337D01*
X8700087Y-15720337D02*
X8681039Y-15710813D01*
X8681039Y-15710813D02*
X8671515Y-15691765D01*
X8671515Y-15691765D02*
X8671515Y-15520337D01*
X8852468Y-15710813D02*
X8833420Y-15720337D01*
X8833420Y-15720337D02*
X8795325Y-15720337D01*
X8795325Y-15720337D02*
X8776277Y-15710813D01*
X8776277Y-15710813D02*
X8766753Y-15691765D01*
X8766753Y-15691765D02*
X8766753Y-15615575D01*
X8766753Y-15615575D02*
X8776277Y-15596527D01*
X8776277Y-15596527D02*
X8795325Y-15587003D01*
X8795325Y-15587003D02*
X8833420Y-15587003D01*
X8833420Y-15587003D02*
X8852468Y-15596527D01*
X8852468Y-15596527D02*
X8861992Y-15615575D01*
X8861992Y-15615575D02*
X8861992Y-15634623D01*
X8861992Y-15634623D02*
X8766753Y-15653670D01*
X8938182Y-15710813D02*
X8957230Y-15720337D01*
X8957230Y-15720337D02*
X8995325Y-15720337D01*
X8995325Y-15720337D02*
X9014373Y-15710813D01*
X9014373Y-15710813D02*
X9023896Y-15691765D01*
X9023896Y-15691765D02*
X9023896Y-15682242D01*
X9023896Y-15682242D02*
X9014373Y-15663194D01*
X9014373Y-15663194D02*
X8995325Y-15653670D01*
X8995325Y-15653670D02*
X8966753Y-15653670D01*
X8966753Y-15653670D02*
X8947706Y-15644146D01*
X8947706Y-15644146D02*
X8938182Y-15625099D01*
X8938182Y-15625099D02*
X8938182Y-15615575D01*
X8938182Y-15615575D02*
X8947706Y-15596527D01*
X8947706Y-15596527D02*
X8966753Y-15587003D01*
X8966753Y-15587003D02*
X8995325Y-15587003D01*
X8995325Y-15587003D02*
X9014373Y-15596527D01*
X9090563Y-15796527D02*
X9100087Y-15787003D01*
X9100087Y-15787003D02*
X9119134Y-15758432D01*
X9119134Y-15758432D02*
X9128658Y-15739384D01*
X9128658Y-15739384D02*
X9138182Y-15710813D01*
X9138182Y-15710813D02*
X9147706Y-15663194D01*
X9147706Y-15663194D02*
X9147706Y-15625099D01*
X9147706Y-15625099D02*
X9138182Y-15577480D01*
X9138182Y-15577480D02*
X9128658Y-15548908D01*
X9128658Y-15548908D02*
X9119134Y-15529861D01*
X9119134Y-15529861D02*
X9100087Y-15501289D01*
X9100087Y-15501289D02*
X9090563Y-15491765D01*
D12*
X4315500Y-15892853D02*
G75*
G02*
X4275500Y-15892853I-20000J0D01*
G01*
X4275500Y-15892853D02*
G75*
G02*
X4315500Y-15892853I20000J0D01*
G01*
D11*
X4614372Y-15784337D02*
X4633420Y-15784337D01*
X4633420Y-15784337D02*
X4652467Y-15793861D01*
X4652467Y-15793861D02*
X4661991Y-15803384D01*
X4661991Y-15803384D02*
X4671515Y-15822432D01*
X4671515Y-15822432D02*
X4681039Y-15860527D01*
X4681039Y-15860527D02*
X4681039Y-15908146D01*
X4681039Y-15908146D02*
X4671515Y-15946242D01*
X4671515Y-15946242D02*
X4661991Y-15965289D01*
X4661991Y-15965289D02*
X4652467Y-15974813D01*
X4652467Y-15974813D02*
X4633420Y-15984337D01*
X4633420Y-15984337D02*
X4614372Y-15984337D01*
X4614372Y-15984337D02*
X4595324Y-15974813D01*
X4595324Y-15974813D02*
X4585801Y-15965289D01*
X4585801Y-15965289D02*
X4576277Y-15946242D01*
X4576277Y-15946242D02*
X4566753Y-15908146D01*
X4566753Y-15908146D02*
X4566753Y-15860527D01*
X4566753Y-15860527D02*
X4576277Y-15822432D01*
X4576277Y-15822432D02*
X4585801Y-15803384D01*
X4585801Y-15803384D02*
X4595324Y-15793861D01*
X4595324Y-15793861D02*
X4614372Y-15784337D01*
X4766753Y-15965289D02*
X4776277Y-15974813D01*
X4776277Y-15974813D02*
X4766753Y-15984337D01*
X4766753Y-15984337D02*
X4757229Y-15974813D01*
X4757229Y-15974813D02*
X4766753Y-15965289D01*
X4766753Y-15965289D02*
X4766753Y-15984337D01*
X4947705Y-15851003D02*
X4947705Y-15984337D01*
X4900086Y-15774813D02*
X4852467Y-15917670D01*
X4852467Y-15917670D02*
X4976277Y-15917670D01*
X5090563Y-15784337D02*
X5109610Y-15784337D01*
X5109610Y-15784337D02*
X5128658Y-15793861D01*
X5128658Y-15793861D02*
X5138182Y-15803384D01*
X5138182Y-15803384D02*
X5147705Y-15822432D01*
X5147705Y-15822432D02*
X5157229Y-15860527D01*
X5157229Y-15860527D02*
X5157229Y-15908146D01*
X5157229Y-15908146D02*
X5147705Y-15946242D01*
X5147705Y-15946242D02*
X5138182Y-15965289D01*
X5138182Y-15965289D02*
X5128658Y-15974813D01*
X5128658Y-15974813D02*
X5109610Y-15984337D01*
X5109610Y-15984337D02*
X5090563Y-15984337D01*
X5090563Y-15984337D02*
X5071515Y-15974813D01*
X5071515Y-15974813D02*
X5061991Y-15965289D01*
X5061991Y-15965289D02*
X5052467Y-15946242D01*
X5052467Y-15946242D02*
X5042944Y-15908146D01*
X5042944Y-15908146D02*
X5042944Y-15860527D01*
X5042944Y-15860527D02*
X5052467Y-15822432D01*
X5052467Y-15822432D02*
X5061991Y-15803384D01*
X5061991Y-15803384D02*
X5071515Y-15793861D01*
X5071515Y-15793861D02*
X5090563Y-15784337D01*
X5281039Y-15784337D02*
X5300086Y-15784337D01*
X5300086Y-15784337D02*
X5319134Y-15793861D01*
X5319134Y-15793861D02*
X5328658Y-15803384D01*
X5328658Y-15803384D02*
X5338182Y-15822432D01*
X5338182Y-15822432D02*
X5347705Y-15860527D01*
X5347705Y-15860527D02*
X5347705Y-15908146D01*
X5347705Y-15908146D02*
X5338182Y-15946242D01*
X5338182Y-15946242D02*
X5328658Y-15965289D01*
X5328658Y-15965289D02*
X5319134Y-15974813D01*
X5319134Y-15974813D02*
X5300086Y-15984337D01*
X5300086Y-15984337D02*
X5281039Y-15984337D01*
X5281039Y-15984337D02*
X5261991Y-15974813D01*
X5261991Y-15974813D02*
X5252467Y-15965289D01*
X5252467Y-15965289D02*
X5242944Y-15946242D01*
X5242944Y-15946242D02*
X5233420Y-15908146D01*
X5233420Y-15908146D02*
X5233420Y-15860527D01*
X5233420Y-15860527D02*
X5242944Y-15822432D01*
X5242944Y-15822432D02*
X5252467Y-15803384D01*
X5252467Y-15803384D02*
X5261991Y-15793861D01*
X5261991Y-15793861D02*
X5281039Y-15784337D01*
X5433420Y-15984337D02*
X5433420Y-15851003D01*
X5433420Y-15870051D02*
X5442944Y-15860527D01*
X5442944Y-15860527D02*
X5461991Y-15851003D01*
X5461991Y-15851003D02*
X5490563Y-15851003D01*
X5490563Y-15851003D02*
X5509610Y-15860527D01*
X5509610Y-15860527D02*
X5519134Y-15879575D01*
X5519134Y-15879575D02*
X5519134Y-15984337D01*
X5519134Y-15879575D02*
X5528658Y-15860527D01*
X5528658Y-15860527D02*
X5547705Y-15851003D01*
X5547705Y-15851003D02*
X5576277Y-15851003D01*
X5576277Y-15851003D02*
X5595324Y-15860527D01*
X5595324Y-15860527D02*
X5604848Y-15879575D01*
X5604848Y-15879575D02*
X5604848Y-15984337D01*
X5700086Y-15984337D02*
X5700086Y-15851003D01*
X5700086Y-15870051D02*
X5709610Y-15860527D01*
X5709610Y-15860527D02*
X5728658Y-15851003D01*
X5728658Y-15851003D02*
X5757229Y-15851003D01*
X5757229Y-15851003D02*
X5776277Y-15860527D01*
X5776277Y-15860527D02*
X5785801Y-15879575D01*
X5785801Y-15879575D02*
X5785801Y-15984337D01*
X5785801Y-15879575D02*
X5795324Y-15860527D01*
X5795324Y-15860527D02*
X5814372Y-15851003D01*
X5814372Y-15851003D02*
X5842943Y-15851003D01*
X5842943Y-15851003D02*
X5861991Y-15860527D01*
X5861991Y-15860527D02*
X5871515Y-15879575D01*
X5871515Y-15879575D02*
X5871515Y-15984337D01*
X6261991Y-15774813D02*
X6090563Y-16031956D01*
X6519134Y-15784337D02*
X6538182Y-15784337D01*
X6538182Y-15784337D02*
X6557229Y-15793861D01*
X6557229Y-15793861D02*
X6566753Y-15803384D01*
X6566753Y-15803384D02*
X6576277Y-15822432D01*
X6576277Y-15822432D02*
X6585801Y-15860527D01*
X6585801Y-15860527D02*
X6585801Y-15908146D01*
X6585801Y-15908146D02*
X6576277Y-15946242D01*
X6576277Y-15946242D02*
X6566753Y-15965289D01*
X6566753Y-15965289D02*
X6557229Y-15974813D01*
X6557229Y-15974813D02*
X6538182Y-15984337D01*
X6538182Y-15984337D02*
X6519134Y-15984337D01*
X6519134Y-15984337D02*
X6500086Y-15974813D01*
X6500086Y-15974813D02*
X6490563Y-15965289D01*
X6490563Y-15965289D02*
X6481039Y-15946242D01*
X6481039Y-15946242D02*
X6471515Y-15908146D01*
X6471515Y-15908146D02*
X6471515Y-15860527D01*
X6471515Y-15860527D02*
X6481039Y-15822432D01*
X6481039Y-15822432D02*
X6490563Y-15803384D01*
X6490563Y-15803384D02*
X6500086Y-15793861D01*
X6500086Y-15793861D02*
X6519134Y-15784337D01*
X6671515Y-15965289D02*
X6681039Y-15974813D01*
X6681039Y-15974813D02*
X6671515Y-15984337D01*
X6671515Y-15984337D02*
X6661991Y-15974813D01*
X6661991Y-15974813D02*
X6671515Y-15965289D01*
X6671515Y-15965289D02*
X6671515Y-15984337D01*
X6804848Y-15784337D02*
X6823896Y-15784337D01*
X6823896Y-15784337D02*
X6842944Y-15793861D01*
X6842944Y-15793861D02*
X6852467Y-15803384D01*
X6852467Y-15803384D02*
X6861991Y-15822432D01*
X6861991Y-15822432D02*
X6871515Y-15860527D01*
X6871515Y-15860527D02*
X6871515Y-15908146D01*
X6871515Y-15908146D02*
X6861991Y-15946242D01*
X6861991Y-15946242D02*
X6852467Y-15965289D01*
X6852467Y-15965289D02*
X6842944Y-15974813D01*
X6842944Y-15974813D02*
X6823896Y-15984337D01*
X6823896Y-15984337D02*
X6804848Y-15984337D01*
X6804848Y-15984337D02*
X6785801Y-15974813D01*
X6785801Y-15974813D02*
X6776277Y-15965289D01*
X6776277Y-15965289D02*
X6766753Y-15946242D01*
X6766753Y-15946242D02*
X6757229Y-15908146D01*
X6757229Y-15908146D02*
X6757229Y-15860527D01*
X6757229Y-15860527D02*
X6766753Y-15822432D01*
X6766753Y-15822432D02*
X6776277Y-15803384D01*
X6776277Y-15803384D02*
X6785801Y-15793861D01*
X6785801Y-15793861D02*
X6804848Y-15784337D01*
X7061991Y-15984337D02*
X6947706Y-15984337D01*
X7004848Y-15984337D02*
X7004848Y-15784337D01*
X7004848Y-15784337D02*
X6985801Y-15812908D01*
X6985801Y-15812908D02*
X6966753Y-15831956D01*
X6966753Y-15831956D02*
X6947706Y-15841480D01*
X7242944Y-15784337D02*
X7147706Y-15784337D01*
X7147706Y-15784337D02*
X7138182Y-15879575D01*
X7138182Y-15879575D02*
X7147706Y-15870051D01*
X7147706Y-15870051D02*
X7166753Y-15860527D01*
X7166753Y-15860527D02*
X7214372Y-15860527D01*
X7214372Y-15860527D02*
X7233420Y-15870051D01*
X7233420Y-15870051D02*
X7242944Y-15879575D01*
X7242944Y-15879575D02*
X7252467Y-15898623D01*
X7252467Y-15898623D02*
X7252467Y-15946242D01*
X7252467Y-15946242D02*
X7242944Y-15965289D01*
X7242944Y-15965289D02*
X7233420Y-15974813D01*
X7233420Y-15974813D02*
X7214372Y-15984337D01*
X7214372Y-15984337D02*
X7166753Y-15984337D01*
X7166753Y-15984337D02*
X7147706Y-15974813D01*
X7147706Y-15974813D02*
X7138182Y-15965289D01*
X7319134Y-15784337D02*
X7452467Y-15784337D01*
X7452467Y-15784337D02*
X7366753Y-15984337D01*
X7519134Y-15784337D02*
X7519134Y-15822432D01*
X7595325Y-15784337D02*
X7595325Y-15822432D01*
X7890563Y-16060527D02*
X7881039Y-16051003D01*
X7881039Y-16051003D02*
X7861991Y-16022432D01*
X7861991Y-16022432D02*
X7852468Y-16003384D01*
X7852468Y-16003384D02*
X7842944Y-15974813D01*
X7842944Y-15974813D02*
X7833420Y-15927194D01*
X7833420Y-15927194D02*
X7833420Y-15889099D01*
X7833420Y-15889099D02*
X7842944Y-15841480D01*
X7842944Y-15841480D02*
X7852468Y-15812908D01*
X7852468Y-15812908D02*
X7861991Y-15793861D01*
X7861991Y-15793861D02*
X7881039Y-15765289D01*
X7881039Y-15765289D02*
X7890563Y-15755765D01*
X8052468Y-15851003D02*
X8052468Y-15984337D01*
X8004848Y-15774813D02*
X7957229Y-15917670D01*
X7957229Y-15917670D02*
X8081039Y-15917670D01*
X8195325Y-15784337D02*
X8214372Y-15784337D01*
X8214372Y-15784337D02*
X8233420Y-15793861D01*
X8233420Y-15793861D02*
X8242944Y-15803384D01*
X8242944Y-15803384D02*
X8252468Y-15822432D01*
X8252468Y-15822432D02*
X8261991Y-15860527D01*
X8261991Y-15860527D02*
X8261991Y-15908146D01*
X8261991Y-15908146D02*
X8252468Y-15946242D01*
X8252468Y-15946242D02*
X8242944Y-15965289D01*
X8242944Y-15965289D02*
X8233420Y-15974813D01*
X8233420Y-15974813D02*
X8214372Y-15984337D01*
X8214372Y-15984337D02*
X8195325Y-15984337D01*
X8195325Y-15984337D02*
X8176277Y-15974813D01*
X8176277Y-15974813D02*
X8166753Y-15965289D01*
X8166753Y-15965289D02*
X8157229Y-15946242D01*
X8157229Y-15946242D02*
X8147706Y-15908146D01*
X8147706Y-15908146D02*
X8147706Y-15860527D01*
X8147706Y-15860527D02*
X8157229Y-15822432D01*
X8157229Y-15822432D02*
X8166753Y-15803384D01*
X8166753Y-15803384D02*
X8176277Y-15793861D01*
X8176277Y-15793861D02*
X8195325Y-15784337D01*
X8500087Y-15984337D02*
X8500087Y-15784337D01*
X8585801Y-15984337D02*
X8585801Y-15879575D01*
X8585801Y-15879575D02*
X8576277Y-15860527D01*
X8576277Y-15860527D02*
X8557230Y-15851003D01*
X8557230Y-15851003D02*
X8528658Y-15851003D01*
X8528658Y-15851003D02*
X8509611Y-15860527D01*
X8509611Y-15860527D02*
X8500087Y-15870051D01*
X8709611Y-15984337D02*
X8690563Y-15974813D01*
X8690563Y-15974813D02*
X8681039Y-15965289D01*
X8681039Y-15965289D02*
X8671515Y-15946242D01*
X8671515Y-15946242D02*
X8671515Y-15889099D01*
X8671515Y-15889099D02*
X8681039Y-15870051D01*
X8681039Y-15870051D02*
X8690563Y-15860527D01*
X8690563Y-15860527D02*
X8709611Y-15851003D01*
X8709611Y-15851003D02*
X8738182Y-15851003D01*
X8738182Y-15851003D02*
X8757230Y-15860527D01*
X8757230Y-15860527D02*
X8766753Y-15870051D01*
X8766753Y-15870051D02*
X8776277Y-15889099D01*
X8776277Y-15889099D02*
X8776277Y-15946242D01*
X8776277Y-15946242D02*
X8766753Y-15965289D01*
X8766753Y-15965289D02*
X8757230Y-15974813D01*
X8757230Y-15974813D02*
X8738182Y-15984337D01*
X8738182Y-15984337D02*
X8709611Y-15984337D01*
X8890563Y-15984337D02*
X8871515Y-15974813D01*
X8871515Y-15974813D02*
X8861992Y-15955765D01*
X8861992Y-15955765D02*
X8861992Y-15784337D01*
X9042944Y-15974813D02*
X9023896Y-15984337D01*
X9023896Y-15984337D02*
X8985801Y-15984337D01*
X8985801Y-15984337D02*
X8966753Y-15974813D01*
X8966753Y-15974813D02*
X8957230Y-15955765D01*
X8957230Y-15955765D02*
X8957230Y-15879575D01*
X8957230Y-15879575D02*
X8966753Y-15860527D01*
X8966753Y-15860527D02*
X8985801Y-15851003D01*
X8985801Y-15851003D02*
X9023896Y-15851003D01*
X9023896Y-15851003D02*
X9042944Y-15860527D01*
X9042944Y-15860527D02*
X9052468Y-15879575D01*
X9052468Y-15879575D02*
X9052468Y-15898623D01*
X9052468Y-15898623D02*
X8957230Y-15917670D01*
X9128658Y-15974813D02*
X9147706Y-15984337D01*
X9147706Y-15984337D02*
X9185801Y-15984337D01*
X9185801Y-15984337D02*
X9204849Y-15974813D01*
X9204849Y-15974813D02*
X9214373Y-15955765D01*
X9214373Y-15955765D02*
X9214373Y-15946242D01*
X9214373Y-15946242D02*
X9204849Y-15927194D01*
X9204849Y-15927194D02*
X9185801Y-15917670D01*
X9185801Y-15917670D02*
X9157230Y-15917670D01*
X9157230Y-15917670D02*
X9138182Y-15908146D01*
X9138182Y-15908146D02*
X9128658Y-15889099D01*
X9128658Y-15889099D02*
X9128658Y-15879575D01*
X9128658Y-15879575D02*
X9138182Y-15860527D01*
X9138182Y-15860527D02*
X9157230Y-15851003D01*
X9157230Y-15851003D02*
X9185801Y-15851003D01*
X9185801Y-15851003D02*
X9204849Y-15860527D01*
X9281039Y-16060527D02*
X9290563Y-16051003D01*
X9290563Y-16051003D02*
X9309611Y-16022432D01*
X9309611Y-16022432D02*
X9319134Y-16003384D01*
X9319134Y-16003384D02*
X9328658Y-15974813D01*
X9328658Y-15974813D02*
X9338182Y-15927194D01*
X9338182Y-15927194D02*
X9338182Y-15889099D01*
X9338182Y-15889099D02*
X9328658Y-15841480D01*
X9328658Y-15841480D02*
X9319134Y-15812908D01*
X9319134Y-15812908D02*
X9309611Y-15793861D01*
X9309611Y-15793861D02*
X9290563Y-15765289D01*
X9290563Y-15765289D02*
X9281039Y-15755765D01*
D12*
X4290500Y-16131853D02*
X4290500Y-16181853D01*
X4265500Y-16156853D02*
X4315500Y-16156853D01*
D11*
X4614372Y-16048337D02*
X4633420Y-16048337D01*
X4633420Y-16048337D02*
X4652467Y-16057861D01*
X4652467Y-16057861D02*
X4661991Y-16067384D01*
X4661991Y-16067384D02*
X4671515Y-16086432D01*
X4671515Y-16086432D02*
X4681039Y-16124527D01*
X4681039Y-16124527D02*
X4681039Y-16172146D01*
X4681039Y-16172146D02*
X4671515Y-16210242D01*
X4671515Y-16210242D02*
X4661991Y-16229289D01*
X4661991Y-16229289D02*
X4652467Y-16238813D01*
X4652467Y-16238813D02*
X4633420Y-16248337D01*
X4633420Y-16248337D02*
X4614372Y-16248337D01*
X4614372Y-16248337D02*
X4595324Y-16238813D01*
X4595324Y-16238813D02*
X4585801Y-16229289D01*
X4585801Y-16229289D02*
X4576277Y-16210242D01*
X4576277Y-16210242D02*
X4566753Y-16172146D01*
X4566753Y-16172146D02*
X4566753Y-16124527D01*
X4566753Y-16124527D02*
X4576277Y-16086432D01*
X4576277Y-16086432D02*
X4585801Y-16067384D01*
X4585801Y-16067384D02*
X4595324Y-16057861D01*
X4595324Y-16057861D02*
X4614372Y-16048337D01*
X4766753Y-16229289D02*
X4776277Y-16238813D01*
X4776277Y-16238813D02*
X4766753Y-16248337D01*
X4766753Y-16248337D02*
X4757229Y-16238813D01*
X4757229Y-16238813D02*
X4766753Y-16229289D01*
X4766753Y-16229289D02*
X4766753Y-16248337D01*
X4957229Y-16048337D02*
X4861991Y-16048337D01*
X4861991Y-16048337D02*
X4852467Y-16143575D01*
X4852467Y-16143575D02*
X4861991Y-16134051D01*
X4861991Y-16134051D02*
X4881039Y-16124527D01*
X4881039Y-16124527D02*
X4928658Y-16124527D01*
X4928658Y-16124527D02*
X4947705Y-16134051D01*
X4947705Y-16134051D02*
X4957229Y-16143575D01*
X4957229Y-16143575D02*
X4966753Y-16162623D01*
X4966753Y-16162623D02*
X4966753Y-16210242D01*
X4966753Y-16210242D02*
X4957229Y-16229289D01*
X4957229Y-16229289D02*
X4947705Y-16238813D01*
X4947705Y-16238813D02*
X4928658Y-16248337D01*
X4928658Y-16248337D02*
X4881039Y-16248337D01*
X4881039Y-16248337D02*
X4861991Y-16238813D01*
X4861991Y-16238813D02*
X4852467Y-16229289D01*
X5090563Y-16048337D02*
X5109610Y-16048337D01*
X5109610Y-16048337D02*
X5128658Y-16057861D01*
X5128658Y-16057861D02*
X5138182Y-16067384D01*
X5138182Y-16067384D02*
X5147705Y-16086432D01*
X5147705Y-16086432D02*
X5157229Y-16124527D01*
X5157229Y-16124527D02*
X5157229Y-16172146D01*
X5157229Y-16172146D02*
X5147705Y-16210242D01*
X5147705Y-16210242D02*
X5138182Y-16229289D01*
X5138182Y-16229289D02*
X5128658Y-16238813D01*
X5128658Y-16238813D02*
X5109610Y-16248337D01*
X5109610Y-16248337D02*
X5090563Y-16248337D01*
X5090563Y-16248337D02*
X5071515Y-16238813D01*
X5071515Y-16238813D02*
X5061991Y-16229289D01*
X5061991Y-16229289D02*
X5052467Y-16210242D01*
X5052467Y-16210242D02*
X5042944Y-16172146D01*
X5042944Y-16172146D02*
X5042944Y-16124527D01*
X5042944Y-16124527D02*
X5052467Y-16086432D01*
X5052467Y-16086432D02*
X5061991Y-16067384D01*
X5061991Y-16067384D02*
X5071515Y-16057861D01*
X5071515Y-16057861D02*
X5090563Y-16048337D01*
X5281039Y-16048337D02*
X5300086Y-16048337D01*
X5300086Y-16048337D02*
X5319134Y-16057861D01*
X5319134Y-16057861D02*
X5328658Y-16067384D01*
X5328658Y-16067384D02*
X5338182Y-16086432D01*
X5338182Y-16086432D02*
X5347705Y-16124527D01*
X5347705Y-16124527D02*
X5347705Y-16172146D01*
X5347705Y-16172146D02*
X5338182Y-16210242D01*
X5338182Y-16210242D02*
X5328658Y-16229289D01*
X5328658Y-16229289D02*
X5319134Y-16238813D01*
X5319134Y-16238813D02*
X5300086Y-16248337D01*
X5300086Y-16248337D02*
X5281039Y-16248337D01*
X5281039Y-16248337D02*
X5261991Y-16238813D01*
X5261991Y-16238813D02*
X5252467Y-16229289D01*
X5252467Y-16229289D02*
X5242944Y-16210242D01*
X5242944Y-16210242D02*
X5233420Y-16172146D01*
X5233420Y-16172146D02*
X5233420Y-16124527D01*
X5233420Y-16124527D02*
X5242944Y-16086432D01*
X5242944Y-16086432D02*
X5252467Y-16067384D01*
X5252467Y-16067384D02*
X5261991Y-16057861D01*
X5261991Y-16057861D02*
X5281039Y-16048337D01*
X5433420Y-16248337D02*
X5433420Y-16115003D01*
X5433420Y-16134051D02*
X5442944Y-16124527D01*
X5442944Y-16124527D02*
X5461991Y-16115003D01*
X5461991Y-16115003D02*
X5490563Y-16115003D01*
X5490563Y-16115003D02*
X5509610Y-16124527D01*
X5509610Y-16124527D02*
X5519134Y-16143575D01*
X5519134Y-16143575D02*
X5519134Y-16248337D01*
X5519134Y-16143575D02*
X5528658Y-16124527D01*
X5528658Y-16124527D02*
X5547705Y-16115003D01*
X5547705Y-16115003D02*
X5576277Y-16115003D01*
X5576277Y-16115003D02*
X5595324Y-16124527D01*
X5595324Y-16124527D02*
X5604848Y-16143575D01*
X5604848Y-16143575D02*
X5604848Y-16248337D01*
X5700086Y-16248337D02*
X5700086Y-16115003D01*
X5700086Y-16134051D02*
X5709610Y-16124527D01*
X5709610Y-16124527D02*
X5728658Y-16115003D01*
X5728658Y-16115003D02*
X5757229Y-16115003D01*
X5757229Y-16115003D02*
X5776277Y-16124527D01*
X5776277Y-16124527D02*
X5785801Y-16143575D01*
X5785801Y-16143575D02*
X5785801Y-16248337D01*
X5785801Y-16143575D02*
X5795324Y-16124527D01*
X5795324Y-16124527D02*
X5814372Y-16115003D01*
X5814372Y-16115003D02*
X5842943Y-16115003D01*
X5842943Y-16115003D02*
X5861991Y-16124527D01*
X5861991Y-16124527D02*
X5871515Y-16143575D01*
X5871515Y-16143575D02*
X5871515Y-16248337D01*
X6261991Y-16038813D02*
X6090563Y-16295956D01*
X6519134Y-16048337D02*
X6538182Y-16048337D01*
X6538182Y-16048337D02*
X6557229Y-16057861D01*
X6557229Y-16057861D02*
X6566753Y-16067384D01*
X6566753Y-16067384D02*
X6576277Y-16086432D01*
X6576277Y-16086432D02*
X6585801Y-16124527D01*
X6585801Y-16124527D02*
X6585801Y-16172146D01*
X6585801Y-16172146D02*
X6576277Y-16210242D01*
X6576277Y-16210242D02*
X6566753Y-16229289D01*
X6566753Y-16229289D02*
X6557229Y-16238813D01*
X6557229Y-16238813D02*
X6538182Y-16248337D01*
X6538182Y-16248337D02*
X6519134Y-16248337D01*
X6519134Y-16248337D02*
X6500086Y-16238813D01*
X6500086Y-16238813D02*
X6490563Y-16229289D01*
X6490563Y-16229289D02*
X6481039Y-16210242D01*
X6481039Y-16210242D02*
X6471515Y-16172146D01*
X6471515Y-16172146D02*
X6471515Y-16124527D01*
X6471515Y-16124527D02*
X6481039Y-16086432D01*
X6481039Y-16086432D02*
X6490563Y-16067384D01*
X6490563Y-16067384D02*
X6500086Y-16057861D01*
X6500086Y-16057861D02*
X6519134Y-16048337D01*
X6671515Y-16229289D02*
X6681039Y-16238813D01*
X6681039Y-16238813D02*
X6671515Y-16248337D01*
X6671515Y-16248337D02*
X6661991Y-16238813D01*
X6661991Y-16238813D02*
X6671515Y-16229289D01*
X6671515Y-16229289D02*
X6671515Y-16248337D01*
X6804848Y-16048337D02*
X6823896Y-16048337D01*
X6823896Y-16048337D02*
X6842944Y-16057861D01*
X6842944Y-16057861D02*
X6852467Y-16067384D01*
X6852467Y-16067384D02*
X6861991Y-16086432D01*
X6861991Y-16086432D02*
X6871515Y-16124527D01*
X6871515Y-16124527D02*
X6871515Y-16172146D01*
X6871515Y-16172146D02*
X6861991Y-16210242D01*
X6861991Y-16210242D02*
X6852467Y-16229289D01*
X6852467Y-16229289D02*
X6842944Y-16238813D01*
X6842944Y-16238813D02*
X6823896Y-16248337D01*
X6823896Y-16248337D02*
X6804848Y-16248337D01*
X6804848Y-16248337D02*
X6785801Y-16238813D01*
X6785801Y-16238813D02*
X6776277Y-16229289D01*
X6776277Y-16229289D02*
X6766753Y-16210242D01*
X6766753Y-16210242D02*
X6757229Y-16172146D01*
X6757229Y-16172146D02*
X6757229Y-16124527D01*
X6757229Y-16124527D02*
X6766753Y-16086432D01*
X6766753Y-16086432D02*
X6776277Y-16067384D01*
X6776277Y-16067384D02*
X6785801Y-16057861D01*
X6785801Y-16057861D02*
X6804848Y-16048337D01*
X7061991Y-16248337D02*
X6947706Y-16248337D01*
X7004848Y-16248337D02*
X7004848Y-16048337D01*
X7004848Y-16048337D02*
X6985801Y-16076908D01*
X6985801Y-16076908D02*
X6966753Y-16095956D01*
X6966753Y-16095956D02*
X6947706Y-16105480D01*
X7157229Y-16248337D02*
X7195325Y-16248337D01*
X7195325Y-16248337D02*
X7214372Y-16238813D01*
X7214372Y-16238813D02*
X7223896Y-16229289D01*
X7223896Y-16229289D02*
X7242944Y-16200718D01*
X7242944Y-16200718D02*
X7252467Y-16162623D01*
X7252467Y-16162623D02*
X7252467Y-16086432D01*
X7252467Y-16086432D02*
X7242944Y-16067384D01*
X7242944Y-16067384D02*
X7233420Y-16057861D01*
X7233420Y-16057861D02*
X7214372Y-16048337D01*
X7214372Y-16048337D02*
X7176277Y-16048337D01*
X7176277Y-16048337D02*
X7157229Y-16057861D01*
X7157229Y-16057861D02*
X7147706Y-16067384D01*
X7147706Y-16067384D02*
X7138182Y-16086432D01*
X7138182Y-16086432D02*
X7138182Y-16134051D01*
X7138182Y-16134051D02*
X7147706Y-16153099D01*
X7147706Y-16153099D02*
X7157229Y-16162623D01*
X7157229Y-16162623D02*
X7176277Y-16172146D01*
X7176277Y-16172146D02*
X7214372Y-16172146D01*
X7214372Y-16172146D02*
X7233420Y-16162623D01*
X7233420Y-16162623D02*
X7242944Y-16153099D01*
X7242944Y-16153099D02*
X7252467Y-16134051D01*
X7319134Y-16048337D02*
X7452467Y-16048337D01*
X7452467Y-16048337D02*
X7366753Y-16248337D01*
X7519134Y-16048337D02*
X7519134Y-16086432D01*
X7595325Y-16048337D02*
X7595325Y-16086432D01*
X7890563Y-16324527D02*
X7881039Y-16315003D01*
X7881039Y-16315003D02*
X7861991Y-16286432D01*
X7861991Y-16286432D02*
X7852468Y-16267384D01*
X7852468Y-16267384D02*
X7842944Y-16238813D01*
X7842944Y-16238813D02*
X7833420Y-16191194D01*
X7833420Y-16191194D02*
X7833420Y-16153099D01*
X7833420Y-16153099D02*
X7842944Y-16105480D01*
X7842944Y-16105480D02*
X7852468Y-16076908D01*
X7852468Y-16076908D02*
X7861991Y-16057861D01*
X7861991Y-16057861D02*
X7881039Y-16029289D01*
X7881039Y-16029289D02*
X7890563Y-16019765D01*
X7947706Y-16048337D02*
X8071515Y-16048337D01*
X8071515Y-16048337D02*
X8004848Y-16124527D01*
X8004848Y-16124527D02*
X8033420Y-16124527D01*
X8033420Y-16124527D02*
X8052468Y-16134051D01*
X8052468Y-16134051D02*
X8061991Y-16143575D01*
X8061991Y-16143575D02*
X8071515Y-16162623D01*
X8071515Y-16162623D02*
X8071515Y-16210242D01*
X8071515Y-16210242D02*
X8061991Y-16229289D01*
X8061991Y-16229289D02*
X8052468Y-16238813D01*
X8052468Y-16238813D02*
X8033420Y-16248337D01*
X8033420Y-16248337D02*
X7976277Y-16248337D01*
X7976277Y-16248337D02*
X7957229Y-16238813D01*
X7957229Y-16238813D02*
X7947706Y-16229289D01*
X8147706Y-16067384D02*
X8157229Y-16057861D01*
X8157229Y-16057861D02*
X8176277Y-16048337D01*
X8176277Y-16048337D02*
X8223896Y-16048337D01*
X8223896Y-16048337D02*
X8242944Y-16057861D01*
X8242944Y-16057861D02*
X8252468Y-16067384D01*
X8252468Y-16067384D02*
X8261991Y-16086432D01*
X8261991Y-16086432D02*
X8261991Y-16105480D01*
X8261991Y-16105480D02*
X8252468Y-16134051D01*
X8252468Y-16134051D02*
X8138182Y-16248337D01*
X8138182Y-16248337D02*
X8261991Y-16248337D01*
X8500087Y-16248337D02*
X8500087Y-16048337D01*
X8585801Y-16248337D02*
X8585801Y-16143575D01*
X8585801Y-16143575D02*
X8576277Y-16124527D01*
X8576277Y-16124527D02*
X8557230Y-16115003D01*
X8557230Y-16115003D02*
X8528658Y-16115003D01*
X8528658Y-16115003D02*
X8509611Y-16124527D01*
X8509611Y-16124527D02*
X8500087Y-16134051D01*
X8709611Y-16248337D02*
X8690563Y-16238813D01*
X8690563Y-16238813D02*
X8681039Y-16229289D01*
X8681039Y-16229289D02*
X8671515Y-16210242D01*
X8671515Y-16210242D02*
X8671515Y-16153099D01*
X8671515Y-16153099D02*
X8681039Y-16134051D01*
X8681039Y-16134051D02*
X8690563Y-16124527D01*
X8690563Y-16124527D02*
X8709611Y-16115003D01*
X8709611Y-16115003D02*
X8738182Y-16115003D01*
X8738182Y-16115003D02*
X8757230Y-16124527D01*
X8757230Y-16124527D02*
X8766753Y-16134051D01*
X8766753Y-16134051D02*
X8776277Y-16153099D01*
X8776277Y-16153099D02*
X8776277Y-16210242D01*
X8776277Y-16210242D02*
X8766753Y-16229289D01*
X8766753Y-16229289D02*
X8757230Y-16238813D01*
X8757230Y-16238813D02*
X8738182Y-16248337D01*
X8738182Y-16248337D02*
X8709611Y-16248337D01*
X8890563Y-16248337D02*
X8871515Y-16238813D01*
X8871515Y-16238813D02*
X8861992Y-16219765D01*
X8861992Y-16219765D02*
X8861992Y-16048337D01*
X9042944Y-16238813D02*
X9023896Y-16248337D01*
X9023896Y-16248337D02*
X8985801Y-16248337D01*
X8985801Y-16248337D02*
X8966753Y-16238813D01*
X8966753Y-16238813D02*
X8957230Y-16219765D01*
X8957230Y-16219765D02*
X8957230Y-16143575D01*
X8957230Y-16143575D02*
X8966753Y-16124527D01*
X8966753Y-16124527D02*
X8985801Y-16115003D01*
X8985801Y-16115003D02*
X9023896Y-16115003D01*
X9023896Y-16115003D02*
X9042944Y-16124527D01*
X9042944Y-16124527D02*
X9052468Y-16143575D01*
X9052468Y-16143575D02*
X9052468Y-16162623D01*
X9052468Y-16162623D02*
X8957230Y-16181670D01*
X9128658Y-16238813D02*
X9147706Y-16248337D01*
X9147706Y-16248337D02*
X9185801Y-16248337D01*
X9185801Y-16248337D02*
X9204849Y-16238813D01*
X9204849Y-16238813D02*
X9214373Y-16219765D01*
X9214373Y-16219765D02*
X9214373Y-16210242D01*
X9214373Y-16210242D02*
X9204849Y-16191194D01*
X9204849Y-16191194D02*
X9185801Y-16181670D01*
X9185801Y-16181670D02*
X9157230Y-16181670D01*
X9157230Y-16181670D02*
X9138182Y-16172146D01*
X9138182Y-16172146D02*
X9128658Y-16153099D01*
X9128658Y-16153099D02*
X9128658Y-16143575D01*
X9128658Y-16143575D02*
X9138182Y-16124527D01*
X9138182Y-16124527D02*
X9157230Y-16115003D01*
X9157230Y-16115003D02*
X9185801Y-16115003D01*
X9185801Y-16115003D02*
X9204849Y-16124527D01*
X9281039Y-16324527D02*
X9290563Y-16315003D01*
X9290563Y-16315003D02*
X9309611Y-16286432D01*
X9309611Y-16286432D02*
X9319134Y-16267384D01*
X9319134Y-16267384D02*
X9328658Y-16238813D01*
X9328658Y-16238813D02*
X9338182Y-16191194D01*
X9338182Y-16191194D02*
X9338182Y-16153099D01*
X9338182Y-16153099D02*
X9328658Y-16105480D01*
X9328658Y-16105480D02*
X9319134Y-16076908D01*
X9319134Y-16076908D02*
X9309611Y-16057861D01*
X9309611Y-16057861D02*
X9290563Y-16029289D01*
X9290563Y-16029289D02*
X9281039Y-16019765D01*
D12*
X4305249Y-16445602D02*
X4305249Y-16396104D01*
X4255751Y-16396104D01*
X4255751Y-16445602D01*
X4305249Y-16445602D01*
D11*
X4614372Y-16312337D02*
X4633420Y-16312337D01*
X4633420Y-16312337D02*
X4652467Y-16321861D01*
X4652467Y-16321861D02*
X4661991Y-16331384D01*
X4661991Y-16331384D02*
X4671515Y-16350432D01*
X4671515Y-16350432D02*
X4681039Y-16388527D01*
X4681039Y-16388527D02*
X4681039Y-16436146D01*
X4681039Y-16436146D02*
X4671515Y-16474242D01*
X4671515Y-16474242D02*
X4661991Y-16493289D01*
X4661991Y-16493289D02*
X4652467Y-16502813D01*
X4652467Y-16502813D02*
X4633420Y-16512337D01*
X4633420Y-16512337D02*
X4614372Y-16512337D01*
X4614372Y-16512337D02*
X4595324Y-16502813D01*
X4595324Y-16502813D02*
X4585801Y-16493289D01*
X4585801Y-16493289D02*
X4576277Y-16474242D01*
X4576277Y-16474242D02*
X4566753Y-16436146D01*
X4566753Y-16436146D02*
X4566753Y-16388527D01*
X4566753Y-16388527D02*
X4576277Y-16350432D01*
X4576277Y-16350432D02*
X4585801Y-16331384D01*
X4585801Y-16331384D02*
X4595324Y-16321861D01*
X4595324Y-16321861D02*
X4614372Y-16312337D01*
X4766753Y-16493289D02*
X4776277Y-16502813D01*
X4776277Y-16502813D02*
X4766753Y-16512337D01*
X4766753Y-16512337D02*
X4757229Y-16502813D01*
X4757229Y-16502813D02*
X4766753Y-16493289D01*
X4766753Y-16493289D02*
X4766753Y-16512337D01*
X4842944Y-16312337D02*
X4976277Y-16312337D01*
X4976277Y-16312337D02*
X4890563Y-16512337D01*
X5090563Y-16312337D02*
X5109610Y-16312337D01*
X5109610Y-16312337D02*
X5128658Y-16321861D01*
X5128658Y-16321861D02*
X5138182Y-16331384D01*
X5138182Y-16331384D02*
X5147705Y-16350432D01*
X5147705Y-16350432D02*
X5157229Y-16388527D01*
X5157229Y-16388527D02*
X5157229Y-16436146D01*
X5157229Y-16436146D02*
X5147705Y-16474242D01*
X5147705Y-16474242D02*
X5138182Y-16493289D01*
X5138182Y-16493289D02*
X5128658Y-16502813D01*
X5128658Y-16502813D02*
X5109610Y-16512337D01*
X5109610Y-16512337D02*
X5090563Y-16512337D01*
X5090563Y-16512337D02*
X5071515Y-16502813D01*
X5071515Y-16502813D02*
X5061991Y-16493289D01*
X5061991Y-16493289D02*
X5052467Y-16474242D01*
X5052467Y-16474242D02*
X5042944Y-16436146D01*
X5042944Y-16436146D02*
X5042944Y-16388527D01*
X5042944Y-16388527D02*
X5052467Y-16350432D01*
X5052467Y-16350432D02*
X5061991Y-16331384D01*
X5061991Y-16331384D02*
X5071515Y-16321861D01*
X5071515Y-16321861D02*
X5090563Y-16312337D01*
X5281039Y-16312337D02*
X5300086Y-16312337D01*
X5300086Y-16312337D02*
X5319134Y-16321861D01*
X5319134Y-16321861D02*
X5328658Y-16331384D01*
X5328658Y-16331384D02*
X5338182Y-16350432D01*
X5338182Y-16350432D02*
X5347705Y-16388527D01*
X5347705Y-16388527D02*
X5347705Y-16436146D01*
X5347705Y-16436146D02*
X5338182Y-16474242D01*
X5338182Y-16474242D02*
X5328658Y-16493289D01*
X5328658Y-16493289D02*
X5319134Y-16502813D01*
X5319134Y-16502813D02*
X5300086Y-16512337D01*
X5300086Y-16512337D02*
X5281039Y-16512337D01*
X5281039Y-16512337D02*
X5261991Y-16502813D01*
X5261991Y-16502813D02*
X5252467Y-16493289D01*
X5252467Y-16493289D02*
X5242944Y-16474242D01*
X5242944Y-16474242D02*
X5233420Y-16436146D01*
X5233420Y-16436146D02*
X5233420Y-16388527D01*
X5233420Y-16388527D02*
X5242944Y-16350432D01*
X5242944Y-16350432D02*
X5252467Y-16331384D01*
X5252467Y-16331384D02*
X5261991Y-16321861D01*
X5261991Y-16321861D02*
X5281039Y-16312337D01*
X5433420Y-16512337D02*
X5433420Y-16379003D01*
X5433420Y-16398051D02*
X5442944Y-16388527D01*
X5442944Y-16388527D02*
X5461991Y-16379003D01*
X5461991Y-16379003D02*
X5490563Y-16379003D01*
X5490563Y-16379003D02*
X5509610Y-16388527D01*
X5509610Y-16388527D02*
X5519134Y-16407575D01*
X5519134Y-16407575D02*
X5519134Y-16512337D01*
X5519134Y-16407575D02*
X5528658Y-16388527D01*
X5528658Y-16388527D02*
X5547705Y-16379003D01*
X5547705Y-16379003D02*
X5576277Y-16379003D01*
X5576277Y-16379003D02*
X5595324Y-16388527D01*
X5595324Y-16388527D02*
X5604848Y-16407575D01*
X5604848Y-16407575D02*
X5604848Y-16512337D01*
X5700086Y-16512337D02*
X5700086Y-16379003D01*
X5700086Y-16398051D02*
X5709610Y-16388527D01*
X5709610Y-16388527D02*
X5728658Y-16379003D01*
X5728658Y-16379003D02*
X5757229Y-16379003D01*
X5757229Y-16379003D02*
X5776277Y-16388527D01*
X5776277Y-16388527D02*
X5785801Y-16407575D01*
X5785801Y-16407575D02*
X5785801Y-16512337D01*
X5785801Y-16407575D02*
X5795324Y-16388527D01*
X5795324Y-16388527D02*
X5814372Y-16379003D01*
X5814372Y-16379003D02*
X5842943Y-16379003D01*
X5842943Y-16379003D02*
X5861991Y-16388527D01*
X5861991Y-16388527D02*
X5871515Y-16407575D01*
X5871515Y-16407575D02*
X5871515Y-16512337D01*
X6261991Y-16302813D02*
X6090563Y-16559956D01*
X6519134Y-16312337D02*
X6538182Y-16312337D01*
X6538182Y-16312337D02*
X6557229Y-16321861D01*
X6557229Y-16321861D02*
X6566753Y-16331384D01*
X6566753Y-16331384D02*
X6576277Y-16350432D01*
X6576277Y-16350432D02*
X6585801Y-16388527D01*
X6585801Y-16388527D02*
X6585801Y-16436146D01*
X6585801Y-16436146D02*
X6576277Y-16474242D01*
X6576277Y-16474242D02*
X6566753Y-16493289D01*
X6566753Y-16493289D02*
X6557229Y-16502813D01*
X6557229Y-16502813D02*
X6538182Y-16512337D01*
X6538182Y-16512337D02*
X6519134Y-16512337D01*
X6519134Y-16512337D02*
X6500086Y-16502813D01*
X6500086Y-16502813D02*
X6490563Y-16493289D01*
X6490563Y-16493289D02*
X6481039Y-16474242D01*
X6481039Y-16474242D02*
X6471515Y-16436146D01*
X6471515Y-16436146D02*
X6471515Y-16388527D01*
X6471515Y-16388527D02*
X6481039Y-16350432D01*
X6481039Y-16350432D02*
X6490563Y-16331384D01*
X6490563Y-16331384D02*
X6500086Y-16321861D01*
X6500086Y-16321861D02*
X6519134Y-16312337D01*
X6671515Y-16493289D02*
X6681039Y-16502813D01*
X6681039Y-16502813D02*
X6671515Y-16512337D01*
X6671515Y-16512337D02*
X6661991Y-16502813D01*
X6661991Y-16502813D02*
X6671515Y-16493289D01*
X6671515Y-16493289D02*
X6671515Y-16512337D01*
X6804848Y-16312337D02*
X6823896Y-16312337D01*
X6823896Y-16312337D02*
X6842944Y-16321861D01*
X6842944Y-16321861D02*
X6852467Y-16331384D01*
X6852467Y-16331384D02*
X6861991Y-16350432D01*
X6861991Y-16350432D02*
X6871515Y-16388527D01*
X6871515Y-16388527D02*
X6871515Y-16436146D01*
X6871515Y-16436146D02*
X6861991Y-16474242D01*
X6861991Y-16474242D02*
X6852467Y-16493289D01*
X6852467Y-16493289D02*
X6842944Y-16502813D01*
X6842944Y-16502813D02*
X6823896Y-16512337D01*
X6823896Y-16512337D02*
X6804848Y-16512337D01*
X6804848Y-16512337D02*
X6785801Y-16502813D01*
X6785801Y-16502813D02*
X6776277Y-16493289D01*
X6776277Y-16493289D02*
X6766753Y-16474242D01*
X6766753Y-16474242D02*
X6757229Y-16436146D01*
X6757229Y-16436146D02*
X6757229Y-16388527D01*
X6757229Y-16388527D02*
X6766753Y-16350432D01*
X6766753Y-16350432D02*
X6776277Y-16331384D01*
X6776277Y-16331384D02*
X6785801Y-16321861D01*
X6785801Y-16321861D02*
X6804848Y-16312337D01*
X6947706Y-16331384D02*
X6957229Y-16321861D01*
X6957229Y-16321861D02*
X6976277Y-16312337D01*
X6976277Y-16312337D02*
X7023896Y-16312337D01*
X7023896Y-16312337D02*
X7042944Y-16321861D01*
X7042944Y-16321861D02*
X7052467Y-16331384D01*
X7052467Y-16331384D02*
X7061991Y-16350432D01*
X7061991Y-16350432D02*
X7061991Y-16369480D01*
X7061991Y-16369480D02*
X7052467Y-16398051D01*
X7052467Y-16398051D02*
X6938182Y-16512337D01*
X6938182Y-16512337D02*
X7061991Y-16512337D01*
X7128658Y-16312337D02*
X7261991Y-16312337D01*
X7261991Y-16312337D02*
X7176277Y-16512337D01*
X7423896Y-16312337D02*
X7385801Y-16312337D01*
X7385801Y-16312337D02*
X7366753Y-16321861D01*
X7366753Y-16321861D02*
X7357229Y-16331384D01*
X7357229Y-16331384D02*
X7338182Y-16359956D01*
X7338182Y-16359956D02*
X7328658Y-16398051D01*
X7328658Y-16398051D02*
X7328658Y-16474242D01*
X7328658Y-16474242D02*
X7338182Y-16493289D01*
X7338182Y-16493289D02*
X7347706Y-16502813D01*
X7347706Y-16502813D02*
X7366753Y-16512337D01*
X7366753Y-16512337D02*
X7404848Y-16512337D01*
X7404848Y-16512337D02*
X7423896Y-16502813D01*
X7423896Y-16502813D02*
X7433420Y-16493289D01*
X7433420Y-16493289D02*
X7442944Y-16474242D01*
X7442944Y-16474242D02*
X7442944Y-16426623D01*
X7442944Y-16426623D02*
X7433420Y-16407575D01*
X7433420Y-16407575D02*
X7423896Y-16398051D01*
X7423896Y-16398051D02*
X7404848Y-16388527D01*
X7404848Y-16388527D02*
X7366753Y-16388527D01*
X7366753Y-16388527D02*
X7347706Y-16398051D01*
X7347706Y-16398051D02*
X7338182Y-16407575D01*
X7338182Y-16407575D02*
X7328658Y-16426623D01*
X7519134Y-16312337D02*
X7519134Y-16350432D01*
X7595325Y-16312337D02*
X7595325Y-16350432D01*
X7890563Y-16588527D02*
X7881039Y-16579003D01*
X7881039Y-16579003D02*
X7861991Y-16550432D01*
X7861991Y-16550432D02*
X7852468Y-16531384D01*
X7852468Y-16531384D02*
X7842944Y-16502813D01*
X7842944Y-16502813D02*
X7833420Y-16455194D01*
X7833420Y-16455194D02*
X7833420Y-16417099D01*
X7833420Y-16417099D02*
X7842944Y-16369480D01*
X7842944Y-16369480D02*
X7852468Y-16340908D01*
X7852468Y-16340908D02*
X7861991Y-16321861D01*
X7861991Y-16321861D02*
X7881039Y-16293289D01*
X7881039Y-16293289D02*
X7890563Y-16283765D01*
X8061991Y-16312337D02*
X7966753Y-16312337D01*
X7966753Y-16312337D02*
X7957229Y-16407575D01*
X7957229Y-16407575D02*
X7966753Y-16398051D01*
X7966753Y-16398051D02*
X7985801Y-16388527D01*
X7985801Y-16388527D02*
X8033420Y-16388527D01*
X8033420Y-16388527D02*
X8052468Y-16398051D01*
X8052468Y-16398051D02*
X8061991Y-16407575D01*
X8061991Y-16407575D02*
X8071515Y-16426623D01*
X8071515Y-16426623D02*
X8071515Y-16474242D01*
X8071515Y-16474242D02*
X8061991Y-16493289D01*
X8061991Y-16493289D02*
X8052468Y-16502813D01*
X8052468Y-16502813D02*
X8033420Y-16512337D01*
X8033420Y-16512337D02*
X7985801Y-16512337D01*
X7985801Y-16512337D02*
X7966753Y-16502813D01*
X7966753Y-16502813D02*
X7957229Y-16493289D01*
X8138182Y-16312337D02*
X8271515Y-16312337D01*
X8271515Y-16312337D02*
X8185801Y-16512337D01*
X8500087Y-16512337D02*
X8500087Y-16312337D01*
X8585801Y-16512337D02*
X8585801Y-16407575D01*
X8585801Y-16407575D02*
X8576277Y-16388527D01*
X8576277Y-16388527D02*
X8557230Y-16379003D01*
X8557230Y-16379003D02*
X8528658Y-16379003D01*
X8528658Y-16379003D02*
X8509611Y-16388527D01*
X8509611Y-16388527D02*
X8500087Y-16398051D01*
X8709611Y-16512337D02*
X8690563Y-16502813D01*
X8690563Y-16502813D02*
X8681039Y-16493289D01*
X8681039Y-16493289D02*
X8671515Y-16474242D01*
X8671515Y-16474242D02*
X8671515Y-16417099D01*
X8671515Y-16417099D02*
X8681039Y-16398051D01*
X8681039Y-16398051D02*
X8690563Y-16388527D01*
X8690563Y-16388527D02*
X8709611Y-16379003D01*
X8709611Y-16379003D02*
X8738182Y-16379003D01*
X8738182Y-16379003D02*
X8757230Y-16388527D01*
X8757230Y-16388527D02*
X8766753Y-16398051D01*
X8766753Y-16398051D02*
X8776277Y-16417099D01*
X8776277Y-16417099D02*
X8776277Y-16474242D01*
X8776277Y-16474242D02*
X8766753Y-16493289D01*
X8766753Y-16493289D02*
X8757230Y-16502813D01*
X8757230Y-16502813D02*
X8738182Y-16512337D01*
X8738182Y-16512337D02*
X8709611Y-16512337D01*
X8890563Y-16512337D02*
X8871515Y-16502813D01*
X8871515Y-16502813D02*
X8861992Y-16483765D01*
X8861992Y-16483765D02*
X8861992Y-16312337D01*
X9042944Y-16502813D02*
X9023896Y-16512337D01*
X9023896Y-16512337D02*
X8985801Y-16512337D01*
X8985801Y-16512337D02*
X8966753Y-16502813D01*
X8966753Y-16502813D02*
X8957230Y-16483765D01*
X8957230Y-16483765D02*
X8957230Y-16407575D01*
X8957230Y-16407575D02*
X8966753Y-16388527D01*
X8966753Y-16388527D02*
X8985801Y-16379003D01*
X8985801Y-16379003D02*
X9023896Y-16379003D01*
X9023896Y-16379003D02*
X9042944Y-16388527D01*
X9042944Y-16388527D02*
X9052468Y-16407575D01*
X9052468Y-16407575D02*
X9052468Y-16426623D01*
X9052468Y-16426623D02*
X8957230Y-16445670D01*
X9128658Y-16502813D02*
X9147706Y-16512337D01*
X9147706Y-16512337D02*
X9185801Y-16512337D01*
X9185801Y-16512337D02*
X9204849Y-16502813D01*
X9204849Y-16502813D02*
X9214373Y-16483765D01*
X9214373Y-16483765D02*
X9214373Y-16474242D01*
X9214373Y-16474242D02*
X9204849Y-16455194D01*
X9204849Y-16455194D02*
X9185801Y-16445670D01*
X9185801Y-16445670D02*
X9157230Y-16445670D01*
X9157230Y-16445670D02*
X9138182Y-16436146D01*
X9138182Y-16436146D02*
X9128658Y-16417099D01*
X9128658Y-16417099D02*
X9128658Y-16407575D01*
X9128658Y-16407575D02*
X9138182Y-16388527D01*
X9138182Y-16388527D02*
X9157230Y-16379003D01*
X9157230Y-16379003D02*
X9185801Y-16379003D01*
X9185801Y-16379003D02*
X9204849Y-16388527D01*
X9281039Y-16588527D02*
X9290563Y-16579003D01*
X9290563Y-16579003D02*
X9309611Y-16550432D01*
X9309611Y-16550432D02*
X9319134Y-16531384D01*
X9319134Y-16531384D02*
X9328658Y-16502813D01*
X9328658Y-16502813D02*
X9338182Y-16455194D01*
X9338182Y-16455194D02*
X9338182Y-16417099D01*
X9338182Y-16417099D02*
X9328658Y-16369480D01*
X9328658Y-16369480D02*
X9319134Y-16340908D01*
X9319134Y-16340908D02*
X9309611Y-16321861D01*
X9309611Y-16321861D02*
X9290563Y-16293289D01*
X9290563Y-16293289D02*
X9281039Y-16283765D01*
D12*
X4275500Y-16724853D02*
X4315500Y-16684853D01*
X4275500Y-16644853D01*
X4235500Y-16684853D01*
X4275500Y-16724853D01*
D11*
X4614372Y-16576337D02*
X4633420Y-16576337D01*
X4633420Y-16576337D02*
X4652467Y-16585861D01*
X4652467Y-16585861D02*
X4661991Y-16595384D01*
X4661991Y-16595384D02*
X4671515Y-16614432D01*
X4671515Y-16614432D02*
X4681039Y-16652527D01*
X4681039Y-16652527D02*
X4681039Y-16700146D01*
X4681039Y-16700146D02*
X4671515Y-16738242D01*
X4671515Y-16738242D02*
X4661991Y-16757289D01*
X4661991Y-16757289D02*
X4652467Y-16766813D01*
X4652467Y-16766813D02*
X4633420Y-16776337D01*
X4633420Y-16776337D02*
X4614372Y-16776337D01*
X4614372Y-16776337D02*
X4595324Y-16766813D01*
X4595324Y-16766813D02*
X4585801Y-16757289D01*
X4585801Y-16757289D02*
X4576277Y-16738242D01*
X4576277Y-16738242D02*
X4566753Y-16700146D01*
X4566753Y-16700146D02*
X4566753Y-16652527D01*
X4566753Y-16652527D02*
X4576277Y-16614432D01*
X4576277Y-16614432D02*
X4585801Y-16595384D01*
X4585801Y-16595384D02*
X4595324Y-16585861D01*
X4595324Y-16585861D02*
X4614372Y-16576337D01*
X4766753Y-16757289D02*
X4776277Y-16766813D01*
X4776277Y-16766813D02*
X4766753Y-16776337D01*
X4766753Y-16776337D02*
X4757229Y-16766813D01*
X4757229Y-16766813D02*
X4766753Y-16757289D01*
X4766753Y-16757289D02*
X4766753Y-16776337D01*
X4890563Y-16662051D02*
X4871515Y-16652527D01*
X4871515Y-16652527D02*
X4861991Y-16643003D01*
X4861991Y-16643003D02*
X4852467Y-16623956D01*
X4852467Y-16623956D02*
X4852467Y-16614432D01*
X4852467Y-16614432D02*
X4861991Y-16595384D01*
X4861991Y-16595384D02*
X4871515Y-16585861D01*
X4871515Y-16585861D02*
X4890563Y-16576337D01*
X4890563Y-16576337D02*
X4928658Y-16576337D01*
X4928658Y-16576337D02*
X4947705Y-16585861D01*
X4947705Y-16585861D02*
X4957229Y-16595384D01*
X4957229Y-16595384D02*
X4966753Y-16614432D01*
X4966753Y-16614432D02*
X4966753Y-16623956D01*
X4966753Y-16623956D02*
X4957229Y-16643003D01*
X4957229Y-16643003D02*
X4947705Y-16652527D01*
X4947705Y-16652527D02*
X4928658Y-16662051D01*
X4928658Y-16662051D02*
X4890563Y-16662051D01*
X4890563Y-16662051D02*
X4871515Y-16671575D01*
X4871515Y-16671575D02*
X4861991Y-16681099D01*
X4861991Y-16681099D02*
X4852467Y-16700146D01*
X4852467Y-16700146D02*
X4852467Y-16738242D01*
X4852467Y-16738242D02*
X4861991Y-16757289D01*
X4861991Y-16757289D02*
X4871515Y-16766813D01*
X4871515Y-16766813D02*
X4890563Y-16776337D01*
X4890563Y-16776337D02*
X4928658Y-16776337D01*
X4928658Y-16776337D02*
X4947705Y-16766813D01*
X4947705Y-16766813D02*
X4957229Y-16757289D01*
X4957229Y-16757289D02*
X4966753Y-16738242D01*
X4966753Y-16738242D02*
X4966753Y-16700146D01*
X4966753Y-16700146D02*
X4957229Y-16681099D01*
X4957229Y-16681099D02*
X4947705Y-16671575D01*
X4947705Y-16671575D02*
X4928658Y-16662051D01*
X5090563Y-16576337D02*
X5109610Y-16576337D01*
X5109610Y-16576337D02*
X5128658Y-16585861D01*
X5128658Y-16585861D02*
X5138182Y-16595384D01*
X5138182Y-16595384D02*
X5147705Y-16614432D01*
X5147705Y-16614432D02*
X5157229Y-16652527D01*
X5157229Y-16652527D02*
X5157229Y-16700146D01*
X5157229Y-16700146D02*
X5147705Y-16738242D01*
X5147705Y-16738242D02*
X5138182Y-16757289D01*
X5138182Y-16757289D02*
X5128658Y-16766813D01*
X5128658Y-16766813D02*
X5109610Y-16776337D01*
X5109610Y-16776337D02*
X5090563Y-16776337D01*
X5090563Y-16776337D02*
X5071515Y-16766813D01*
X5071515Y-16766813D02*
X5061991Y-16757289D01*
X5061991Y-16757289D02*
X5052467Y-16738242D01*
X5052467Y-16738242D02*
X5042944Y-16700146D01*
X5042944Y-16700146D02*
X5042944Y-16652527D01*
X5042944Y-16652527D02*
X5052467Y-16614432D01*
X5052467Y-16614432D02*
X5061991Y-16595384D01*
X5061991Y-16595384D02*
X5071515Y-16585861D01*
X5071515Y-16585861D02*
X5090563Y-16576337D01*
X5281039Y-16576337D02*
X5300086Y-16576337D01*
X5300086Y-16576337D02*
X5319134Y-16585861D01*
X5319134Y-16585861D02*
X5328658Y-16595384D01*
X5328658Y-16595384D02*
X5338182Y-16614432D01*
X5338182Y-16614432D02*
X5347705Y-16652527D01*
X5347705Y-16652527D02*
X5347705Y-16700146D01*
X5347705Y-16700146D02*
X5338182Y-16738242D01*
X5338182Y-16738242D02*
X5328658Y-16757289D01*
X5328658Y-16757289D02*
X5319134Y-16766813D01*
X5319134Y-16766813D02*
X5300086Y-16776337D01*
X5300086Y-16776337D02*
X5281039Y-16776337D01*
X5281039Y-16776337D02*
X5261991Y-16766813D01*
X5261991Y-16766813D02*
X5252467Y-16757289D01*
X5252467Y-16757289D02*
X5242944Y-16738242D01*
X5242944Y-16738242D02*
X5233420Y-16700146D01*
X5233420Y-16700146D02*
X5233420Y-16652527D01*
X5233420Y-16652527D02*
X5242944Y-16614432D01*
X5242944Y-16614432D02*
X5252467Y-16595384D01*
X5252467Y-16595384D02*
X5261991Y-16585861D01*
X5261991Y-16585861D02*
X5281039Y-16576337D01*
X5433420Y-16776337D02*
X5433420Y-16643003D01*
X5433420Y-16662051D02*
X5442944Y-16652527D01*
X5442944Y-16652527D02*
X5461991Y-16643003D01*
X5461991Y-16643003D02*
X5490563Y-16643003D01*
X5490563Y-16643003D02*
X5509610Y-16652527D01*
X5509610Y-16652527D02*
X5519134Y-16671575D01*
X5519134Y-16671575D02*
X5519134Y-16776337D01*
X5519134Y-16671575D02*
X5528658Y-16652527D01*
X5528658Y-16652527D02*
X5547705Y-16643003D01*
X5547705Y-16643003D02*
X5576277Y-16643003D01*
X5576277Y-16643003D02*
X5595324Y-16652527D01*
X5595324Y-16652527D02*
X5604848Y-16671575D01*
X5604848Y-16671575D02*
X5604848Y-16776337D01*
X5700086Y-16776337D02*
X5700086Y-16643003D01*
X5700086Y-16662051D02*
X5709610Y-16652527D01*
X5709610Y-16652527D02*
X5728658Y-16643003D01*
X5728658Y-16643003D02*
X5757229Y-16643003D01*
X5757229Y-16643003D02*
X5776277Y-16652527D01*
X5776277Y-16652527D02*
X5785801Y-16671575D01*
X5785801Y-16671575D02*
X5785801Y-16776337D01*
X5785801Y-16671575D02*
X5795324Y-16652527D01*
X5795324Y-16652527D02*
X5814372Y-16643003D01*
X5814372Y-16643003D02*
X5842943Y-16643003D01*
X5842943Y-16643003D02*
X5861991Y-16652527D01*
X5861991Y-16652527D02*
X5871515Y-16671575D01*
X5871515Y-16671575D02*
X5871515Y-16776337D01*
X6261991Y-16566813D02*
X6090563Y-16823956D01*
X6519134Y-16576337D02*
X6538182Y-16576337D01*
X6538182Y-16576337D02*
X6557229Y-16585861D01*
X6557229Y-16585861D02*
X6566753Y-16595384D01*
X6566753Y-16595384D02*
X6576277Y-16614432D01*
X6576277Y-16614432D02*
X6585801Y-16652527D01*
X6585801Y-16652527D02*
X6585801Y-16700146D01*
X6585801Y-16700146D02*
X6576277Y-16738242D01*
X6576277Y-16738242D02*
X6566753Y-16757289D01*
X6566753Y-16757289D02*
X6557229Y-16766813D01*
X6557229Y-16766813D02*
X6538182Y-16776337D01*
X6538182Y-16776337D02*
X6519134Y-16776337D01*
X6519134Y-16776337D02*
X6500086Y-16766813D01*
X6500086Y-16766813D02*
X6490563Y-16757289D01*
X6490563Y-16757289D02*
X6481039Y-16738242D01*
X6481039Y-16738242D02*
X6471515Y-16700146D01*
X6471515Y-16700146D02*
X6471515Y-16652527D01*
X6471515Y-16652527D02*
X6481039Y-16614432D01*
X6481039Y-16614432D02*
X6490563Y-16595384D01*
X6490563Y-16595384D02*
X6500086Y-16585861D01*
X6500086Y-16585861D02*
X6519134Y-16576337D01*
X6671515Y-16757289D02*
X6681039Y-16766813D01*
X6681039Y-16766813D02*
X6671515Y-16776337D01*
X6671515Y-16776337D02*
X6661991Y-16766813D01*
X6661991Y-16766813D02*
X6671515Y-16757289D01*
X6671515Y-16757289D02*
X6671515Y-16776337D01*
X6804848Y-16576337D02*
X6823896Y-16576337D01*
X6823896Y-16576337D02*
X6842944Y-16585861D01*
X6842944Y-16585861D02*
X6852467Y-16595384D01*
X6852467Y-16595384D02*
X6861991Y-16614432D01*
X6861991Y-16614432D02*
X6871515Y-16652527D01*
X6871515Y-16652527D02*
X6871515Y-16700146D01*
X6871515Y-16700146D02*
X6861991Y-16738242D01*
X6861991Y-16738242D02*
X6852467Y-16757289D01*
X6852467Y-16757289D02*
X6842944Y-16766813D01*
X6842944Y-16766813D02*
X6823896Y-16776337D01*
X6823896Y-16776337D02*
X6804848Y-16776337D01*
X6804848Y-16776337D02*
X6785801Y-16766813D01*
X6785801Y-16766813D02*
X6776277Y-16757289D01*
X6776277Y-16757289D02*
X6766753Y-16738242D01*
X6766753Y-16738242D02*
X6757229Y-16700146D01*
X6757229Y-16700146D02*
X6757229Y-16652527D01*
X6757229Y-16652527D02*
X6766753Y-16614432D01*
X6766753Y-16614432D02*
X6776277Y-16595384D01*
X6776277Y-16595384D02*
X6785801Y-16585861D01*
X6785801Y-16585861D02*
X6804848Y-16576337D01*
X6938182Y-16576337D02*
X7061991Y-16576337D01*
X7061991Y-16576337D02*
X6995325Y-16652527D01*
X6995325Y-16652527D02*
X7023896Y-16652527D01*
X7023896Y-16652527D02*
X7042944Y-16662051D01*
X7042944Y-16662051D02*
X7052467Y-16671575D01*
X7052467Y-16671575D02*
X7061991Y-16690623D01*
X7061991Y-16690623D02*
X7061991Y-16738242D01*
X7061991Y-16738242D02*
X7052467Y-16757289D01*
X7052467Y-16757289D02*
X7042944Y-16766813D01*
X7042944Y-16766813D02*
X7023896Y-16776337D01*
X7023896Y-16776337D02*
X6966753Y-16776337D01*
X6966753Y-16776337D02*
X6947706Y-16766813D01*
X6947706Y-16766813D02*
X6938182Y-16757289D01*
X7252467Y-16776337D02*
X7138182Y-16776337D01*
X7195325Y-16776337D02*
X7195325Y-16576337D01*
X7195325Y-16576337D02*
X7176277Y-16604908D01*
X7176277Y-16604908D02*
X7157229Y-16623956D01*
X7157229Y-16623956D02*
X7138182Y-16633480D01*
X7433420Y-16576337D02*
X7338182Y-16576337D01*
X7338182Y-16576337D02*
X7328658Y-16671575D01*
X7328658Y-16671575D02*
X7338182Y-16662051D01*
X7338182Y-16662051D02*
X7357229Y-16652527D01*
X7357229Y-16652527D02*
X7404848Y-16652527D01*
X7404848Y-16652527D02*
X7423896Y-16662051D01*
X7423896Y-16662051D02*
X7433420Y-16671575D01*
X7433420Y-16671575D02*
X7442944Y-16690623D01*
X7442944Y-16690623D02*
X7442944Y-16738242D01*
X7442944Y-16738242D02*
X7433420Y-16757289D01*
X7433420Y-16757289D02*
X7423896Y-16766813D01*
X7423896Y-16766813D02*
X7404848Y-16776337D01*
X7404848Y-16776337D02*
X7357229Y-16776337D01*
X7357229Y-16776337D02*
X7338182Y-16766813D01*
X7338182Y-16766813D02*
X7328658Y-16757289D01*
X7519134Y-16576337D02*
X7519134Y-16614432D01*
X7595325Y-16576337D02*
X7595325Y-16614432D01*
X7890563Y-16852527D02*
X7881039Y-16843004D01*
X7881039Y-16843004D02*
X7861991Y-16814432D01*
X7861991Y-16814432D02*
X7852468Y-16795385D01*
X7852468Y-16795385D02*
X7842944Y-16766813D01*
X7842944Y-16766813D02*
X7833420Y-16719194D01*
X7833420Y-16719194D02*
X7833420Y-16681099D01*
X7833420Y-16681099D02*
X7842944Y-16633480D01*
X7842944Y-16633480D02*
X7852468Y-16604908D01*
X7852468Y-16604908D02*
X7861991Y-16585861D01*
X7861991Y-16585861D02*
X7881039Y-16557289D01*
X7881039Y-16557289D02*
X7890563Y-16547765D01*
X8061991Y-16576337D02*
X7966753Y-16576337D01*
X7966753Y-16576337D02*
X7957229Y-16671575D01*
X7957229Y-16671575D02*
X7966753Y-16662051D01*
X7966753Y-16662051D02*
X7985801Y-16652527D01*
X7985801Y-16652527D02*
X8033420Y-16652527D01*
X8033420Y-16652527D02*
X8052468Y-16662051D01*
X8052468Y-16662051D02*
X8061991Y-16671575D01*
X8061991Y-16671575D02*
X8071515Y-16690623D01*
X8071515Y-16690623D02*
X8071515Y-16738242D01*
X8071515Y-16738242D02*
X8061991Y-16757289D01*
X8061991Y-16757289D02*
X8052468Y-16766813D01*
X8052468Y-16766813D02*
X8033420Y-16776337D01*
X8033420Y-16776337D02*
X7985801Y-16776337D01*
X7985801Y-16776337D02*
X7966753Y-16766813D01*
X7966753Y-16766813D02*
X7957229Y-16757289D01*
X8242944Y-16643003D02*
X8242944Y-16776337D01*
X8195325Y-16566813D02*
X8147706Y-16709670D01*
X8147706Y-16709670D02*
X8271515Y-16709670D01*
X8500087Y-16776337D02*
X8500087Y-16576337D01*
X8585801Y-16776337D02*
X8585801Y-16671575D01*
X8585801Y-16671575D02*
X8576277Y-16652527D01*
X8576277Y-16652527D02*
X8557230Y-16643003D01*
X8557230Y-16643003D02*
X8528658Y-16643003D01*
X8528658Y-16643003D02*
X8509611Y-16652527D01*
X8509611Y-16652527D02*
X8500087Y-16662051D01*
X8709611Y-16776337D02*
X8690563Y-16766813D01*
X8690563Y-16766813D02*
X8681039Y-16757289D01*
X8681039Y-16757289D02*
X8671515Y-16738242D01*
X8671515Y-16738242D02*
X8671515Y-16681099D01*
X8671515Y-16681099D02*
X8681039Y-16662051D01*
X8681039Y-16662051D02*
X8690563Y-16652527D01*
X8690563Y-16652527D02*
X8709611Y-16643003D01*
X8709611Y-16643003D02*
X8738182Y-16643003D01*
X8738182Y-16643003D02*
X8757230Y-16652527D01*
X8757230Y-16652527D02*
X8766753Y-16662051D01*
X8766753Y-16662051D02*
X8776277Y-16681099D01*
X8776277Y-16681099D02*
X8776277Y-16738242D01*
X8776277Y-16738242D02*
X8766753Y-16757289D01*
X8766753Y-16757289D02*
X8757230Y-16766813D01*
X8757230Y-16766813D02*
X8738182Y-16776337D01*
X8738182Y-16776337D02*
X8709611Y-16776337D01*
X8890563Y-16776337D02*
X8871515Y-16766813D01*
X8871515Y-16766813D02*
X8861992Y-16747765D01*
X8861992Y-16747765D02*
X8861992Y-16576337D01*
X9042944Y-16766813D02*
X9023896Y-16776337D01*
X9023896Y-16776337D02*
X8985801Y-16776337D01*
X8985801Y-16776337D02*
X8966753Y-16766813D01*
X8966753Y-16766813D02*
X8957230Y-16747765D01*
X8957230Y-16747765D02*
X8957230Y-16671575D01*
X8957230Y-16671575D02*
X8966753Y-16652527D01*
X8966753Y-16652527D02*
X8985801Y-16643003D01*
X8985801Y-16643003D02*
X9023896Y-16643003D01*
X9023896Y-16643003D02*
X9042944Y-16652527D01*
X9042944Y-16652527D02*
X9052468Y-16671575D01*
X9052468Y-16671575D02*
X9052468Y-16690623D01*
X9052468Y-16690623D02*
X8957230Y-16709670D01*
X9128658Y-16766813D02*
X9147706Y-16776337D01*
X9147706Y-16776337D02*
X9185801Y-16776337D01*
X9185801Y-16776337D02*
X9204849Y-16766813D01*
X9204849Y-16766813D02*
X9214373Y-16747765D01*
X9214373Y-16747765D02*
X9214373Y-16738242D01*
X9214373Y-16738242D02*
X9204849Y-16719194D01*
X9204849Y-16719194D02*
X9185801Y-16709670D01*
X9185801Y-16709670D02*
X9157230Y-16709670D01*
X9157230Y-16709670D02*
X9138182Y-16700146D01*
X9138182Y-16700146D02*
X9128658Y-16681099D01*
X9128658Y-16681099D02*
X9128658Y-16671575D01*
X9128658Y-16671575D02*
X9138182Y-16652527D01*
X9138182Y-16652527D02*
X9157230Y-16643003D01*
X9157230Y-16643003D02*
X9185801Y-16643003D01*
X9185801Y-16643003D02*
X9204849Y-16652527D01*
X9281039Y-16852527D02*
X9290563Y-16843004D01*
X9290563Y-16843004D02*
X9309611Y-16814432D01*
X9309611Y-16814432D02*
X9319134Y-16795385D01*
X9319134Y-16795385D02*
X9328658Y-16766813D01*
X9328658Y-16766813D02*
X9338182Y-16719194D01*
X9338182Y-16719194D02*
X9338182Y-16681099D01*
X9338182Y-16681099D02*
X9328658Y-16633480D01*
X9328658Y-16633480D02*
X9319134Y-16604908D01*
X9319134Y-16604908D02*
X9309611Y-16585861D01*
X9309611Y-16585861D02*
X9290563Y-16557289D01*
X9290563Y-16557289D02*
X9281039Y-16547765D01*
D12*
X4215500Y-16898853D02*
X4315500Y-16998853D01*
X4315500Y-16898853D02*
X4215500Y-16998853D01*
X4315500Y-16948853D02*
G75*
G02*
X4215500Y-16948853I-50000J0D01*
G01*
X4215500Y-16948853D02*
G75*
G02*
X4315500Y-16948853I50000J0D01*
G01*
D11*
X4681039Y-17040337D02*
X4566753Y-17040337D01*
X4623896Y-17040337D02*
X4623896Y-16840337D01*
X4623896Y-16840337D02*
X4604848Y-16868908D01*
X4604848Y-16868908D02*
X4585801Y-16887956D01*
X4585801Y-16887956D02*
X4566753Y-16897480D01*
X4766753Y-17021289D02*
X4776277Y-17030813D01*
X4776277Y-17030813D02*
X4766753Y-17040337D01*
X4766753Y-17040337D02*
X4757229Y-17030813D01*
X4757229Y-17030813D02*
X4766753Y-17021289D01*
X4766753Y-17021289D02*
X4766753Y-17040337D01*
X4900086Y-16840337D02*
X4919134Y-16840337D01*
X4919134Y-16840337D02*
X4938182Y-16849861D01*
X4938182Y-16849861D02*
X4947705Y-16859385D01*
X4947705Y-16859385D02*
X4957229Y-16878432D01*
X4957229Y-16878432D02*
X4966753Y-16916527D01*
X4966753Y-16916527D02*
X4966753Y-16964146D01*
X4966753Y-16964146D02*
X4957229Y-17002242D01*
X4957229Y-17002242D02*
X4947705Y-17021289D01*
X4947705Y-17021289D02*
X4938182Y-17030813D01*
X4938182Y-17030813D02*
X4919134Y-17040337D01*
X4919134Y-17040337D02*
X4900086Y-17040337D01*
X4900086Y-17040337D02*
X4881039Y-17030813D01*
X4881039Y-17030813D02*
X4871515Y-17021289D01*
X4871515Y-17021289D02*
X4861991Y-17002242D01*
X4861991Y-17002242D02*
X4852467Y-16964146D01*
X4852467Y-16964146D02*
X4852467Y-16916527D01*
X4852467Y-16916527D02*
X4861991Y-16878432D01*
X4861991Y-16878432D02*
X4871515Y-16859385D01*
X4871515Y-16859385D02*
X4881039Y-16849861D01*
X4881039Y-16849861D02*
X4900086Y-16840337D01*
X5090563Y-16840337D02*
X5109610Y-16840337D01*
X5109610Y-16840337D02*
X5128658Y-16849861D01*
X5128658Y-16849861D02*
X5138182Y-16859385D01*
X5138182Y-16859385D02*
X5147705Y-16878432D01*
X5147705Y-16878432D02*
X5157229Y-16916527D01*
X5157229Y-16916527D02*
X5157229Y-16964146D01*
X5157229Y-16964146D02*
X5147705Y-17002242D01*
X5147705Y-17002242D02*
X5138182Y-17021289D01*
X5138182Y-17021289D02*
X5128658Y-17030813D01*
X5128658Y-17030813D02*
X5109610Y-17040337D01*
X5109610Y-17040337D02*
X5090563Y-17040337D01*
X5090563Y-17040337D02*
X5071515Y-17030813D01*
X5071515Y-17030813D02*
X5061991Y-17021289D01*
X5061991Y-17021289D02*
X5052467Y-17002242D01*
X5052467Y-17002242D02*
X5042944Y-16964146D01*
X5042944Y-16964146D02*
X5042944Y-16916527D01*
X5042944Y-16916527D02*
X5052467Y-16878432D01*
X5052467Y-16878432D02*
X5061991Y-16859385D01*
X5061991Y-16859385D02*
X5071515Y-16849861D01*
X5071515Y-16849861D02*
X5090563Y-16840337D01*
X5281039Y-16840337D02*
X5300086Y-16840337D01*
X5300086Y-16840337D02*
X5319134Y-16849861D01*
X5319134Y-16849861D02*
X5328658Y-16859385D01*
X5328658Y-16859385D02*
X5338182Y-16878432D01*
X5338182Y-16878432D02*
X5347705Y-16916527D01*
X5347705Y-16916527D02*
X5347705Y-16964146D01*
X5347705Y-16964146D02*
X5338182Y-17002242D01*
X5338182Y-17002242D02*
X5328658Y-17021289D01*
X5328658Y-17021289D02*
X5319134Y-17030813D01*
X5319134Y-17030813D02*
X5300086Y-17040337D01*
X5300086Y-17040337D02*
X5281039Y-17040337D01*
X5281039Y-17040337D02*
X5261991Y-17030813D01*
X5261991Y-17030813D02*
X5252467Y-17021289D01*
X5252467Y-17021289D02*
X5242944Y-17002242D01*
X5242944Y-17002242D02*
X5233420Y-16964146D01*
X5233420Y-16964146D02*
X5233420Y-16916527D01*
X5233420Y-16916527D02*
X5242944Y-16878432D01*
X5242944Y-16878432D02*
X5252467Y-16859385D01*
X5252467Y-16859385D02*
X5261991Y-16849861D01*
X5261991Y-16849861D02*
X5281039Y-16840337D01*
X5433420Y-17040337D02*
X5433420Y-16907004D01*
X5433420Y-16926051D02*
X5442944Y-16916527D01*
X5442944Y-16916527D02*
X5461991Y-16907004D01*
X5461991Y-16907004D02*
X5490563Y-16907004D01*
X5490563Y-16907004D02*
X5509610Y-16916527D01*
X5509610Y-16916527D02*
X5519134Y-16935575D01*
X5519134Y-16935575D02*
X5519134Y-17040337D01*
X5519134Y-16935575D02*
X5528658Y-16916527D01*
X5528658Y-16916527D02*
X5547705Y-16907004D01*
X5547705Y-16907004D02*
X5576277Y-16907004D01*
X5576277Y-16907004D02*
X5595324Y-16916527D01*
X5595324Y-16916527D02*
X5604848Y-16935575D01*
X5604848Y-16935575D02*
X5604848Y-17040337D01*
X5700086Y-17040337D02*
X5700086Y-16907004D01*
X5700086Y-16926051D02*
X5709610Y-16916527D01*
X5709610Y-16916527D02*
X5728658Y-16907004D01*
X5728658Y-16907004D02*
X5757229Y-16907004D01*
X5757229Y-16907004D02*
X5776277Y-16916527D01*
X5776277Y-16916527D02*
X5785801Y-16935575D01*
X5785801Y-16935575D02*
X5785801Y-17040337D01*
X5785801Y-16935575D02*
X5795324Y-16916527D01*
X5795324Y-16916527D02*
X5814372Y-16907004D01*
X5814372Y-16907004D02*
X5842943Y-16907004D01*
X5842943Y-16907004D02*
X5861991Y-16916527D01*
X5861991Y-16916527D02*
X5871515Y-16935575D01*
X5871515Y-16935575D02*
X5871515Y-17040337D01*
X6261991Y-16830813D02*
X6090563Y-17087956D01*
X6519134Y-16840337D02*
X6538182Y-16840337D01*
X6538182Y-16840337D02*
X6557229Y-16849861D01*
X6557229Y-16849861D02*
X6566753Y-16859385D01*
X6566753Y-16859385D02*
X6576277Y-16878432D01*
X6576277Y-16878432D02*
X6585801Y-16916527D01*
X6585801Y-16916527D02*
X6585801Y-16964146D01*
X6585801Y-16964146D02*
X6576277Y-17002242D01*
X6576277Y-17002242D02*
X6566753Y-17021289D01*
X6566753Y-17021289D02*
X6557229Y-17030813D01*
X6557229Y-17030813D02*
X6538182Y-17040337D01*
X6538182Y-17040337D02*
X6519134Y-17040337D01*
X6519134Y-17040337D02*
X6500086Y-17030813D01*
X6500086Y-17030813D02*
X6490563Y-17021289D01*
X6490563Y-17021289D02*
X6481039Y-17002242D01*
X6481039Y-17002242D02*
X6471515Y-16964146D01*
X6471515Y-16964146D02*
X6471515Y-16916527D01*
X6471515Y-16916527D02*
X6481039Y-16878432D01*
X6481039Y-16878432D02*
X6490563Y-16859385D01*
X6490563Y-16859385D02*
X6500086Y-16849861D01*
X6500086Y-16849861D02*
X6519134Y-16840337D01*
X6671515Y-17021289D02*
X6681039Y-17030813D01*
X6681039Y-17030813D02*
X6671515Y-17040337D01*
X6671515Y-17040337D02*
X6661991Y-17030813D01*
X6661991Y-17030813D02*
X6671515Y-17021289D01*
X6671515Y-17021289D02*
X6671515Y-17040337D01*
X6804848Y-16840337D02*
X6823896Y-16840337D01*
X6823896Y-16840337D02*
X6842944Y-16849861D01*
X6842944Y-16849861D02*
X6852467Y-16859385D01*
X6852467Y-16859385D02*
X6861991Y-16878432D01*
X6861991Y-16878432D02*
X6871515Y-16916527D01*
X6871515Y-16916527D02*
X6871515Y-16964146D01*
X6871515Y-16964146D02*
X6861991Y-17002242D01*
X6861991Y-17002242D02*
X6852467Y-17021289D01*
X6852467Y-17021289D02*
X6842944Y-17030813D01*
X6842944Y-17030813D02*
X6823896Y-17040337D01*
X6823896Y-17040337D02*
X6804848Y-17040337D01*
X6804848Y-17040337D02*
X6785801Y-17030813D01*
X6785801Y-17030813D02*
X6776277Y-17021289D01*
X6776277Y-17021289D02*
X6766753Y-17002242D01*
X6766753Y-17002242D02*
X6757229Y-16964146D01*
X6757229Y-16964146D02*
X6757229Y-16916527D01*
X6757229Y-16916527D02*
X6766753Y-16878432D01*
X6766753Y-16878432D02*
X6776277Y-16859385D01*
X6776277Y-16859385D02*
X6785801Y-16849861D01*
X6785801Y-16849861D02*
X6804848Y-16840337D01*
X6938182Y-16840337D02*
X7061991Y-16840337D01*
X7061991Y-16840337D02*
X6995325Y-16916527D01*
X6995325Y-16916527D02*
X7023896Y-16916527D01*
X7023896Y-16916527D02*
X7042944Y-16926051D01*
X7042944Y-16926051D02*
X7052467Y-16935575D01*
X7052467Y-16935575D02*
X7061991Y-16954623D01*
X7061991Y-16954623D02*
X7061991Y-17002242D01*
X7061991Y-17002242D02*
X7052467Y-17021289D01*
X7052467Y-17021289D02*
X7042944Y-17030813D01*
X7042944Y-17030813D02*
X7023896Y-17040337D01*
X7023896Y-17040337D02*
X6966753Y-17040337D01*
X6966753Y-17040337D02*
X6947706Y-17030813D01*
X6947706Y-17030813D02*
X6938182Y-17021289D01*
X7157229Y-17040337D02*
X7195325Y-17040337D01*
X7195325Y-17040337D02*
X7214372Y-17030813D01*
X7214372Y-17030813D02*
X7223896Y-17021289D01*
X7223896Y-17021289D02*
X7242944Y-16992718D01*
X7242944Y-16992718D02*
X7252467Y-16954623D01*
X7252467Y-16954623D02*
X7252467Y-16878432D01*
X7252467Y-16878432D02*
X7242944Y-16859385D01*
X7242944Y-16859385D02*
X7233420Y-16849861D01*
X7233420Y-16849861D02*
X7214372Y-16840337D01*
X7214372Y-16840337D02*
X7176277Y-16840337D01*
X7176277Y-16840337D02*
X7157229Y-16849861D01*
X7157229Y-16849861D02*
X7147706Y-16859385D01*
X7147706Y-16859385D02*
X7138182Y-16878432D01*
X7138182Y-16878432D02*
X7138182Y-16926051D01*
X7138182Y-16926051D02*
X7147706Y-16945099D01*
X7147706Y-16945099D02*
X7157229Y-16954623D01*
X7157229Y-16954623D02*
X7176277Y-16964146D01*
X7176277Y-16964146D02*
X7214372Y-16964146D01*
X7214372Y-16964146D02*
X7233420Y-16954623D01*
X7233420Y-16954623D02*
X7242944Y-16945099D01*
X7242944Y-16945099D02*
X7252467Y-16926051D01*
X7423896Y-16907004D02*
X7423896Y-17040337D01*
X7376277Y-16830813D02*
X7328658Y-16973670D01*
X7328658Y-16973670D02*
X7452467Y-16973670D01*
X7519134Y-16840337D02*
X7519134Y-16878432D01*
X7595325Y-16840337D02*
X7595325Y-16878432D01*
X7890563Y-17116527D02*
X7881039Y-17107004D01*
X7881039Y-17107004D02*
X7861991Y-17078432D01*
X7861991Y-17078432D02*
X7852468Y-17059385D01*
X7852468Y-17059385D02*
X7842944Y-17030813D01*
X7842944Y-17030813D02*
X7833420Y-16983194D01*
X7833420Y-16983194D02*
X7833420Y-16945099D01*
X7833420Y-16945099D02*
X7842944Y-16897480D01*
X7842944Y-16897480D02*
X7852468Y-16868908D01*
X7852468Y-16868908D02*
X7861991Y-16849861D01*
X7861991Y-16849861D02*
X7881039Y-16821289D01*
X7881039Y-16821289D02*
X7890563Y-16811765D01*
X8071515Y-17040337D02*
X7957229Y-17040337D01*
X8014372Y-17040337D02*
X8014372Y-16840337D01*
X8014372Y-16840337D02*
X7995325Y-16868908D01*
X7995325Y-16868908D02*
X7976277Y-16887956D01*
X7976277Y-16887956D02*
X7957229Y-16897480D01*
X8138182Y-16840337D02*
X8271515Y-16840337D01*
X8271515Y-16840337D02*
X8185801Y-17040337D01*
X8500087Y-17040337D02*
X8500087Y-16840337D01*
X8585801Y-17040337D02*
X8585801Y-16935575D01*
X8585801Y-16935575D02*
X8576277Y-16916527D01*
X8576277Y-16916527D02*
X8557230Y-16907004D01*
X8557230Y-16907004D02*
X8528658Y-16907004D01*
X8528658Y-16907004D02*
X8509611Y-16916527D01*
X8509611Y-16916527D02*
X8500087Y-16926051D01*
X8709611Y-17040337D02*
X8690563Y-17030813D01*
X8690563Y-17030813D02*
X8681039Y-17021289D01*
X8681039Y-17021289D02*
X8671515Y-17002242D01*
X8671515Y-17002242D02*
X8671515Y-16945099D01*
X8671515Y-16945099D02*
X8681039Y-16926051D01*
X8681039Y-16926051D02*
X8690563Y-16916527D01*
X8690563Y-16916527D02*
X8709611Y-16907004D01*
X8709611Y-16907004D02*
X8738182Y-16907004D01*
X8738182Y-16907004D02*
X8757230Y-16916527D01*
X8757230Y-16916527D02*
X8766753Y-16926051D01*
X8766753Y-16926051D02*
X8776277Y-16945099D01*
X8776277Y-16945099D02*
X8776277Y-17002242D01*
X8776277Y-17002242D02*
X8766753Y-17021289D01*
X8766753Y-17021289D02*
X8757230Y-17030813D01*
X8757230Y-17030813D02*
X8738182Y-17040337D01*
X8738182Y-17040337D02*
X8709611Y-17040337D01*
X8890563Y-17040337D02*
X8871515Y-17030813D01*
X8871515Y-17030813D02*
X8861992Y-17011765D01*
X8861992Y-17011765D02*
X8861992Y-16840337D01*
X9042944Y-17030813D02*
X9023896Y-17040337D01*
X9023896Y-17040337D02*
X8985801Y-17040337D01*
X8985801Y-17040337D02*
X8966753Y-17030813D01*
X8966753Y-17030813D02*
X8957230Y-17011765D01*
X8957230Y-17011765D02*
X8957230Y-16935575D01*
X8957230Y-16935575D02*
X8966753Y-16916527D01*
X8966753Y-16916527D02*
X8985801Y-16907004D01*
X8985801Y-16907004D02*
X9023896Y-16907004D01*
X9023896Y-16907004D02*
X9042944Y-16916527D01*
X9042944Y-16916527D02*
X9052468Y-16935575D01*
X9052468Y-16935575D02*
X9052468Y-16954623D01*
X9052468Y-16954623D02*
X8957230Y-16973670D01*
X9128658Y-17030813D02*
X9147706Y-17040337D01*
X9147706Y-17040337D02*
X9185801Y-17040337D01*
X9185801Y-17040337D02*
X9204849Y-17030813D01*
X9204849Y-17030813D02*
X9214373Y-17011765D01*
X9214373Y-17011765D02*
X9214373Y-17002242D01*
X9214373Y-17002242D02*
X9204849Y-16983194D01*
X9204849Y-16983194D02*
X9185801Y-16973670D01*
X9185801Y-16973670D02*
X9157230Y-16973670D01*
X9157230Y-16973670D02*
X9138182Y-16964146D01*
X9138182Y-16964146D02*
X9128658Y-16945099D01*
X9128658Y-16945099D02*
X9128658Y-16935575D01*
X9128658Y-16935575D02*
X9138182Y-16916527D01*
X9138182Y-16916527D02*
X9157230Y-16907004D01*
X9157230Y-16907004D02*
X9185801Y-16907004D01*
X9185801Y-16907004D02*
X9204849Y-16916527D01*
X9281039Y-17116527D02*
X9290563Y-17107004D01*
X9290563Y-17107004D02*
X9309611Y-17078432D01*
X9309611Y-17078432D02*
X9319134Y-17059385D01*
X9319134Y-17059385D02*
X9328658Y-17030813D01*
X9328658Y-17030813D02*
X9338182Y-16983194D01*
X9338182Y-16983194D02*
X9338182Y-16945099D01*
X9338182Y-16945099D02*
X9328658Y-16897480D01*
X9328658Y-16897480D02*
X9319134Y-16868908D01*
X9319134Y-16868908D02*
X9309611Y-16849861D01*
X9309611Y-16849861D02*
X9290563Y-16821289D01*
X9290563Y-16821289D02*
X9281039Y-16811765D01*
D13*
X4205500Y-17157853D02*
X4315500Y-17267853D01*
X4315500Y-17157853D02*
X4205500Y-17267853D01*
X4260500Y-17157853D02*
X4260500Y-17267853D01*
X4205500Y-17212853D02*
X4315500Y-17212853D01*
D11*
X4681039Y-17304337D02*
X4566753Y-17304337D01*
X4623896Y-17304337D02*
X4623896Y-17104337D01*
X4623896Y-17104337D02*
X4604848Y-17132908D01*
X4604848Y-17132908D02*
X4585801Y-17151956D01*
X4585801Y-17151956D02*
X4566753Y-17161480D01*
X4766753Y-17285289D02*
X4776277Y-17294813D01*
X4776277Y-17294813D02*
X4766753Y-17304337D01*
X4766753Y-17304337D02*
X4757229Y-17294813D01*
X4757229Y-17294813D02*
X4766753Y-17285289D01*
X4766753Y-17285289D02*
X4766753Y-17304337D01*
X4966753Y-17304337D02*
X4852467Y-17304337D01*
X4909610Y-17304337D02*
X4909610Y-17104337D01*
X4909610Y-17104337D02*
X4890563Y-17132908D01*
X4890563Y-17132908D02*
X4871515Y-17151956D01*
X4871515Y-17151956D02*
X4852467Y-17161480D01*
X5090563Y-17104337D02*
X5109610Y-17104337D01*
X5109610Y-17104337D02*
X5128658Y-17113861D01*
X5128658Y-17113861D02*
X5138182Y-17123385D01*
X5138182Y-17123385D02*
X5147705Y-17142432D01*
X5147705Y-17142432D02*
X5157229Y-17180527D01*
X5157229Y-17180527D02*
X5157229Y-17228146D01*
X5157229Y-17228146D02*
X5147705Y-17266242D01*
X5147705Y-17266242D02*
X5138182Y-17285289D01*
X5138182Y-17285289D02*
X5128658Y-17294813D01*
X5128658Y-17294813D02*
X5109610Y-17304337D01*
X5109610Y-17304337D02*
X5090563Y-17304337D01*
X5090563Y-17304337D02*
X5071515Y-17294813D01*
X5071515Y-17294813D02*
X5061991Y-17285289D01*
X5061991Y-17285289D02*
X5052467Y-17266242D01*
X5052467Y-17266242D02*
X5042944Y-17228146D01*
X5042944Y-17228146D02*
X5042944Y-17180527D01*
X5042944Y-17180527D02*
X5052467Y-17142432D01*
X5052467Y-17142432D02*
X5061991Y-17123385D01*
X5061991Y-17123385D02*
X5071515Y-17113861D01*
X5071515Y-17113861D02*
X5090563Y-17104337D01*
X5281039Y-17104337D02*
X5300086Y-17104337D01*
X5300086Y-17104337D02*
X5319134Y-17113861D01*
X5319134Y-17113861D02*
X5328658Y-17123385D01*
X5328658Y-17123385D02*
X5338182Y-17142432D01*
X5338182Y-17142432D02*
X5347705Y-17180527D01*
X5347705Y-17180527D02*
X5347705Y-17228146D01*
X5347705Y-17228146D02*
X5338182Y-17266242D01*
X5338182Y-17266242D02*
X5328658Y-17285289D01*
X5328658Y-17285289D02*
X5319134Y-17294813D01*
X5319134Y-17294813D02*
X5300086Y-17304337D01*
X5300086Y-17304337D02*
X5281039Y-17304337D01*
X5281039Y-17304337D02*
X5261991Y-17294813D01*
X5261991Y-17294813D02*
X5252467Y-17285289D01*
X5252467Y-17285289D02*
X5242944Y-17266242D01*
X5242944Y-17266242D02*
X5233420Y-17228146D01*
X5233420Y-17228146D02*
X5233420Y-17180527D01*
X5233420Y-17180527D02*
X5242944Y-17142432D01*
X5242944Y-17142432D02*
X5252467Y-17123385D01*
X5252467Y-17123385D02*
X5261991Y-17113861D01*
X5261991Y-17113861D02*
X5281039Y-17104337D01*
X5433420Y-17304337D02*
X5433420Y-17171004D01*
X5433420Y-17190051D02*
X5442944Y-17180527D01*
X5442944Y-17180527D02*
X5461991Y-17171004D01*
X5461991Y-17171004D02*
X5490563Y-17171004D01*
X5490563Y-17171004D02*
X5509610Y-17180527D01*
X5509610Y-17180527D02*
X5519134Y-17199575D01*
X5519134Y-17199575D02*
X5519134Y-17304337D01*
X5519134Y-17199575D02*
X5528658Y-17180527D01*
X5528658Y-17180527D02*
X5547705Y-17171004D01*
X5547705Y-17171004D02*
X5576277Y-17171004D01*
X5576277Y-17171004D02*
X5595324Y-17180527D01*
X5595324Y-17180527D02*
X5604848Y-17199575D01*
X5604848Y-17199575D02*
X5604848Y-17304337D01*
X5700086Y-17304337D02*
X5700086Y-17171004D01*
X5700086Y-17190051D02*
X5709610Y-17180527D01*
X5709610Y-17180527D02*
X5728658Y-17171004D01*
X5728658Y-17171004D02*
X5757229Y-17171004D01*
X5757229Y-17171004D02*
X5776277Y-17180527D01*
X5776277Y-17180527D02*
X5785801Y-17199575D01*
X5785801Y-17199575D02*
X5785801Y-17304337D01*
X5785801Y-17199575D02*
X5795324Y-17180527D01*
X5795324Y-17180527D02*
X5814372Y-17171004D01*
X5814372Y-17171004D02*
X5842943Y-17171004D01*
X5842943Y-17171004D02*
X5861991Y-17180527D01*
X5861991Y-17180527D02*
X5871515Y-17199575D01*
X5871515Y-17199575D02*
X5871515Y-17304337D01*
X6261991Y-17094813D02*
X6090563Y-17351956D01*
X6519134Y-17104337D02*
X6538182Y-17104337D01*
X6538182Y-17104337D02*
X6557229Y-17113861D01*
X6557229Y-17113861D02*
X6566753Y-17123385D01*
X6566753Y-17123385D02*
X6576277Y-17142432D01*
X6576277Y-17142432D02*
X6585801Y-17180527D01*
X6585801Y-17180527D02*
X6585801Y-17228146D01*
X6585801Y-17228146D02*
X6576277Y-17266242D01*
X6576277Y-17266242D02*
X6566753Y-17285289D01*
X6566753Y-17285289D02*
X6557229Y-17294813D01*
X6557229Y-17294813D02*
X6538182Y-17304337D01*
X6538182Y-17304337D02*
X6519134Y-17304337D01*
X6519134Y-17304337D02*
X6500086Y-17294813D01*
X6500086Y-17294813D02*
X6490563Y-17285289D01*
X6490563Y-17285289D02*
X6481039Y-17266242D01*
X6481039Y-17266242D02*
X6471515Y-17228146D01*
X6471515Y-17228146D02*
X6471515Y-17180527D01*
X6471515Y-17180527D02*
X6481039Y-17142432D01*
X6481039Y-17142432D02*
X6490563Y-17123385D01*
X6490563Y-17123385D02*
X6500086Y-17113861D01*
X6500086Y-17113861D02*
X6519134Y-17104337D01*
X6671515Y-17285289D02*
X6681039Y-17294813D01*
X6681039Y-17294813D02*
X6671515Y-17304337D01*
X6671515Y-17304337D02*
X6661991Y-17294813D01*
X6661991Y-17294813D02*
X6671515Y-17285289D01*
X6671515Y-17285289D02*
X6671515Y-17304337D01*
X6804848Y-17104337D02*
X6823896Y-17104337D01*
X6823896Y-17104337D02*
X6842944Y-17113861D01*
X6842944Y-17113861D02*
X6852467Y-17123385D01*
X6852467Y-17123385D02*
X6861991Y-17142432D01*
X6861991Y-17142432D02*
X6871515Y-17180527D01*
X6871515Y-17180527D02*
X6871515Y-17228146D01*
X6871515Y-17228146D02*
X6861991Y-17266242D01*
X6861991Y-17266242D02*
X6852467Y-17285289D01*
X6852467Y-17285289D02*
X6842944Y-17294813D01*
X6842944Y-17294813D02*
X6823896Y-17304337D01*
X6823896Y-17304337D02*
X6804848Y-17304337D01*
X6804848Y-17304337D02*
X6785801Y-17294813D01*
X6785801Y-17294813D02*
X6776277Y-17285289D01*
X6776277Y-17285289D02*
X6766753Y-17266242D01*
X6766753Y-17266242D02*
X6757229Y-17228146D01*
X6757229Y-17228146D02*
X6757229Y-17180527D01*
X6757229Y-17180527D02*
X6766753Y-17142432D01*
X6766753Y-17142432D02*
X6776277Y-17123385D01*
X6776277Y-17123385D02*
X6785801Y-17113861D01*
X6785801Y-17113861D02*
X6804848Y-17104337D01*
X7042944Y-17171004D02*
X7042944Y-17304337D01*
X6995325Y-17094813D02*
X6947706Y-17237670D01*
X6947706Y-17237670D02*
X7071515Y-17237670D01*
X7128658Y-17104337D02*
X7252467Y-17104337D01*
X7252467Y-17104337D02*
X7185801Y-17180527D01*
X7185801Y-17180527D02*
X7214372Y-17180527D01*
X7214372Y-17180527D02*
X7233420Y-17190051D01*
X7233420Y-17190051D02*
X7242944Y-17199575D01*
X7242944Y-17199575D02*
X7252467Y-17218623D01*
X7252467Y-17218623D02*
X7252467Y-17266242D01*
X7252467Y-17266242D02*
X7242944Y-17285289D01*
X7242944Y-17285289D02*
X7233420Y-17294813D01*
X7233420Y-17294813D02*
X7214372Y-17304337D01*
X7214372Y-17304337D02*
X7157229Y-17304337D01*
X7157229Y-17304337D02*
X7138182Y-17294813D01*
X7138182Y-17294813D02*
X7128658Y-17285289D01*
X7319134Y-17104337D02*
X7442944Y-17104337D01*
X7442944Y-17104337D02*
X7376277Y-17180527D01*
X7376277Y-17180527D02*
X7404848Y-17180527D01*
X7404848Y-17180527D02*
X7423896Y-17190051D01*
X7423896Y-17190051D02*
X7433420Y-17199575D01*
X7433420Y-17199575D02*
X7442944Y-17218623D01*
X7442944Y-17218623D02*
X7442944Y-17266242D01*
X7442944Y-17266242D02*
X7433420Y-17285289D01*
X7433420Y-17285289D02*
X7423896Y-17294813D01*
X7423896Y-17294813D02*
X7404848Y-17304337D01*
X7404848Y-17304337D02*
X7347706Y-17304337D01*
X7347706Y-17304337D02*
X7328658Y-17294813D01*
X7328658Y-17294813D02*
X7319134Y-17285289D01*
X7519134Y-17104337D02*
X7519134Y-17142432D01*
X7595325Y-17104337D02*
X7595325Y-17142432D01*
X7890563Y-17380527D02*
X7881039Y-17371004D01*
X7881039Y-17371004D02*
X7861991Y-17342432D01*
X7861991Y-17342432D02*
X7852468Y-17323385D01*
X7852468Y-17323385D02*
X7842944Y-17294813D01*
X7842944Y-17294813D02*
X7833420Y-17247194D01*
X7833420Y-17247194D02*
X7833420Y-17209099D01*
X7833420Y-17209099D02*
X7842944Y-17161480D01*
X7842944Y-17161480D02*
X7852468Y-17132908D01*
X7852468Y-17132908D02*
X7861991Y-17113861D01*
X7861991Y-17113861D02*
X7881039Y-17085289D01*
X7881039Y-17085289D02*
X7890563Y-17075765D01*
X7947706Y-17104337D02*
X8071515Y-17104337D01*
X8071515Y-17104337D02*
X8004848Y-17180527D01*
X8004848Y-17180527D02*
X8033420Y-17180527D01*
X8033420Y-17180527D02*
X8052468Y-17190051D01*
X8052468Y-17190051D02*
X8061991Y-17199575D01*
X8061991Y-17199575D02*
X8071515Y-17218623D01*
X8071515Y-17218623D02*
X8071515Y-17266242D01*
X8071515Y-17266242D02*
X8061991Y-17285289D01*
X8061991Y-17285289D02*
X8052468Y-17294813D01*
X8052468Y-17294813D02*
X8033420Y-17304337D01*
X8033420Y-17304337D02*
X7976277Y-17304337D01*
X7976277Y-17304337D02*
X7957229Y-17294813D01*
X7957229Y-17294813D02*
X7947706Y-17285289D01*
X8242944Y-17104337D02*
X8204848Y-17104337D01*
X8204848Y-17104337D02*
X8185801Y-17113861D01*
X8185801Y-17113861D02*
X8176277Y-17123385D01*
X8176277Y-17123385D02*
X8157229Y-17151956D01*
X8157229Y-17151956D02*
X8147706Y-17190051D01*
X8147706Y-17190051D02*
X8147706Y-17266242D01*
X8147706Y-17266242D02*
X8157229Y-17285289D01*
X8157229Y-17285289D02*
X8166753Y-17294813D01*
X8166753Y-17294813D02*
X8185801Y-17304337D01*
X8185801Y-17304337D02*
X8223896Y-17304337D01*
X8223896Y-17304337D02*
X8242944Y-17294813D01*
X8242944Y-17294813D02*
X8252468Y-17285289D01*
X8252468Y-17285289D02*
X8261991Y-17266242D01*
X8261991Y-17266242D02*
X8261991Y-17218623D01*
X8261991Y-17218623D02*
X8252468Y-17199575D01*
X8252468Y-17199575D02*
X8242944Y-17190051D01*
X8242944Y-17190051D02*
X8223896Y-17180527D01*
X8223896Y-17180527D02*
X8185801Y-17180527D01*
X8185801Y-17180527D02*
X8166753Y-17190051D01*
X8166753Y-17190051D02*
X8157229Y-17199575D01*
X8157229Y-17199575D02*
X8147706Y-17218623D01*
X8500087Y-17304337D02*
X8500087Y-17104337D01*
X8585801Y-17304337D02*
X8585801Y-17199575D01*
X8585801Y-17199575D02*
X8576277Y-17180527D01*
X8576277Y-17180527D02*
X8557230Y-17171004D01*
X8557230Y-17171004D02*
X8528658Y-17171004D01*
X8528658Y-17171004D02*
X8509611Y-17180527D01*
X8509611Y-17180527D02*
X8500087Y-17190051D01*
X8709611Y-17304337D02*
X8690563Y-17294813D01*
X8690563Y-17294813D02*
X8681039Y-17285289D01*
X8681039Y-17285289D02*
X8671515Y-17266242D01*
X8671515Y-17266242D02*
X8671515Y-17209099D01*
X8671515Y-17209099D02*
X8681039Y-17190051D01*
X8681039Y-17190051D02*
X8690563Y-17180527D01*
X8690563Y-17180527D02*
X8709611Y-17171004D01*
X8709611Y-17171004D02*
X8738182Y-17171004D01*
X8738182Y-17171004D02*
X8757230Y-17180527D01*
X8757230Y-17180527D02*
X8766753Y-17190051D01*
X8766753Y-17190051D02*
X8776277Y-17209099D01*
X8776277Y-17209099D02*
X8776277Y-17266242D01*
X8776277Y-17266242D02*
X8766753Y-17285289D01*
X8766753Y-17285289D02*
X8757230Y-17294813D01*
X8757230Y-17294813D02*
X8738182Y-17304337D01*
X8738182Y-17304337D02*
X8709611Y-17304337D01*
X8890563Y-17304337D02*
X8871515Y-17294813D01*
X8871515Y-17294813D02*
X8861992Y-17275765D01*
X8861992Y-17275765D02*
X8861992Y-17104337D01*
X9042944Y-17294813D02*
X9023896Y-17304337D01*
X9023896Y-17304337D02*
X8985801Y-17304337D01*
X8985801Y-17304337D02*
X8966753Y-17294813D01*
X8966753Y-17294813D02*
X8957230Y-17275765D01*
X8957230Y-17275765D02*
X8957230Y-17199575D01*
X8957230Y-17199575D02*
X8966753Y-17180527D01*
X8966753Y-17180527D02*
X8985801Y-17171004D01*
X8985801Y-17171004D02*
X9023896Y-17171004D01*
X9023896Y-17171004D02*
X9042944Y-17180527D01*
X9042944Y-17180527D02*
X9052468Y-17199575D01*
X9052468Y-17199575D02*
X9052468Y-17218623D01*
X9052468Y-17218623D02*
X8957230Y-17237670D01*
X9128658Y-17294813D02*
X9147706Y-17304337D01*
X9147706Y-17304337D02*
X9185801Y-17304337D01*
X9185801Y-17304337D02*
X9204849Y-17294813D01*
X9204849Y-17294813D02*
X9214373Y-17275765D01*
X9214373Y-17275765D02*
X9214373Y-17266242D01*
X9214373Y-17266242D02*
X9204849Y-17247194D01*
X9204849Y-17247194D02*
X9185801Y-17237670D01*
X9185801Y-17237670D02*
X9157230Y-17237670D01*
X9157230Y-17237670D02*
X9138182Y-17228146D01*
X9138182Y-17228146D02*
X9128658Y-17209099D01*
X9128658Y-17209099D02*
X9128658Y-17199575D01*
X9128658Y-17199575D02*
X9138182Y-17180527D01*
X9138182Y-17180527D02*
X9157230Y-17171004D01*
X9157230Y-17171004D02*
X9185801Y-17171004D01*
X9185801Y-17171004D02*
X9204849Y-17180527D01*
X9281039Y-17380527D02*
X9290563Y-17371004D01*
X9290563Y-17371004D02*
X9309611Y-17342432D01*
X9309611Y-17342432D02*
X9319134Y-17323385D01*
X9319134Y-17323385D02*
X9328658Y-17294813D01*
X9328658Y-17294813D02*
X9338182Y-17247194D01*
X9338182Y-17247194D02*
X9338182Y-17209099D01*
X9338182Y-17209099D02*
X9328658Y-17161480D01*
X9328658Y-17161480D02*
X9319134Y-17132908D01*
X9319134Y-17132908D02*
X9309611Y-17113861D01*
X9309611Y-17113861D02*
X9290563Y-17085289D01*
X9290563Y-17085289D02*
X9281039Y-17075765D01*
X4115500Y-17376853D02*
X4315500Y-17576853D01*
X4315500Y-17376853D02*
X4115500Y-17576853D01*
X4286211Y-17547565D02*
X4286211Y-17406142D01*
X4144789Y-17406142D01*
X4144789Y-17547565D01*
X4286211Y-17547565D01*
X4566753Y-17387385D02*
X4576277Y-17377861D01*
X4576277Y-17377861D02*
X4595324Y-17368337D01*
X4595324Y-17368337D02*
X4642944Y-17368337D01*
X4642944Y-17368337D02*
X4661991Y-17377861D01*
X4661991Y-17377861D02*
X4671515Y-17387385D01*
X4671515Y-17387385D02*
X4681039Y-17406432D01*
X4681039Y-17406432D02*
X4681039Y-17425480D01*
X4681039Y-17425480D02*
X4671515Y-17454051D01*
X4671515Y-17454051D02*
X4557229Y-17568337D01*
X4557229Y-17568337D02*
X4681039Y-17568337D01*
X4766753Y-17549289D02*
X4776277Y-17558813D01*
X4776277Y-17558813D02*
X4766753Y-17568337D01*
X4766753Y-17568337D02*
X4757229Y-17558813D01*
X4757229Y-17558813D02*
X4766753Y-17549289D01*
X4766753Y-17549289D02*
X4766753Y-17568337D01*
X4852467Y-17387385D02*
X4861991Y-17377861D01*
X4861991Y-17377861D02*
X4881039Y-17368337D01*
X4881039Y-17368337D02*
X4928658Y-17368337D01*
X4928658Y-17368337D02*
X4947705Y-17377861D01*
X4947705Y-17377861D02*
X4957229Y-17387385D01*
X4957229Y-17387385D02*
X4966753Y-17406432D01*
X4966753Y-17406432D02*
X4966753Y-17425480D01*
X4966753Y-17425480D02*
X4957229Y-17454051D01*
X4957229Y-17454051D02*
X4842944Y-17568337D01*
X4842944Y-17568337D02*
X4966753Y-17568337D01*
X5090563Y-17368337D02*
X5109610Y-17368337D01*
X5109610Y-17368337D02*
X5128658Y-17377861D01*
X5128658Y-17377861D02*
X5138182Y-17387385D01*
X5138182Y-17387385D02*
X5147705Y-17406432D01*
X5147705Y-17406432D02*
X5157229Y-17444527D01*
X5157229Y-17444527D02*
X5157229Y-17492146D01*
X5157229Y-17492146D02*
X5147705Y-17530242D01*
X5147705Y-17530242D02*
X5138182Y-17549289D01*
X5138182Y-17549289D02*
X5128658Y-17558813D01*
X5128658Y-17558813D02*
X5109610Y-17568337D01*
X5109610Y-17568337D02*
X5090563Y-17568337D01*
X5090563Y-17568337D02*
X5071515Y-17558813D01*
X5071515Y-17558813D02*
X5061991Y-17549289D01*
X5061991Y-17549289D02*
X5052467Y-17530242D01*
X5052467Y-17530242D02*
X5042944Y-17492146D01*
X5042944Y-17492146D02*
X5042944Y-17444527D01*
X5042944Y-17444527D02*
X5052467Y-17406432D01*
X5052467Y-17406432D02*
X5061991Y-17387385D01*
X5061991Y-17387385D02*
X5071515Y-17377861D01*
X5071515Y-17377861D02*
X5090563Y-17368337D01*
X5281039Y-17368337D02*
X5300086Y-17368337D01*
X5300086Y-17368337D02*
X5319134Y-17377861D01*
X5319134Y-17377861D02*
X5328658Y-17387385D01*
X5328658Y-17387385D02*
X5338182Y-17406432D01*
X5338182Y-17406432D02*
X5347705Y-17444527D01*
X5347705Y-17444527D02*
X5347705Y-17492146D01*
X5347705Y-17492146D02*
X5338182Y-17530242D01*
X5338182Y-17530242D02*
X5328658Y-17549289D01*
X5328658Y-17549289D02*
X5319134Y-17558813D01*
X5319134Y-17558813D02*
X5300086Y-17568337D01*
X5300086Y-17568337D02*
X5281039Y-17568337D01*
X5281039Y-17568337D02*
X5261991Y-17558813D01*
X5261991Y-17558813D02*
X5252467Y-17549289D01*
X5252467Y-17549289D02*
X5242944Y-17530242D01*
X5242944Y-17530242D02*
X5233420Y-17492146D01*
X5233420Y-17492146D02*
X5233420Y-17444527D01*
X5233420Y-17444527D02*
X5242944Y-17406432D01*
X5242944Y-17406432D02*
X5252467Y-17387385D01*
X5252467Y-17387385D02*
X5261991Y-17377861D01*
X5261991Y-17377861D02*
X5281039Y-17368337D01*
X5433420Y-17568337D02*
X5433420Y-17435004D01*
X5433420Y-17454051D02*
X5442944Y-17444527D01*
X5442944Y-17444527D02*
X5461991Y-17435004D01*
X5461991Y-17435004D02*
X5490563Y-17435004D01*
X5490563Y-17435004D02*
X5509610Y-17444527D01*
X5509610Y-17444527D02*
X5519134Y-17463575D01*
X5519134Y-17463575D02*
X5519134Y-17568337D01*
X5519134Y-17463575D02*
X5528658Y-17444527D01*
X5528658Y-17444527D02*
X5547705Y-17435004D01*
X5547705Y-17435004D02*
X5576277Y-17435004D01*
X5576277Y-17435004D02*
X5595324Y-17444527D01*
X5595324Y-17444527D02*
X5604848Y-17463575D01*
X5604848Y-17463575D02*
X5604848Y-17568337D01*
X5700086Y-17568337D02*
X5700086Y-17435004D01*
X5700086Y-17454051D02*
X5709610Y-17444527D01*
X5709610Y-17444527D02*
X5728658Y-17435004D01*
X5728658Y-17435004D02*
X5757229Y-17435004D01*
X5757229Y-17435004D02*
X5776277Y-17444527D01*
X5776277Y-17444527D02*
X5785801Y-17463575D01*
X5785801Y-17463575D02*
X5785801Y-17568337D01*
X5785801Y-17463575D02*
X5795324Y-17444527D01*
X5795324Y-17444527D02*
X5814372Y-17435004D01*
X5814372Y-17435004D02*
X5842943Y-17435004D01*
X5842943Y-17435004D02*
X5861991Y-17444527D01*
X5861991Y-17444527D02*
X5871515Y-17463575D01*
X5871515Y-17463575D02*
X5871515Y-17568337D01*
X6261991Y-17358813D02*
X6090563Y-17615956D01*
X6519134Y-17368337D02*
X6538182Y-17368337D01*
X6538182Y-17368337D02*
X6557229Y-17377861D01*
X6557229Y-17377861D02*
X6566753Y-17387385D01*
X6566753Y-17387385D02*
X6576277Y-17406432D01*
X6576277Y-17406432D02*
X6585801Y-17444527D01*
X6585801Y-17444527D02*
X6585801Y-17492146D01*
X6585801Y-17492146D02*
X6576277Y-17530242D01*
X6576277Y-17530242D02*
X6566753Y-17549289D01*
X6566753Y-17549289D02*
X6557229Y-17558813D01*
X6557229Y-17558813D02*
X6538182Y-17568337D01*
X6538182Y-17568337D02*
X6519134Y-17568337D01*
X6519134Y-17568337D02*
X6500086Y-17558813D01*
X6500086Y-17558813D02*
X6490563Y-17549289D01*
X6490563Y-17549289D02*
X6481039Y-17530242D01*
X6481039Y-17530242D02*
X6471515Y-17492146D01*
X6471515Y-17492146D02*
X6471515Y-17444527D01*
X6471515Y-17444527D02*
X6481039Y-17406432D01*
X6481039Y-17406432D02*
X6490563Y-17387385D01*
X6490563Y-17387385D02*
X6500086Y-17377861D01*
X6500086Y-17377861D02*
X6519134Y-17368337D01*
X6671515Y-17549289D02*
X6681039Y-17558813D01*
X6681039Y-17558813D02*
X6671515Y-17568337D01*
X6671515Y-17568337D02*
X6661991Y-17558813D01*
X6661991Y-17558813D02*
X6671515Y-17549289D01*
X6671515Y-17549289D02*
X6671515Y-17568337D01*
X6804848Y-17368337D02*
X6823896Y-17368337D01*
X6823896Y-17368337D02*
X6842944Y-17377861D01*
X6842944Y-17377861D02*
X6852467Y-17387385D01*
X6852467Y-17387385D02*
X6861991Y-17406432D01*
X6861991Y-17406432D02*
X6871515Y-17444527D01*
X6871515Y-17444527D02*
X6871515Y-17492146D01*
X6871515Y-17492146D02*
X6861991Y-17530242D01*
X6861991Y-17530242D02*
X6852467Y-17549289D01*
X6852467Y-17549289D02*
X6842944Y-17558813D01*
X6842944Y-17558813D02*
X6823896Y-17568337D01*
X6823896Y-17568337D02*
X6804848Y-17568337D01*
X6804848Y-17568337D02*
X6785801Y-17558813D01*
X6785801Y-17558813D02*
X6776277Y-17549289D01*
X6776277Y-17549289D02*
X6766753Y-17530242D01*
X6766753Y-17530242D02*
X6757229Y-17492146D01*
X6757229Y-17492146D02*
X6757229Y-17444527D01*
X6757229Y-17444527D02*
X6766753Y-17406432D01*
X6766753Y-17406432D02*
X6776277Y-17387385D01*
X6776277Y-17387385D02*
X6785801Y-17377861D01*
X6785801Y-17377861D02*
X6804848Y-17368337D01*
X6985801Y-17454051D02*
X6966753Y-17444527D01*
X6966753Y-17444527D02*
X6957229Y-17435004D01*
X6957229Y-17435004D02*
X6947706Y-17415956D01*
X6947706Y-17415956D02*
X6947706Y-17406432D01*
X6947706Y-17406432D02*
X6957229Y-17387385D01*
X6957229Y-17387385D02*
X6966753Y-17377861D01*
X6966753Y-17377861D02*
X6985801Y-17368337D01*
X6985801Y-17368337D02*
X7023896Y-17368337D01*
X7023896Y-17368337D02*
X7042944Y-17377861D01*
X7042944Y-17377861D02*
X7052467Y-17387385D01*
X7052467Y-17387385D02*
X7061991Y-17406432D01*
X7061991Y-17406432D02*
X7061991Y-17415956D01*
X7061991Y-17415956D02*
X7052467Y-17435004D01*
X7052467Y-17435004D02*
X7042944Y-17444527D01*
X7042944Y-17444527D02*
X7023896Y-17454051D01*
X7023896Y-17454051D02*
X6985801Y-17454051D01*
X6985801Y-17454051D02*
X6966753Y-17463575D01*
X6966753Y-17463575D02*
X6957229Y-17473099D01*
X6957229Y-17473099D02*
X6947706Y-17492146D01*
X6947706Y-17492146D02*
X6947706Y-17530242D01*
X6947706Y-17530242D02*
X6957229Y-17549289D01*
X6957229Y-17549289D02*
X6966753Y-17558813D01*
X6966753Y-17558813D02*
X6985801Y-17568337D01*
X6985801Y-17568337D02*
X7023896Y-17568337D01*
X7023896Y-17568337D02*
X7042944Y-17558813D01*
X7042944Y-17558813D02*
X7052467Y-17549289D01*
X7052467Y-17549289D02*
X7061991Y-17530242D01*
X7061991Y-17530242D02*
X7061991Y-17492146D01*
X7061991Y-17492146D02*
X7052467Y-17473099D01*
X7052467Y-17473099D02*
X7042944Y-17463575D01*
X7042944Y-17463575D02*
X7023896Y-17454051D01*
X7233420Y-17368337D02*
X7195325Y-17368337D01*
X7195325Y-17368337D02*
X7176277Y-17377861D01*
X7176277Y-17377861D02*
X7166753Y-17387385D01*
X7166753Y-17387385D02*
X7147706Y-17415956D01*
X7147706Y-17415956D02*
X7138182Y-17454051D01*
X7138182Y-17454051D02*
X7138182Y-17530242D01*
X7138182Y-17530242D02*
X7147706Y-17549289D01*
X7147706Y-17549289D02*
X7157229Y-17558813D01*
X7157229Y-17558813D02*
X7176277Y-17568337D01*
X7176277Y-17568337D02*
X7214372Y-17568337D01*
X7214372Y-17568337D02*
X7233420Y-17558813D01*
X7233420Y-17558813D02*
X7242944Y-17549289D01*
X7242944Y-17549289D02*
X7252467Y-17530242D01*
X7252467Y-17530242D02*
X7252467Y-17482623D01*
X7252467Y-17482623D02*
X7242944Y-17463575D01*
X7242944Y-17463575D02*
X7233420Y-17454051D01*
X7233420Y-17454051D02*
X7214372Y-17444527D01*
X7214372Y-17444527D02*
X7176277Y-17444527D01*
X7176277Y-17444527D02*
X7157229Y-17454051D01*
X7157229Y-17454051D02*
X7147706Y-17463575D01*
X7147706Y-17463575D02*
X7138182Y-17482623D01*
X7423896Y-17368337D02*
X7385801Y-17368337D01*
X7385801Y-17368337D02*
X7366753Y-17377861D01*
X7366753Y-17377861D02*
X7357229Y-17387385D01*
X7357229Y-17387385D02*
X7338182Y-17415956D01*
X7338182Y-17415956D02*
X7328658Y-17454051D01*
X7328658Y-17454051D02*
X7328658Y-17530242D01*
X7328658Y-17530242D02*
X7338182Y-17549289D01*
X7338182Y-17549289D02*
X7347706Y-17558813D01*
X7347706Y-17558813D02*
X7366753Y-17568337D01*
X7366753Y-17568337D02*
X7404848Y-17568337D01*
X7404848Y-17568337D02*
X7423896Y-17558813D01*
X7423896Y-17558813D02*
X7433420Y-17549289D01*
X7433420Y-17549289D02*
X7442944Y-17530242D01*
X7442944Y-17530242D02*
X7442944Y-17482623D01*
X7442944Y-17482623D02*
X7433420Y-17463575D01*
X7433420Y-17463575D02*
X7423896Y-17454051D01*
X7423896Y-17454051D02*
X7404848Y-17444527D01*
X7404848Y-17444527D02*
X7366753Y-17444527D01*
X7366753Y-17444527D02*
X7347706Y-17454051D01*
X7347706Y-17454051D02*
X7338182Y-17463575D01*
X7338182Y-17463575D02*
X7328658Y-17482623D01*
X7519134Y-17368337D02*
X7519134Y-17406432D01*
X7595325Y-17368337D02*
X7595325Y-17406432D01*
X7890563Y-17644527D02*
X7881039Y-17635004D01*
X7881039Y-17635004D02*
X7861991Y-17606432D01*
X7861991Y-17606432D02*
X7852468Y-17587385D01*
X7852468Y-17587385D02*
X7842944Y-17558813D01*
X7842944Y-17558813D02*
X7833420Y-17511194D01*
X7833420Y-17511194D02*
X7833420Y-17473099D01*
X7833420Y-17473099D02*
X7842944Y-17425480D01*
X7842944Y-17425480D02*
X7852468Y-17396908D01*
X7852468Y-17396908D02*
X7861991Y-17377861D01*
X7861991Y-17377861D02*
X7881039Y-17349289D01*
X7881039Y-17349289D02*
X7890563Y-17339765D01*
X8061991Y-17368337D02*
X7966753Y-17368337D01*
X7966753Y-17368337D02*
X7957229Y-17463575D01*
X7957229Y-17463575D02*
X7966753Y-17454051D01*
X7966753Y-17454051D02*
X7985801Y-17444527D01*
X7985801Y-17444527D02*
X8033420Y-17444527D01*
X8033420Y-17444527D02*
X8052468Y-17454051D01*
X8052468Y-17454051D02*
X8061991Y-17463575D01*
X8061991Y-17463575D02*
X8071515Y-17482623D01*
X8071515Y-17482623D02*
X8071515Y-17530242D01*
X8071515Y-17530242D02*
X8061991Y-17549289D01*
X8061991Y-17549289D02*
X8052468Y-17558813D01*
X8052468Y-17558813D02*
X8033420Y-17568337D01*
X8033420Y-17568337D02*
X7985801Y-17568337D01*
X7985801Y-17568337D02*
X7966753Y-17558813D01*
X7966753Y-17558813D02*
X7957229Y-17549289D01*
X8309610Y-17568337D02*
X8309610Y-17368337D01*
X8395325Y-17568337D02*
X8395325Y-17463575D01*
X8395325Y-17463575D02*
X8385801Y-17444527D01*
X8385801Y-17444527D02*
X8366753Y-17435004D01*
X8366753Y-17435004D02*
X8338182Y-17435004D01*
X8338182Y-17435004D02*
X8319134Y-17444527D01*
X8319134Y-17444527D02*
X8309610Y-17454051D01*
X8519134Y-17568337D02*
X8500087Y-17558813D01*
X8500087Y-17558813D02*
X8490563Y-17549289D01*
X8490563Y-17549289D02*
X8481039Y-17530242D01*
X8481039Y-17530242D02*
X8481039Y-17473099D01*
X8481039Y-17473099D02*
X8490563Y-17454051D01*
X8490563Y-17454051D02*
X8500087Y-17444527D01*
X8500087Y-17444527D02*
X8519134Y-17435004D01*
X8519134Y-17435004D02*
X8547706Y-17435004D01*
X8547706Y-17435004D02*
X8566753Y-17444527D01*
X8566753Y-17444527D02*
X8576277Y-17454051D01*
X8576277Y-17454051D02*
X8585801Y-17473099D01*
X8585801Y-17473099D02*
X8585801Y-17530242D01*
X8585801Y-17530242D02*
X8576277Y-17549289D01*
X8576277Y-17549289D02*
X8566753Y-17558813D01*
X8566753Y-17558813D02*
X8547706Y-17568337D01*
X8547706Y-17568337D02*
X8519134Y-17568337D01*
X8700087Y-17568337D02*
X8681039Y-17558813D01*
X8681039Y-17558813D02*
X8671515Y-17539765D01*
X8671515Y-17539765D02*
X8671515Y-17368337D01*
X8852468Y-17558813D02*
X8833420Y-17568337D01*
X8833420Y-17568337D02*
X8795325Y-17568337D01*
X8795325Y-17568337D02*
X8776277Y-17558813D01*
X8776277Y-17558813D02*
X8766753Y-17539765D01*
X8766753Y-17539765D02*
X8766753Y-17463575D01*
X8766753Y-17463575D02*
X8776277Y-17444527D01*
X8776277Y-17444527D02*
X8795325Y-17435004D01*
X8795325Y-17435004D02*
X8833420Y-17435004D01*
X8833420Y-17435004D02*
X8852468Y-17444527D01*
X8852468Y-17444527D02*
X8861992Y-17463575D01*
X8861992Y-17463575D02*
X8861992Y-17482623D01*
X8861992Y-17482623D02*
X8766753Y-17501670D01*
X8938182Y-17558813D02*
X8957230Y-17568337D01*
X8957230Y-17568337D02*
X8995325Y-17568337D01*
X8995325Y-17568337D02*
X9014373Y-17558813D01*
X9014373Y-17558813D02*
X9023896Y-17539765D01*
X9023896Y-17539765D02*
X9023896Y-17530242D01*
X9023896Y-17530242D02*
X9014373Y-17511194D01*
X9014373Y-17511194D02*
X8995325Y-17501670D01*
X8995325Y-17501670D02*
X8966753Y-17501670D01*
X8966753Y-17501670D02*
X8947706Y-17492146D01*
X8947706Y-17492146D02*
X8938182Y-17473099D01*
X8938182Y-17473099D02*
X8938182Y-17463575D01*
X8938182Y-17463575D02*
X8947706Y-17444527D01*
X8947706Y-17444527D02*
X8966753Y-17435004D01*
X8966753Y-17435004D02*
X8995325Y-17435004D01*
X8995325Y-17435004D02*
X9014373Y-17444527D01*
X9090563Y-17644527D02*
X9100087Y-17635004D01*
X9100087Y-17635004D02*
X9119134Y-17606432D01*
X9119134Y-17606432D02*
X9128658Y-17587385D01*
X9128658Y-17587385D02*
X9138182Y-17558813D01*
X9138182Y-17558813D02*
X9147706Y-17511194D01*
X9147706Y-17511194D02*
X9147706Y-17473099D01*
X9147706Y-17473099D02*
X9138182Y-17425480D01*
X9138182Y-17425480D02*
X9128658Y-17396908D01*
X9128658Y-17396908D02*
X9119134Y-17377861D01*
X9119134Y-17377861D02*
X9100087Y-17349289D01*
X9100087Y-17349289D02*
X9090563Y-17339765D01*
X4115500Y-17696853D02*
X4315500Y-17896853D01*
X4315500Y-17696853D02*
X4115500Y-17896853D01*
X4215500Y-17896853D02*
X4315500Y-17796853D01*
X4215500Y-17696853D01*
X4115500Y-17796853D01*
X4215500Y-17896853D01*
X4557229Y-17688337D02*
X4681039Y-17688337D01*
X4681039Y-17688337D02*
X4614372Y-17764527D01*
X4614372Y-17764527D02*
X4642944Y-17764527D01*
X4642944Y-17764527D02*
X4661991Y-17774051D01*
X4661991Y-17774051D02*
X4671515Y-17783575D01*
X4671515Y-17783575D02*
X4681039Y-17802623D01*
X4681039Y-17802623D02*
X4681039Y-17850242D01*
X4681039Y-17850242D02*
X4671515Y-17869289D01*
X4671515Y-17869289D02*
X4661991Y-17878813D01*
X4661991Y-17878813D02*
X4642944Y-17888337D01*
X4642944Y-17888337D02*
X4585801Y-17888337D01*
X4585801Y-17888337D02*
X4566753Y-17878813D01*
X4566753Y-17878813D02*
X4557229Y-17869289D01*
X4766753Y-17869289D02*
X4776277Y-17878813D01*
X4776277Y-17878813D02*
X4766753Y-17888337D01*
X4766753Y-17888337D02*
X4757229Y-17878813D01*
X4757229Y-17878813D02*
X4766753Y-17869289D01*
X4766753Y-17869289D02*
X4766753Y-17888337D01*
X4852467Y-17707385D02*
X4861991Y-17697861D01*
X4861991Y-17697861D02*
X4881039Y-17688337D01*
X4881039Y-17688337D02*
X4928658Y-17688337D01*
X4928658Y-17688337D02*
X4947705Y-17697861D01*
X4947705Y-17697861D02*
X4957229Y-17707385D01*
X4957229Y-17707385D02*
X4966753Y-17726432D01*
X4966753Y-17726432D02*
X4966753Y-17745480D01*
X4966753Y-17745480D02*
X4957229Y-17774051D01*
X4957229Y-17774051D02*
X4842944Y-17888337D01*
X4842944Y-17888337D02*
X4966753Y-17888337D01*
X5090563Y-17688337D02*
X5109610Y-17688337D01*
X5109610Y-17688337D02*
X5128658Y-17697861D01*
X5128658Y-17697861D02*
X5138182Y-17707385D01*
X5138182Y-17707385D02*
X5147705Y-17726432D01*
X5147705Y-17726432D02*
X5157229Y-17764527D01*
X5157229Y-17764527D02*
X5157229Y-17812146D01*
X5157229Y-17812146D02*
X5147705Y-17850242D01*
X5147705Y-17850242D02*
X5138182Y-17869289D01*
X5138182Y-17869289D02*
X5128658Y-17878813D01*
X5128658Y-17878813D02*
X5109610Y-17888337D01*
X5109610Y-17888337D02*
X5090563Y-17888337D01*
X5090563Y-17888337D02*
X5071515Y-17878813D01*
X5071515Y-17878813D02*
X5061991Y-17869289D01*
X5061991Y-17869289D02*
X5052467Y-17850242D01*
X5052467Y-17850242D02*
X5042944Y-17812146D01*
X5042944Y-17812146D02*
X5042944Y-17764527D01*
X5042944Y-17764527D02*
X5052467Y-17726432D01*
X5052467Y-17726432D02*
X5061991Y-17707385D01*
X5061991Y-17707385D02*
X5071515Y-17697861D01*
X5071515Y-17697861D02*
X5090563Y-17688337D01*
X5281039Y-17688337D02*
X5300086Y-17688337D01*
X5300086Y-17688337D02*
X5319134Y-17697861D01*
X5319134Y-17697861D02*
X5328658Y-17707385D01*
X5328658Y-17707385D02*
X5338182Y-17726432D01*
X5338182Y-17726432D02*
X5347705Y-17764527D01*
X5347705Y-17764527D02*
X5347705Y-17812146D01*
X5347705Y-17812146D02*
X5338182Y-17850242D01*
X5338182Y-17850242D02*
X5328658Y-17869289D01*
X5328658Y-17869289D02*
X5319134Y-17878813D01*
X5319134Y-17878813D02*
X5300086Y-17888337D01*
X5300086Y-17888337D02*
X5281039Y-17888337D01*
X5281039Y-17888337D02*
X5261991Y-17878813D01*
X5261991Y-17878813D02*
X5252467Y-17869289D01*
X5252467Y-17869289D02*
X5242944Y-17850242D01*
X5242944Y-17850242D02*
X5233420Y-17812146D01*
X5233420Y-17812146D02*
X5233420Y-17764527D01*
X5233420Y-17764527D02*
X5242944Y-17726432D01*
X5242944Y-17726432D02*
X5252467Y-17707385D01*
X5252467Y-17707385D02*
X5261991Y-17697861D01*
X5261991Y-17697861D02*
X5281039Y-17688337D01*
X5433420Y-17888337D02*
X5433420Y-17755004D01*
X5433420Y-17774051D02*
X5442944Y-17764527D01*
X5442944Y-17764527D02*
X5461991Y-17755004D01*
X5461991Y-17755004D02*
X5490563Y-17755004D01*
X5490563Y-17755004D02*
X5509610Y-17764527D01*
X5509610Y-17764527D02*
X5519134Y-17783575D01*
X5519134Y-17783575D02*
X5519134Y-17888337D01*
X5519134Y-17783575D02*
X5528658Y-17764527D01*
X5528658Y-17764527D02*
X5547705Y-17755004D01*
X5547705Y-17755004D02*
X5576277Y-17755004D01*
X5576277Y-17755004D02*
X5595324Y-17764527D01*
X5595324Y-17764527D02*
X5604848Y-17783575D01*
X5604848Y-17783575D02*
X5604848Y-17888337D01*
X5700086Y-17888337D02*
X5700086Y-17755004D01*
X5700086Y-17774051D02*
X5709610Y-17764527D01*
X5709610Y-17764527D02*
X5728658Y-17755004D01*
X5728658Y-17755004D02*
X5757229Y-17755004D01*
X5757229Y-17755004D02*
X5776277Y-17764527D01*
X5776277Y-17764527D02*
X5785801Y-17783575D01*
X5785801Y-17783575D02*
X5785801Y-17888337D01*
X5785801Y-17783575D02*
X5795324Y-17764527D01*
X5795324Y-17764527D02*
X5814372Y-17755004D01*
X5814372Y-17755004D02*
X5842943Y-17755004D01*
X5842943Y-17755004D02*
X5861991Y-17764527D01*
X5861991Y-17764527D02*
X5871515Y-17783575D01*
X5871515Y-17783575D02*
X5871515Y-17888337D01*
X6261991Y-17678813D02*
X6090563Y-17935956D01*
X6519134Y-17688337D02*
X6538182Y-17688337D01*
X6538182Y-17688337D02*
X6557229Y-17697861D01*
X6557229Y-17697861D02*
X6566753Y-17707385D01*
X6566753Y-17707385D02*
X6576277Y-17726432D01*
X6576277Y-17726432D02*
X6585801Y-17764527D01*
X6585801Y-17764527D02*
X6585801Y-17812146D01*
X6585801Y-17812146D02*
X6576277Y-17850242D01*
X6576277Y-17850242D02*
X6566753Y-17869289D01*
X6566753Y-17869289D02*
X6557229Y-17878813D01*
X6557229Y-17878813D02*
X6538182Y-17888337D01*
X6538182Y-17888337D02*
X6519134Y-17888337D01*
X6519134Y-17888337D02*
X6500086Y-17878813D01*
X6500086Y-17878813D02*
X6490563Y-17869289D01*
X6490563Y-17869289D02*
X6481039Y-17850242D01*
X6481039Y-17850242D02*
X6471515Y-17812146D01*
X6471515Y-17812146D02*
X6471515Y-17764527D01*
X6471515Y-17764527D02*
X6481039Y-17726432D01*
X6481039Y-17726432D02*
X6490563Y-17707385D01*
X6490563Y-17707385D02*
X6500086Y-17697861D01*
X6500086Y-17697861D02*
X6519134Y-17688337D01*
X6671515Y-17869289D02*
X6681039Y-17878813D01*
X6681039Y-17878813D02*
X6671515Y-17888337D01*
X6671515Y-17888337D02*
X6661991Y-17878813D01*
X6661991Y-17878813D02*
X6671515Y-17869289D01*
X6671515Y-17869289D02*
X6671515Y-17888337D01*
X6871515Y-17888337D02*
X6757229Y-17888337D01*
X6814372Y-17888337D02*
X6814372Y-17688337D01*
X6814372Y-17688337D02*
X6795325Y-17716908D01*
X6795325Y-17716908D02*
X6776277Y-17735956D01*
X6776277Y-17735956D02*
X6757229Y-17745480D01*
X6947706Y-17707385D02*
X6957229Y-17697861D01*
X6957229Y-17697861D02*
X6976277Y-17688337D01*
X6976277Y-17688337D02*
X7023896Y-17688337D01*
X7023896Y-17688337D02*
X7042944Y-17697861D01*
X7042944Y-17697861D02*
X7052467Y-17707385D01*
X7052467Y-17707385D02*
X7061991Y-17726432D01*
X7061991Y-17726432D02*
X7061991Y-17745480D01*
X7061991Y-17745480D02*
X7052467Y-17774051D01*
X7052467Y-17774051D02*
X6938182Y-17888337D01*
X6938182Y-17888337D02*
X7061991Y-17888337D01*
X7233420Y-17688337D02*
X7195325Y-17688337D01*
X7195325Y-17688337D02*
X7176277Y-17697861D01*
X7176277Y-17697861D02*
X7166753Y-17707385D01*
X7166753Y-17707385D02*
X7147706Y-17735956D01*
X7147706Y-17735956D02*
X7138182Y-17774051D01*
X7138182Y-17774051D02*
X7138182Y-17850242D01*
X7138182Y-17850242D02*
X7147706Y-17869289D01*
X7147706Y-17869289D02*
X7157229Y-17878813D01*
X7157229Y-17878813D02*
X7176277Y-17888337D01*
X7176277Y-17888337D02*
X7214372Y-17888337D01*
X7214372Y-17888337D02*
X7233420Y-17878813D01*
X7233420Y-17878813D02*
X7242944Y-17869289D01*
X7242944Y-17869289D02*
X7252467Y-17850242D01*
X7252467Y-17850242D02*
X7252467Y-17802623D01*
X7252467Y-17802623D02*
X7242944Y-17783575D01*
X7242944Y-17783575D02*
X7233420Y-17774051D01*
X7233420Y-17774051D02*
X7214372Y-17764527D01*
X7214372Y-17764527D02*
X7176277Y-17764527D01*
X7176277Y-17764527D02*
X7157229Y-17774051D01*
X7157229Y-17774051D02*
X7147706Y-17783575D01*
X7147706Y-17783575D02*
X7138182Y-17802623D01*
X7376277Y-17688337D02*
X7395325Y-17688337D01*
X7395325Y-17688337D02*
X7414372Y-17697861D01*
X7414372Y-17697861D02*
X7423896Y-17707385D01*
X7423896Y-17707385D02*
X7433420Y-17726432D01*
X7433420Y-17726432D02*
X7442944Y-17764527D01*
X7442944Y-17764527D02*
X7442944Y-17812146D01*
X7442944Y-17812146D02*
X7433420Y-17850242D01*
X7433420Y-17850242D02*
X7423896Y-17869289D01*
X7423896Y-17869289D02*
X7414372Y-17878813D01*
X7414372Y-17878813D02*
X7395325Y-17888337D01*
X7395325Y-17888337D02*
X7376277Y-17888337D01*
X7376277Y-17888337D02*
X7357229Y-17878813D01*
X7357229Y-17878813D02*
X7347706Y-17869289D01*
X7347706Y-17869289D02*
X7338182Y-17850242D01*
X7338182Y-17850242D02*
X7328658Y-17812146D01*
X7328658Y-17812146D02*
X7328658Y-17764527D01*
X7328658Y-17764527D02*
X7338182Y-17726432D01*
X7338182Y-17726432D02*
X7347706Y-17707385D01*
X7347706Y-17707385D02*
X7357229Y-17697861D01*
X7357229Y-17697861D02*
X7376277Y-17688337D01*
X7519134Y-17688337D02*
X7519134Y-17726432D01*
X7595325Y-17688337D02*
X7595325Y-17726432D01*
X7890563Y-17964527D02*
X7881039Y-17955004D01*
X7881039Y-17955004D02*
X7861991Y-17926432D01*
X7861991Y-17926432D02*
X7852468Y-17907385D01*
X7852468Y-17907385D02*
X7842944Y-17878813D01*
X7842944Y-17878813D02*
X7833420Y-17831194D01*
X7833420Y-17831194D02*
X7833420Y-17793099D01*
X7833420Y-17793099D02*
X7842944Y-17745480D01*
X7842944Y-17745480D02*
X7852468Y-17716908D01*
X7852468Y-17716908D02*
X7861991Y-17697861D01*
X7861991Y-17697861D02*
X7881039Y-17669289D01*
X7881039Y-17669289D02*
X7890563Y-17659765D01*
X8052468Y-17755004D02*
X8052468Y-17888337D01*
X8004848Y-17678813D02*
X7957229Y-17821670D01*
X7957229Y-17821670D02*
X8081039Y-17821670D01*
X8309610Y-17888337D02*
X8309610Y-17688337D01*
X8395325Y-17888337D02*
X8395325Y-17783575D01*
X8395325Y-17783575D02*
X8385801Y-17764527D01*
X8385801Y-17764527D02*
X8366753Y-17755004D01*
X8366753Y-17755004D02*
X8338182Y-17755004D01*
X8338182Y-17755004D02*
X8319134Y-17764527D01*
X8319134Y-17764527D02*
X8309610Y-17774051D01*
X8519134Y-17888337D02*
X8500087Y-17878813D01*
X8500087Y-17878813D02*
X8490563Y-17869289D01*
X8490563Y-17869289D02*
X8481039Y-17850242D01*
X8481039Y-17850242D02*
X8481039Y-17793099D01*
X8481039Y-17793099D02*
X8490563Y-17774051D01*
X8490563Y-17774051D02*
X8500087Y-17764527D01*
X8500087Y-17764527D02*
X8519134Y-17755004D01*
X8519134Y-17755004D02*
X8547706Y-17755004D01*
X8547706Y-17755004D02*
X8566753Y-17764527D01*
X8566753Y-17764527D02*
X8576277Y-17774051D01*
X8576277Y-17774051D02*
X8585801Y-17793099D01*
X8585801Y-17793099D02*
X8585801Y-17850242D01*
X8585801Y-17850242D02*
X8576277Y-17869289D01*
X8576277Y-17869289D02*
X8566753Y-17878813D01*
X8566753Y-17878813D02*
X8547706Y-17888337D01*
X8547706Y-17888337D02*
X8519134Y-17888337D01*
X8700087Y-17888337D02*
X8681039Y-17878813D01*
X8681039Y-17878813D02*
X8671515Y-17859765D01*
X8671515Y-17859765D02*
X8671515Y-17688337D01*
X8852468Y-17878813D02*
X8833420Y-17888337D01*
X8833420Y-17888337D02*
X8795325Y-17888337D01*
X8795325Y-17888337D02*
X8776277Y-17878813D01*
X8776277Y-17878813D02*
X8766753Y-17859765D01*
X8766753Y-17859765D02*
X8766753Y-17783575D01*
X8766753Y-17783575D02*
X8776277Y-17764527D01*
X8776277Y-17764527D02*
X8795325Y-17755004D01*
X8795325Y-17755004D02*
X8833420Y-17755004D01*
X8833420Y-17755004D02*
X8852468Y-17764527D01*
X8852468Y-17764527D02*
X8861992Y-17783575D01*
X8861992Y-17783575D02*
X8861992Y-17802623D01*
X8861992Y-17802623D02*
X8766753Y-17821670D01*
X8938182Y-17878813D02*
X8957230Y-17888337D01*
X8957230Y-17888337D02*
X8995325Y-17888337D01*
X8995325Y-17888337D02*
X9014373Y-17878813D01*
X9014373Y-17878813D02*
X9023896Y-17859765D01*
X9023896Y-17859765D02*
X9023896Y-17850242D01*
X9023896Y-17850242D02*
X9014373Y-17831194D01*
X9014373Y-17831194D02*
X8995325Y-17821670D01*
X8995325Y-17821670D02*
X8966753Y-17821670D01*
X8966753Y-17821670D02*
X8947706Y-17812146D01*
X8947706Y-17812146D02*
X8938182Y-17793099D01*
X8938182Y-17793099D02*
X8938182Y-17783575D01*
X8938182Y-17783575D02*
X8947706Y-17764527D01*
X8947706Y-17764527D02*
X8966753Y-17755004D01*
X8966753Y-17755004D02*
X8995325Y-17755004D01*
X8995325Y-17755004D02*
X9014373Y-17764527D01*
X9090563Y-17964527D02*
X9100087Y-17955004D01*
X9100087Y-17955004D02*
X9119134Y-17926432D01*
X9119134Y-17926432D02*
X9128658Y-17907385D01*
X9128658Y-17907385D02*
X9138182Y-17878813D01*
X9138182Y-17878813D02*
X9147706Y-17831194D01*
X9147706Y-17831194D02*
X9147706Y-17793099D01*
X9147706Y-17793099D02*
X9138182Y-17745480D01*
X9138182Y-17745480D02*
X9128658Y-17716908D01*
X9128658Y-17716908D02*
X9119134Y-17697861D01*
X9119134Y-17697861D02*
X9100087Y-17669289D01*
X9100087Y-17669289D02*
X9090563Y-17659765D01*
M02*
