%TF.GenerationSoftware,KiCad,Pcbnew,8.0.5*%
%TF.CreationDate,2024-10-06T18:47:03+02:00*%
%TF.ProjectId,ESC_MOTEUR_BRUSHLESS,4553435f-4d4f-4544-9555-525f42525553,rev?*%
%TF.SameCoordinates,Original*%
%TF.FileFunction,Drillmap*%
%TF.FilePolarity,Positive*%
%FSLAX45Y45*%
G04 Gerber Fmt 4.5, Leading zero omitted, Abs format (unit mm)*
G04 Created by KiCad (PCBNEW 8.0.5) date 2024-10-06 18:47:03*
%MOMM*%
%LPD*%
G01*
G04 APERTURE LIST*
%ADD10C,0.050000*%
%ADD11C,0.200000*%
G04 APERTURE END LIST*
D10*
X14858647Y-14986353D02*
X4699000Y-14986000D01*
X14842239Y-2540000D02*
G75*
G02*
X15239993Y-2921000I16411J-380990D01*
G01*
X15240000Y-14605000D02*
G75*
G02*
X14858647Y-14986360I-381360J0D01*
G01*
X4318000Y-14605000D02*
X4318000Y-2921000D01*
X4699000Y-14986000D02*
G75*
G02*
X4318000Y-14605000I0J381000D01*
G01*
X4318000Y-2921000D02*
G75*
G02*
X4699000Y-2540000I381000J0D01*
G01*
X4699000Y-2540000D02*
X14842239Y-2540000D01*
X15240000Y-2921000D02*
X15240000Y-14605000D01*
D11*
X4576277Y-15300337D02*
X4576277Y-15100337D01*
X4576277Y-15100337D02*
X4623896Y-15100337D01*
X4623896Y-15100337D02*
X4652467Y-15109861D01*
X4652467Y-15109861D02*
X4671515Y-15128908D01*
X4671515Y-15128908D02*
X4681039Y-15147956D01*
X4681039Y-15147956D02*
X4690563Y-15186051D01*
X4690563Y-15186051D02*
X4690563Y-15214623D01*
X4690563Y-15214623D02*
X4681039Y-15252718D01*
X4681039Y-15252718D02*
X4671515Y-15271765D01*
X4671515Y-15271765D02*
X4652467Y-15290813D01*
X4652467Y-15290813D02*
X4623896Y-15300337D01*
X4623896Y-15300337D02*
X4576277Y-15300337D01*
X4776277Y-15300337D02*
X4776277Y-15167003D01*
X4776277Y-15205099D02*
X4785801Y-15186051D01*
X4785801Y-15186051D02*
X4795324Y-15176527D01*
X4795324Y-15176527D02*
X4814372Y-15167003D01*
X4814372Y-15167003D02*
X4833420Y-15167003D01*
X4900086Y-15300337D02*
X4900086Y-15167003D01*
X4900086Y-15100337D02*
X4890563Y-15109861D01*
X4890563Y-15109861D02*
X4900086Y-15119384D01*
X4900086Y-15119384D02*
X4909610Y-15109861D01*
X4909610Y-15109861D02*
X4900086Y-15100337D01*
X4900086Y-15100337D02*
X4900086Y-15119384D01*
X5023896Y-15300337D02*
X5004848Y-15290813D01*
X5004848Y-15290813D02*
X4995324Y-15271765D01*
X4995324Y-15271765D02*
X4995324Y-15100337D01*
X5128658Y-15300337D02*
X5109610Y-15290813D01*
X5109610Y-15290813D02*
X5100086Y-15271765D01*
X5100086Y-15271765D02*
X5100086Y-15100337D01*
X5357229Y-15300337D02*
X5357229Y-15100337D01*
X5357229Y-15100337D02*
X5423896Y-15243194D01*
X5423896Y-15243194D02*
X5490563Y-15100337D01*
X5490563Y-15100337D02*
X5490563Y-15300337D01*
X5671515Y-15300337D02*
X5671515Y-15195575D01*
X5671515Y-15195575D02*
X5661991Y-15176527D01*
X5661991Y-15176527D02*
X5642943Y-15167003D01*
X5642943Y-15167003D02*
X5604848Y-15167003D01*
X5604848Y-15167003D02*
X5585801Y-15176527D01*
X5671515Y-15290813D02*
X5652467Y-15300337D01*
X5652467Y-15300337D02*
X5604848Y-15300337D01*
X5604848Y-15300337D02*
X5585801Y-15290813D01*
X5585801Y-15290813D02*
X5576277Y-15271765D01*
X5576277Y-15271765D02*
X5576277Y-15252718D01*
X5576277Y-15252718D02*
X5585801Y-15233670D01*
X5585801Y-15233670D02*
X5604848Y-15224146D01*
X5604848Y-15224146D02*
X5652467Y-15224146D01*
X5652467Y-15224146D02*
X5671515Y-15214623D01*
X5766753Y-15167003D02*
X5766753Y-15367003D01*
X5766753Y-15176527D02*
X5785801Y-15167003D01*
X5785801Y-15167003D02*
X5823896Y-15167003D01*
X5823896Y-15167003D02*
X5842943Y-15176527D01*
X5842943Y-15176527D02*
X5852467Y-15186051D01*
X5852467Y-15186051D02*
X5861991Y-15205099D01*
X5861991Y-15205099D02*
X5861991Y-15262242D01*
X5861991Y-15262242D02*
X5852467Y-15281289D01*
X5852467Y-15281289D02*
X5842943Y-15290813D01*
X5842943Y-15290813D02*
X5823896Y-15300337D01*
X5823896Y-15300337D02*
X5785801Y-15300337D01*
X5785801Y-15300337D02*
X5766753Y-15290813D01*
X5947705Y-15281289D02*
X5957229Y-15290813D01*
X5957229Y-15290813D02*
X5947705Y-15300337D01*
X5947705Y-15300337D02*
X5938182Y-15290813D01*
X5938182Y-15290813D02*
X5947705Y-15281289D01*
X5947705Y-15281289D02*
X5947705Y-15300337D01*
X5947705Y-15176527D02*
X5957229Y-15186051D01*
X5957229Y-15186051D02*
X5947705Y-15195575D01*
X5947705Y-15195575D02*
X5938182Y-15186051D01*
X5938182Y-15186051D02*
X5947705Y-15176527D01*
X5947705Y-15176527D02*
X5947705Y-15195575D01*
M02*
